<svg version="1.0" xmlns="http://www.w3.org/2000/svg" width="842.667" height="842.667" viewBox="0 0 632 632"><path d="M320.7 66.8c-2.6.2-3.5.7-3 1.5.4.8.1.7-.9-.1-1.4-1.1-1.8-1-2.7.5-1 1.7-1 1.7-1.1-.2 0-1.1-.3-1.6-.8-1-.4.6-1.4 1-2.2 1-.8 0-1.8.4-2.2 1-.5.6-.8.6-.8-.2 0-.7-.7-1-1.5-.7-.8.4-1.2 1.1-.8 1.8.4.8.3.8-.6 0-1.3-1.2-8.2-.8-9.1.5-.3.4-1.7.6-3.2.6-1.6-.1-2.8.2-2.9.5-.3 2.5-.9 4.3-1.4 4.8-.3.4-.4-.6-.1-2.1.4-2.5.3-2.7-1.7-2.1-1.2.4-3.1.8-4.2 1-1.1.1-2 .3-2 .4 0 .3-6.5 1.8-8.3 1.9-.8.1-1 .6-.6 1.3.6 1 .5 1-.7.1-1.2-1-1.8-1-2.7-.1-.7.7-1.2.8-1.2.4 0-.5-1.2-.1-2.6.9-1.5.9-2.3 1.2-2 .6 1.1-1.8-.5-1.3-2.1.6-.8 1-1.2 1.2-.8.5.9-1.8-.6-1.5-2.2.5-.8 1-1.2 1.2-.8.5.5-1 0-1.1-2.2-.6-1.5.4-3 1-3.3 1.3-.3.3-.9.6-1.5.6-1.9 0-11 2.8-12.2 3.8-.7.5-1 1.4-.6 2 .3.6.1.7-.6.3-.6-.4-.9-1.2-.6-1.7.4-.5.1-.9-.4-.9-.6 0-1.1.5-1.1 1.1 0 .5-.4.7-1 .4-.5-.3-1-.1-1 .5 0 .7-.7 1-1.5.6-.8-.3-1.5-.1-1.5.4 0 .6-.3.9-.7.8-1.2-.2-6.4 1.4-9.2 2.8-1.4.8-3.1 1.4-3.7 1.4-.6 0-1.7.7-2.4 1.5s-1.6 1.3-2 1c-.5-.3-1.1-.1-1.5.4-.3.6-1.2.8-2 .4-.8-.3-1.5 0-1.5.5 0 .6-1.6 1.6-3.5 2.3-1.9.7-3.5 1.7-3.5 2.3 0 .5-.3.7-.6.3-.4-.3-1.3.1-2.1.9s-1.9 1.2-2.4.9c-.5-.4-.9-.2-.9.2 0 .5-2.3 1.9-5 3.2-2.8 1.3-5.4 2.9-5.7 3.4-.4.6-.1.7.7.2.9-.5 1.1-.4.6.4-.4.6-1.1.9-1.6.6-1-.6-14 8.2-14 9.6 0 .5-.6.8-1.2.6-.7-.1-1.2.3-1.1 1 .2.8-.4 1-1.4.6-.9-.4-1.4-.2-1 .3.3.6-.7 1.8-2.4 2.8-1.6.9-2.9 2.1-2.9 2.7 0 .5-.6.9-1.2.9-.7 0-2.2 1.3-3.3 2.9-1 1.6-2.3 2.7-2.7 2.5-.4-.3-.8-.2-.8.3 0 .4-1.4 2.3-3.1 4.1-2.8 3-3 3.4-1.4 4.5 1.5 1.2 1.5 1.3-.4 1.3-1.1 0-1.7-.4-1.5-.8.3-.4 0-.8-.5-.8-.6 0-1.1.4-1.1 1 0 .5-1 1.8-2.2 3-1.2 1.1-1.8 2-1.4 2 .9 0-4.4 5-5.5 5.1-1.1.2-1.9.4-3.9 1.1-.8.3-4.2 1.3-7.5 2.4-7.9 2.4-12.2 4.4-16.5 7.4-4.2 3-11.6 10-10.5 10 .4 0-.4.9-1.9 2.1-1.4 1.1-2.4 2.5-2.1 3 .4.5.2.9-.3.9-1.1 0-8.5 14.4-8.5 16.5 0 .8-.3 1.5-.7 1.5-.4 0-.7.6-.8 1.2 0 .7-.7 3.4-1.5 6-.9 2.5-1.3 4.9-1 5.2.4.3 0 .6-.7.6s-1.1.3-.8.6c.4.3.2 1.9-.2 3.5-.8 2.7-1.7 8.6-2.6 16.4-.2 1.6-.6 5.2-.9 8-1.1 9.1-1.2 18-.3 19.2.5.6.5 1.3 0 1.7-1.3.8-.4 10.6 1.1 12.5 1 1.2.9 1.3-.2.6-1.1-.6-1.3-.4-.6 1.1.4 1 .9 2.6 1 3.4.3 2.5 2.6 10.2 3.5 11.9 1.4 2.6 4.7 11.9 8.1 22.6 1.8 5.5 3.7 10.6 4.3 11.4.9 1.2.8 1.3-.4.6-1.2-.6-1.3-.5-.2.6.6.7 1.2 1.9 1.2 2.5 0 .7.5 2.5 1.2 4.1.6 1.5 1.2 3 1.2 3.3.1.3.5 1.1.9 1.7.5.7.6 1.3.3 1.3-.5 0 1.1 5.1 3.4 10.5.5 1.1 1.4 3.8 2.1 6 .7 2.2 1.7 4.4 2.1 4.9.4.6.8 1.8.8 2.8 0 1 .5 1.8 1.1 1.8.5 0 .8.4.5.8-.2.4.2 2.1.9 3.7.8 1.7 2.1 4.7 2.9 6.8 1.1 2.6 2 3.6 2.8 3.1 1-.5 1-.4.1.6-.8.9-.5 2.3 1.2 5.9 2.5 4.9 8.9 18.7 12 25.8 1 2.4 2.3 4.3 2.8 4.3.4 0 .5.5.1 1.1-.3.6-.2 1.4.3 1.8.6.3 2.7 3.9 4.7 7.9s4.1 7 4.5 6.7c.5-.3.8.3.7 1.2-.3 1.9 1.5 4.3 2.6 3.6.4-.2.5.2.2 1s.2 2.1 1 3c.8.8 1.2 1.7.9 2.1-.4.3-.1.6.5.6.7 0 1.2.7 1.2 1.5s1.2 2.2 2.8 3c1.5.9 1.9 1.4.9 1.1-1.7-.5-1.7-.5 0 1.9 1 1.3 2.2 2.5 2.6 2.5.5 0 .5.5.1 1.2-.5.8-.1.9 1.2.4 1.4-.5 1.6-.4.7.4-1.1 1.3-.3 2.7 4.2 7.3 1.1 1.1 1.4 1.7.7 1.2-1.1-.6-1.1-.3 0 1.4 1.6 2.5 3 2.8 2.2.3-.5-1.3-.4-1.4.4-.3.6.8.8 2 .5 2.8-.3.7 0 1.3.7 1.3.6 0 .9.4.6.8-.2.4 1.3 2.7 3.5 5.2 2.1 2.4 3.9 5 3.9 5.8 0 .9.6 1.2 1.7.8 1-.4 1.4-.4 1.1 0-1.1 1 2.1 6.4 3.8 6.4.8 0 1.3.4 1 .8-.7 1.2 5.2 7.5 6.3 6.7.6-.3.8 0 .5.9-.6 1.6 2.4 5.6 4.3 5.6.7 0 1.2.3 1.1.7-.4 1.3 5.4 7.3 6.4 6.7.5-.3.7 0 .6.8-.2.7.3 1.2 1 1 .8-.1 1.1.1.8.6-.6 1.1 4 5.3 4.8 4.5.3-.4.6 0 .6.8s.9 2.1 2.1 2.9c1.1.8 3.2 2.5 4.6 3.8 2.3 2.1 2.7 2.2 4.3.7 1.4-1.3 2-1.4 2.6-.3.4.7.4 1-.1.6-.4-.4-1.4-.3-2.2.3-1.4 1.3-1.8 3.3-.4 2.5.5-.3 1.1.1 1.5.9.3.9 1.2 1.2 2.3.8 1-.3 1.5-.3 1.1.2-.8.8 1.5 3.5 3 3.5.6 0 1.2.4 1.4.8.6 1.5 12.5 9.1 13.2 8.5.3-.4.6-.1.6.6 0 .8.6 1.1 1.6.7.8-.3 1.3-.2 1 .2-.3.5 3 2.6 7.2 4.8 10.4 5.2 11.4 5.6 10.7 4.1-.4-.6 0-.4.8.5.8 1 2.1 1.8 2.9 1.8.8 0 1.9.5 2.6 1.2.9.9 1.2.9 1.2-.2 0-.9.5-.8 1.6.6 1.3 1.6 1.5 1.6 1 .2-.3-1 0-2 .7-2.4.7-.4.9-.4.5.1-1.2 1.3 1.1 4.5 2.7 3.9.8-.4 1.5-.1 1.5.5 0 .7.6 1.1 1.3 1 .6-.1 2 .1 3.1.6 1.2.5 2.1.3 2.7-.6.7-1.1.9-1.1.9.3 0 1.3.6 1.7 2.3 1.4 1.2-.2 2.1-.9 1.9-1.6-.1-.6.2-.9.8-.5.6.3.8 1 .5 1.5-.8 1.3.6 1.8 7.3 2.4 4.8.4 6.1.3 5.7-.7-.4-.6 0-.4.8.6 2 2.4 2.1 2.4 4.2.7 1.4-1.1 1.7-1.2 1.1-.1-.6.9-.5 1.2.5.9.8-.3 1.3-1.1 1.1-1.7-.1-.7.2-1 .8-.6.6.3.8 1.1.5 1.6-.4.5-.1.9.4.9.6 0 1.1-.6 1.1-1.3 0-.8.3-.9.8-.1.7 1.1 14.2 1.4 14.2.4 0-.3 2.1-.5 4.6-.5 2.5.1 4.7-.2 5-.6.2-.4 1.4-.5 2.6-.1 1.5.3 1.9.2 1.4-.7-.6-.9 0-1 2-.5 1.7.5 2.5.3 2.1-.3-.4-.6.1-1.7 1.1-2.4 1.5-1.3 1.6-1.2.4.3-.9 1.1-1 1.8-.2 2.3.5.3 1 .2 1-.4 0-.5.8-.8 1.8-.6.9.1 2.2 0 2.7-.4.6-.3 1.5-.6 2-.8 3.7-.8 5.8-1.4 12-3.4 7.1-2.3 8.9-3.5 7.8-5.3-.3-.5-.1-.6.6-.2.6.4.9 1.2.5 1.7-.4.7 0 .7 1.2 0 1.1-.5 6.6-3.3 12.4-6.1 5.8-2.9 10.7-5.5 11-5.9.3-.3 1.8-1.2 3.3-1.9 1.5-.7 2.5-1.7 2.2-2.2-.3-.5 0-.7.8-.4 1.9.7 3-3.5 1.4-5.5-1.1-1.4-1-1.4.6-.2 1.2.9 1.5 2.1 1.1 3.5-.6 1.8-.5 1.9.9.7.9-.7 1.4-1.7 1.1-2.2-.3-.5.2-.6 1-.3 1 .4 1.6.1 1.6-.7 0-.7.3-.9.7-.6.3.4 1.7-.6 3.1-2.1 1.4-1.5 2.6-2.5 2.7-2.2.1.7 8.8-6.5 13-10.7 1.8-1.8 3-3.5 2.7-3.8-.3-.3.1-.5.9-.6 1.2 0 7.2-6.8 10.4-11.7 2.8-4.3 7-8.2 9.6-8.7 1.6-.4 2.7-1 2.5-1.4-.3-.4.5-.7 1.6-.6 2.8.2 8-2.4 7.2-3.6-.3-.5-.9-.7-1.3-.5-.4.3-.8-.1-.8-.9 0-1.2.3-1.2 1.6-.2.9.6 1.9 1.6 2.4 2.2.4.6 1 .5 1.6-.3.4-.8 1.1-1.3 1.5-1.3 1.1.2 19.8-8 20.6-9 .3-.3 2.8-1.9 5.7-3.4 2.9-1.6 4.9-3.3 4.6-3.8-.4-.6 0-.8 1-.4 1 .3 1.7.3 1.7-.2s.8-1.2 1.8-1.5c2.6-1 6.8-3.6 5.8-3.6-.6 0-.1-.6.9-1.4 1.1-.8 2.3-1.2 2.7-1 .5.3.8-.2.8-1 0-.9.3-1.5.8-1.4 1.1.4 5.2-3.5 4.6-4.4-.3-.4.3-.5 1.2-.1 1.2.4 1.5.2 1.2-.8-.3-.8-1-1.4-1.6-1.4-.5 0-1.3-.3-1.7-.7-.9-.9 1.6-.5 3.3.5 1.6 1 3.2 0 3.2-2 0-.9.3-1.3.7-1 1 1 3.4-1.4 2.6-2.7-.3-.6-.2-.8.2-.3.8.7 4.5-2 4.5-3.3 0-.9-5.2-.7-6.8.4-1.1.7-1.1.4-.1-1.2.7-1.2 1.8-1.8 2.4-1.4 1.6 1 5.5 1 5.5 0 0-.5.5-.6 1-.3.9.6 1.4-.8 1.1-2.8-.1-.5.3-.5.9-.2.7.4 1.4-.2 1.7-1.4.3-1.1.9-1.8 1.4-1.5.5.3.9-.1.9-.9 0-.7.9-2.3 2-3.5 1.2-1.2 1.7-2.2 1.2-2.2s-1.9 1.1-3.2 2.5c-1.3 1.4-3 2.5-3.8 2.5-.8 0-1.2.6-.9 1.4.4 1 0 1.2-1.4.9-1.1-.3-1.9 0-1.9.7s-.7 1-1.6.6c-1.3-.5-1.5-.2-1.1 1.6.6 2.1.5 2.2-.8.5-.7-1.1-1.6-1.4-1.9-.8-.4.5-3.1 1.5-6.1 2.2-3.1.7-5.2 1.6-4.8 2.2.4.6.1.7-.8.1-1.9-1.1-9.9-1.2-9.1 0 .3.5-.3.6-1.3.3-.9-.4-2.4-.2-3.2.5-1.1.9-1.3.9-1.1-.2.2-.8-.9-1.4-3.1-1.7-1.8-.2-4.5-.9-6-1.5-1.4-.6-2.8-1.2-3.1-1.3-2.6-.7-8.9-4-12.7-6.6-4.8-3.2-15.3-13.7-15.3-15.2 0-1-8-12.6-12.9-18.7-20.5-25.6-55.5-39.4-87.4-34.3-23.4 3.7-42.4 12.7-55 26.2-2.6 2.7-9 11.6-14.4 19.8-5.3 8.1-10.3 15.4-11 16.1-.7.7-1.3 1.7-1.3 2.2 0 2.2-11.6 12.2-17.3 14.9-19.9 9.7-41.7 8.1-59.2-4.4-10-7.2-15-13.6-20-26-2.2-5.6-2.8-8.9-3.1-16.5-.5-14.9 1.9-22 15.7-45.3 3.5-5.9 7.5-12.7 8.8-15 1.3-2.3 4.8-8.5 7.8-13.7 3.1-5.2 7.9-13.6 10.8-18.5 2.9-5 8.6-14.6 12.6-21.5 4.1-6.9 7.8-13.5 8.2-14.8.5-1.2 1.3-2.2 1.8-2.2s.9-.4.9-.9c0-.4 4.3-8.2 9.6-17.2S269 226 273.5 218c4.5-8 12.2-21.3 17-29.5 4.9-8.3 10.3-17.5 12-20.6 1.6-3.1 4.2-7.8 5.7-10.4 1.5-2.6 2.5-5.2 2.1-5.8-.3-.5-.2-.7.4-.4.6.4 1.9-1 2.9-3.1 1-2 2.8-4.8 3.9-6.1 1.1-1.3 1.4-2.1.8-1.7-.7.4-1.3.3-1.3-.2s1-1.2 2.2-1.5l2.1-.6-2.4-2.1c-2.1-1.8-2.1-1.9-.2-.9 1.9 1.2 2.6.8 6.7-3.4 2.6-2.6 4.7-4.6 4.9-4.5.1 0 2.7-1.3 5.7-3s5.8-3.1 6.3-3.1c.4 0 2-.7 3.5-1.5 6.2-3.2 20.6-4.2 31-2 15.2 3.1 24.9 10 36.6 25.9 3.3 4.4 6.5 8.7 7.2 9.5.8.8 3.1 3.5 5.1 5.9 2.1 2.4 4.7 5.3 5.8 6.5 10.8 11.9 16.9 18.9 18.8 21.3 1.2 1.5 2.7 3.4 3.4 4.1 4 4.2 10.9 15.3 12.9 20.7 1.9 5.1 2.3 8.1 2.1 15.2-.2 7.8-.6 9.6-3.8 16.3-4.5 9.2-10.4 15.4-18.7 19.3-7.3 3.4-14.9 3.9-20 1.3-1.7-.9-10.3-8.8-18.9-17.5-19.6-19.6-23-21.6-35.6-20.8-12.2.8-17.3 2.2-25.9 7.4-10.3 6.1-17.9 17.3-19.4 28.5-1 7-.9 8.3.4 14.6 4.1 18.3 20.3 32.1 38.1 32.3 4.9.1 8.8-1.1 26.7-7.9 23.9-9.2 30.4-11 41.2-11.9 32.3-2.4 56.2 3.3 79.7 19 5.2 3.5 26.5 23.7 26.5 25.2 0 .3 1.8 2.8 4 5.6s3.7 5.6 3.3 6.2c-.4.6-.1.8.8.5 1-.4 1.5.1 1.6 1.5.1 1.1.6 2.3 1 2.6.5.3 1.4 1.9 2.1 3.4.7 1.7 1.7 2.5 2.4 2.1.6-.4.8-.3.4.4-.6 1 2.1 8 3.5 9.2.8.6 2.4 5.3 2.1 6.2-.1.5.3.8.9.8.5 0 .8.4.5.9-.4.5-.1 2.2.4 3.7.6 1.5 1.1 4.8 1.2 7.3.1 4 .2 4.3 1 2.1.5-1.4.7-3.5.5-4.7-.2-1.2-.1-2 .3-1.8.5.3.8-.5.8-1.8.1-1.2.3-4.8.5-8 .2-3.7 0-5.7-.7-5.7-.8 0-.8-.2 0-.8 1.3-.9 1.3-10.2 0-10.2-.6 0-.5-.5.2-1.2.6-.6.8-1.8.3-2.7-.4-.9-.7-3.2-.6-5.1.1-1.9-.1-3.9-.4-4.5-.2-.5-.6-2.3-.8-4-.2-1.6-.4-3.6-.5-4.3-.1-.7-.8-1-1.7-.7-1.3.4-1.3.2.1-.8 1-.8 1.5-1.6 1.2-1.9-.5-.5-1.4-5.4-1.6-8.6-.1-.6-.8-1.2-1.7-1.3-1.2 0-1.1-.3.4-.9 1.7-.7 1.7-.9.3-.9-1-.1-1.8-.6-1.8-1.2 0-.5.4-.8.9-.4.6.3.8-.4.4-1.7-.3-1.3-.7-3.5-1-5-.3-1.7-1-2.5-1.9-2.1-.8.3-1.2.8-.9 1.2.2.4-.3.8-1.2.8-1.2 0-1-.6.9-2.2 1.8-1.5 2.3-2.7 1.7-3.7-.8-1.4-2-6.1-2.1-8.6-.1-.6-.8-1.2-1.7-1.2-1.2 0-1.3-.2-.3-.8.9-.7.8-2-.7-6.4-1.1-3.1-1.7-5.9-1.4-6.2.4-.3.1-.6-.5-.6s-.9-.7-.5-1.7c.5-1.1.3-1.4-.6-.8-1 .5-1.1.2-.6-1.4.4-1.3.2-2.1-.5-2.1-.6 0-.8-.5-.5-1 .4-.6.1-1.7-.5-2.5-.7-.8-.9-1.5-.5-1.5s0-1.1-.9-2.5-1.4-2.5-1.2-2.5c.4 0-2.8-9.5-5.1-15-.3-.8-.5-1.8-.5-2.3.1-.4-.2-.7-.8-.7-.6 0-.9-.3-.9-.8.3-1.8-.2-3.2-1.7-4.6-1.2-1.2-1.2-1.6-.2-1.6s.9-.3-.2-1c-.8-.5-1.5-1.7-1.5-2.7 0-1-.5-1.7-1.1-1.6-.6.1-1-.8-1-2 .1-1.3-.4-2.1-1.2-1.9-.8.1-1.1-.2-.7-.8 1.1-1.8-1.5-8-3.3-8-1.1 0-1.3-.3-.6-.8 1.4-.8-2.3-9.5-3.6-8.7-.5.3-.6-.4-.3-1.5s0-2-.6-2-1.1-1.1-1.1-2.5-.4-2.5-.9-2.5-1.2-1.2-1.6-2.7c-.5-2.2-.8-2.4-1.7-1.2-.8 1.1-.9 1.1-.4-.4.6-2-1.3-6.9-2.5-6.1-.5.3-.6-.2-.3-1 .3-.9.1-1.6-.5-1.6s-1-.3-.9-.8c.1-.8-1.3-4.5-2.1-5.2-.3-.3-1.7-2.5-3-5-1.4-2.5-3.2-5.1-4-5.8-.9-.8-1-1.1-.3-.7.7.3-.2-1.4-1.9-3.9s-3.5-4.6-4-4.6-.9-.6-.7-1.3c.5-2.2-4-7-5.9-6.3-1.5.5-1.5.4.1-.9 1.8-1.3 1.5-2-.6-1.6-.5 0-.8-.9-.8-2.1 0-2.1 0-2.1-2.2-.2-1.3 1-1.7 1.2-1 .4 1.8-2.1 1.5-4-1.3-6.6-1.4-1.3-2.5-2.7-2.5-3.2 0-1.5-3.6-4.3-4.5-3.5-.4.5-.5.3-.1-.4.8-1.4-6.3-9.5-7.6-8.7-.5.3-.7 0-.6-.8.2-.7-.4-1.2-1.3-1.2-1.1.1-1.5-.5-1.2-1.7.4-1.3 0-1.9-1.1-1.9-1 0-1.4-.5-1.1-1 .3-.6.2-1-.2-1-.5 0-3.2-2.3-6.1-5-2.9-2.8-5.6-5-6-5-.4 0-1.4-.9-2.2-1.9-.7-1.1-1.7-1.8-2.2-1.5-.4.3-.8-.3-.8-1.3 0-1.5-.2-1.6-1-.3s-1 1.3-1-.1c0-1.5-1.8-2.9-3.6-2.8-.3 0-1.3-1-2.3-2.3-1.6-1.9-2.1-2-3.4-1-1.3 1.1-1.5 1-1.1-.5.4-1.4-.8-2.5-5.3-4.7-3.2-1.6-6.1-3.4-6.4-3.8-.3-.5-1.2-1.1-2-1.2-3.5-.8-7.9-2.9-7.9-3.8 0-.6-1.1-.8-2.5-.6-1.3.3-2.3.2-2-.2.2-.3-1.8-1.6-4.5-2.7-4.4-1.9-4.9-1.9-5.3-.4-.4 1.5-.5 1.5-.6 0-.2-2.4-4.2-3.2-5.8-1.1-1.2 1.6-1.2 1.5-.6-.2.5-1.6.3-1.8-1.1-1.3-.9.4-1.5.3-1.2-.2.3-.5-.1-1.1-.9-1.5-.8-.3-1.5-.1-1.5.5s-.7.6-1.9-.1c-1.1-.5-2.9-1-4-1-1 0-2.1-.3-2.3-.8-.5-1.2-7.8-4.2-7.8-3.2 0 .6-.5 1-1.2 1-.6 0-.8-.3-.4-.7.9-1-7.9-3.3-10.5-2.8-1 .2-1.9-.1-1.9-.8 0-.8-.3-.8-1.1 0-.9.9-1.8.7-3.7-.5-2.4-1.6-2.6-1.6-2 0 .7 1.7-1.8 1.9-3 .2-.9-1.2-11.2-1.2-13.1 0-.9.6-1.2.5-.8-.1.4-.6-.4-1.1-1.8-1.1s-2.2.4-2 .9c.3.4.1 1.1-.5 1.4-.6.4-.9.2-.8-.3.2-.6-.1-1-.7-1-.5 0-.9.5-.7 1.1.1.7-.3.5-1-.3-.9-1-2.6-1.4-5.1-1.2zm20 2c0 1-.7 1.9-1.4 1.9-.9 0-1-.4-.3-1.2.5-.7.7-1.5.3-1.8-.3-.4-.1-.7.5-.7s1 .8.9 1.8zm3.9 1.7c.1.9-.4 1.1-1.4.7-1-.4-1.2-.7-.4-1 .7-.2.9-.9.5-1.5-.3-.7-.2-.8.2-.4.5.4 1 1.4 1.1 2.2zm-19.9-.9c-.3.3-1.2.4-1.9.1-.8-.3-.5-.6.6-.6 1.1-.1 1.7.2 1.3.5zm11.9 1.6c1 1.2 1.3 1.8.6 1.4-.7-.4-2.1-.2-3 .6-1.5 1.2-1.6 1.1-.4-.4.8-.9 1.1-2.2.7-2.8-1.1-1.7.1-1.1 2.1 1.2zm13.6-.8c1-.6 1.1-.4 0 .7-1 1.1-1.5 1-3-.6-1.5-1.7-1.5-1.8 0-.6.9.7 2.3.9 3 .5zm-33.2 0c0 .2-.6.9-1.4 1.5-1.1.9-1.6.9-2.2 0-.4-.7-.3-.9.4-.5.6.3 1.3.2 1.7-.4.6-1 1.5-1.4 1.5-.6zm9.6.5c-.4.5-.1 1.1.6 1.3.8.3.6.6-.4 1-1.1.5-1.5.2-1.3-1 .5-2.3.4-2.2 1.1-2.2.3 0 .3.4 0 .9zm-27.6.9c0 .5-.7.9-1.5.9s-1.2-.4-.9-.9c.3-.4.9-.8 1.5-.8.5 0 .9.4.9.8zm23.1.9c1.3 1.6 1.2 1.7-.3.4-1-.7-1.8-1.5-1.8-1.7 0-.8.8-.3 2.1 1.3zm8.6-.2c0 .8-.4 1.2-.9.9-.5-.3-.6-1-.3-1.5.9-1.3 1.2-1.1 1.2.6zm23.2.8c0 .9-.2.8-.6-.1-.2-.6-1-.9-1.5-.6-.7.4-.8.2-.4-.5.9-1.3 2.6-.5 2.5 1.2zm3.2.4c1.3 1.6 1.2 1.7-.3.4-1-.7-1.8-1.5-1.8-1.7 0-.8.8-.3 2.1 1.3zm15.5-.2c-.1.8-.5 1.7-.8 2.1-.5.4-.4-1.6.1-3.4.3-.9.9.1.7 1.3zm-66.4 1c.7-.4.5 0-.4.8-1.4 1.1-1.5 1.6-.5 2.7 1 1.2.9 1.2-.6.1-.9-.8-1.5-1.6-1.2-1.9.3-.3-.1-1.2-.8-2.1-1-1.4-1-1.4.5-.3.9.8 2.3 1.1 3 .7zm6.8-.9c0 .8-1.9 1.3-2.4.6-.3-.5.1-.9.9-.9s1.5.2 1.5.3zm47.7.1c-.4.3-.1 1.3.6 2.2 1.1 1.4 1 1.4-.5.2-1.6-1.2-1.6-3.1-.1-3.1.4 0 .3.3 0 .7zm4.1 1c-.6.7-1.2 1.3-1.3 1.3-.2 0-.5-.6-.8-1.3-.3-.7.3-1.3 1.4-1.3 1.3 0 1.5.3.7 1.3zm11.6-.9c.3.5-.1.9-.9.9s-1.2-.4-.9-.9c.3-.4.7-.8.9-.8.2 0 .6.4.9.8zm-61.4.6c0 .2-.8 1-1.7 1.7-1.6 1.3-1.7 1.2-.4-.4 1.3-1.6 2.1-2.1 2.1-1.3zm-13.3 2.8c-.3.8-.6.5-.6-.6-.1-1.1.2-1.7.5-1.3.3.3.4 1.2.1 1.9zm28.4.1c-1 .9-1.1.8-.5-.6.3-1 .9-1.5 1.2-1.2.3.3 0 1.1-.7 1.8zm4.3-.7c.3.8.2 1.2-.4.9-.6-.3-1-1-1-1.6 0-1.4.7-1.1 1.4.7zm21.6-1c0 .8-1.9 1.3-2.4.6-.3-.5.1-.9.9-.9s1.5.2 1.5.3zm-39.5 1.3c.3.5.2 1.2-.3 1.5-.5.3-.9-.1-.9-.9 0-1.7.3-1.9 1.2-.6zM280.8 79c-.7 1-1.4 1.7-1.7 1.5-.4-.4 1.8-3.5 2.5-3.5.2 0-.1.9-.8 2zm12.5 0c-.3 1.2-.8 1.9-1.1 1.6-.5-.6.5-3.6 1.2-3.6.2 0 .2.9-.1 2zm4.2-1c.3.6-.1.7-.9.4-1.8-.7-2.1-1.4-.7-1.4.6 0 1.3.4 1.6 1zm51.2-.4c-.3.3-1.2.4-1.9.1-.8-.3-.5-.6.6-.6 1.1-.1 1.7.2 1.3.5zm-71 2.6c-.3.8-.6.5-.6-.6-.1-1.1.2-1.7.5-1.3.3.3.4 1.2.1 1.9zm35.4-1.3c-.8.5-1 1.4-.6 2.2.6 1.1.5 1.1-.5.2-1.4-1.2-.6-3.3 1.3-3.3.8 0 .7.3-.2.9zm25.5 1c0 1.6-.3 1.7-1.4.9-1.2-1-.7-1.9 1.3-2.8.1 0 .1.9.1 1.9zm3.8 1.1c-.6.6-1 .3-1-1s.4-1.6 1-1c.7.7.7 1.3 0 2zm7.9-1.5c-.3.9-.8 1.4-1 1.1-.3-.3-.2-.9.2-1.5.9-1.6 1.5-1.3.8.4zm-82.8.4c-.9.8-3.6 1-3 .2.2-.4 1.1-.8 2-.8.8 0 1.3.3 1 .6zm14.6 1.4c-1 .9-1.1.8-.5-.6.3-1 .9-1.5 1.2-1.2.3.3 0 1.1-.7 1.8zm16.9.3c0 .3-.5.2-1-.1-.6-.4-1.9-.1-2.8.7-1.5 1.1-1.5 1.1-.5-.3.7-.9.9-1.9.5-2.4-.4-.4.3-.2 1.6.4 1.2.6 2.2 1.4 2.2 1.7zm5-2.1c0 .2-.6.8-1.3 1.4-1 .8-1.4.7-1.4-.2 0-.8.6-1.4 1.4-1.4.7 0 1.3.1 1.3.2zm19 .7c0 .6-.3.8-.7.5-.3-.4-1.1-.2-1.8.3-.8.7-1.2.6-1.2-.3 0-.7.9-1.4 1.9-1.4 1-.1 1.8.3 1.8.9zm9.7-.6c-.8.8-4.8 1.3-4.3.6.2-.4 1.4-.8 2.6-.9 1.2-.1 2 0 1.7.3zm12.5 1.2c.3 1.1 0 1.9-.7 1.9s-1-.8-.7-1.9c.2-1 .6-1.8.7-1.8.1 0 .5.8.7 1.8zm50.9.5c-1 .9-1.1.8-.5-.6.3-1 .9-1.5 1.2-1.2.3.3 0 1.1-.7 1.8zm-107.4 1.9c.4 2.8-.6 1.8-1.2-1.2-.2-1.2-.1-2 .2-1.6.4.4.8 1.6 1 2.8zm-26.2 1.6c-1.7 1.5-1.8 1.5-.6 0 .7-.9.9-2.3.5-3-.6-1-.4-1.1.7 0 1.1 1 1 1.5-.6 3zm30-2c-.3.3-1.1 0-1.8-.7-.9-1-.8-1.1.6-.5 1 .3 1.5.9 1.2 1.2zm12.7-1.1c-1 .4-.9 1 .5 2.7l1.8 2.1-2.2-1.9c-2.3-1.9-2.2-3.7 0-3.5.8 0 .8.2-.1.6zm4.8-.2c0 .2-.6.8-1.3 1.4-1 .8-1.4.7-1.4-.2 0-.8.6-1.4 1.4-1.4.7 0 1.3.1 1.3.2zm6.8 1.2c-.6.7-1.2 1.3-1.3 1.3-.2 0-.5-.6-.8-1.3-.3-.7.3-1.3 1.4-1.3 1.3 0 1.5.3.7 1.3zm9.7 2.1c-1.7 1.5-1.8 1.5-.6 0 .7-.9.9-2.3.5-3-.6-1-.4-1.1.7 0 1.1 1 1 1.5-.6 3zm10-2c-.3.3-1.1 0-1.8-.7-.9-1-.8-1.1.6-.5 1 .3 1.5.9 1.2 1.2zm-57.1 1.1c1.5 1.7 1.5 1.9.1 2.5-1 .3-1.4.2-1-.5.4-.5.1-1.6-.5-2.4-1.8-2.2-.6-1.8 1.4.4zm119.3 0c0 1.1-.5 1.8-.9 1.5-.4-.3-.5-1.1-.1-1.9.7-2.1 1.2-1.9 1 .4zm-129 1.3c-.3.8-.6.5-.6-.6-.1-1.1.2-1.7.5-1.3.3.3.4 1.2.1 1.9zm64 0c-.3.8-.6.5-.6-.6-.1-1.1.2-1.7.5-1.3.3.3.4 1.2.1 1.9zm4.4.1c-1 .9-1.1.8-.5-.6.3-1 .9-1.5 1.2-1.2.3.3 0 1.1-.7 1.8zm4.3-.7c.3.8.2 1.2-.4.9-.6-.3-1-1-1-1.6 0-1.4.7-1.1 1.4.7zm10.3.4c-.1 1.1-.5 2-.9 2-.3 0-.6-.9-.5-2 .1-1.1.5-2 .9-2 .3 0 .6.9.5 2zm51.3.5c-.7.8-1.6 1.5-2.1 1.5s-.1-.8.9-1.8c2-2.2 3.1-1.9 1.2.3zm-155.4 0c-.1.8-.5 1.7-.8 2.1-.5.4-.4-1.6.1-3.4.3-.9.9.1.7 1.3zm4.7-.2c.3.7-.3 1.3-1.4 1.3-1.3 0-1.5-.3-.7-1.3.6-.7 1.2-1.3 1.3-1.3.2 0 .5.6.8 1.3zm-10.6 1.2c0 .8-.4 1.2-.9.9-.5-.3-.6-1-.3-1.5.9-1.3 1.2-1.1 1.2.6zm42-.9c-.3.3-1.2.4-1.9.1-.8-.3-.5-.6.6-.6 1.1-.1 1.7.2 1.3.5zm8.3-.2c0 .2-.7.7-1.6 1-.8.3-1.2.2-.9-.4.6-1 2.5-1.4 2.5-.6zm4 .2c0 .8-1.9 1.3-2.4.6-.3-.5.1-.9.9-.9s1.5.2 1.5.3zm112.6.6c.3.4-.1.5-1 .4-.8-.1-1.8-.5-2.2-.8-.3-.4.1-.5 1-.4.8.1 1.8.5 2.2.8zm-146.4 2.7c-.4 1.1-.7 1.1-1 .2-.3-.9-1-.7-2.6.6-2.1 1.8-2.1 1.8-.3-.3 2-2.4 4.8-2.8 3.9-.5zm13.7-.4c.3.3-.7.4-2.3.1-1.6-.3-3.1-.8-3.5-1.1-.3-.3.7-.4 2.3-.1 1.6.3 3.1.8 3.5 1.1zm26.7-.2c.4.3-.4.4-1.6.2-3-.6-4-1.6-1.2-1.2 1.2.2 2.4.6 2.8 1zm23.6.6c-.4 1.1-.7 1.1-1 .2-.3-.9-1-.7-2.6.6-2.1 1.8-2.1 1.8-.3-.3 2-2.4 4.8-2.8 3.9-.5zM341 88c0 .5-.4 1-1 1-.5 0-1-.5-1-1 0-.6.5-1 1-1 .6 0 1 .4 1 1zm-43.7 1.3c.7-.3.8-.2.4.2-1.4 1.6-3.6 1.4-2.9-.3.4-1 .7-1.2 1-.4.2.7.9.9 1.5.5zm53.2-.4c.3.5.2 1.2-.3 1.5-.5.3-.9-.1-.9-.9 0-1.7.3-1.9 1.2-.6zm58.1.9c-.3.3.2 1.5 1.1 2.6 1.4 1.5 1.4 1.8.2.8-.9-.6-2-.8-2.4-.4-.5.4-.5.1-.1-.6s.2-1.2-.6-1.3c-1 0-1-.2 0-.6.6-.2.9-1 .6-1.5-.5-.7-.2-.8.5-.4.7.5 1 1.1.7 1.4zm-175.2 0c.3.5-.1.9-.9.9s-1.2-.4-.9-.9c.3-.4.7-.8.9-.8.2 0 .6.4.9.8zm4.1.2c-.3.5-1.2 1-1.8 1-.7 0-.6-.4.3-1 1.9-1.2 2.3-1.2 1.5 0zm3.2 1c-.1 1.1-.5 2-.9 2-.3 0-.6-.9-.5-2 .1-1.1.5-2 .9-2 .3 0 .6.9.5 2zm47.9 1c.1 1.6-.1 3-.5 3-.3 0-.7-1.4-.7-3-.1-1.7.1-3 .5-3 .3 0 .7 1.3.7 3zm124.2-1.3c-1.2 1.5-2.2 1.8-1.4.4.4-.5 0-1.1-.6-1.4-.7-.3-.3-.4.9-.4 1.7.1 1.9.4 1.1 1.4zm8.5 0c-.4 1-.9 1.1-1.9.2-1.8-1.5-1.8-1.5.5-1.5 1.1 0 1.7.5 1.4 1.3zm-170.5 1.8c-.3.3-.9-.2-1.2-1.2-.6-1.4-.5-1.5.5-.6.7.7 1 1.5.7 1.8zm3.5-1c-.3.9-.8 1.4-1 1.1-.3-.3-.2-.9.2-1.5.9-1.6 1.5-1.3.8.4zm20.5 1c-.3.3-.9-.2-1.2-1.2-.6-1.4-.5-1.5.5-.6.7.7 1 1.5.7 1.8zm3.5-1c-.3.9-.8 1.4-1 1.1-.3-.3-.2-.9.2-1.5.9-1.6 1.5-1.3.8.4zm36.8.2c.8.9.9 1.4.2 1-.6-.4-1.3-.1-1.6.5-.3.7-.4.3-.4-1 .1-2.6.1-2.6 1.8-.5zm23.7.8c-.3.3-.9-.2-1.2-1.2-.6-1.4-.5-1.5.5-.6.7.7 1 1.5.7 1.8zm3.5-1c-.3.9-.8 1.4-1 1.1-.3-.3-.2-.9.2-1.5.9-1.6 1.5-1.3.8.4zm-86.2 1.8c-1 .9-1.1.8-.5-.6.3-1 .9-1.5 1.2-1.2.3.3 0 1.1-.7 1.8zm6.6-.6c0 .9-.4 1-1.4.2-.7-.6-1.3-1.2-1.3-1.4 0-.1.6-.2 1.3-.2.8 0 1.4.6 1.4 1.4zm36 .5c-.3.8-.6.5-.6-.6-.1-1.1.2-1.7.5-1.3.3.3.4 1.2.1 1.9zM321 92c0 .5-.4 1-1 1-.5 0-1-.5-1-1 0-.6.5-1 1-1 .6 0 1 .4 1 1zm5.7.7c0 .9-.4 1-1.4.2-.7-.6-1.3-1.2-1.3-1.4 0-.1.6-.2 1.3-.2.8 0 1.4.6 1.4 1.4zm-92.7.6c0 .2-1 1.3-2.3 2.5l-2.3 2.2-.1-2.3c-.2-1.4.1-1.7.6-.9.6 1 1 1 2.1-.3 1.2-1.4 2-1.9 2-1.2zm14.5 2.3c0 2.5-1 2.3-1.7-.4-.3-1 0-1.9.6-1.9s1.1 1 1.1 2.3zm23.4-.4c-.5 1-1.1 1.8-1.2 1.8-.2 0-.3-.8-.3-1.8s.6-1.9 1.3-1.9c.8 0 .9.6.2 1.9zm9.7-.2c0 2-2.1 2-3.9 0-.9-1.1-.8-1.1.7 0 1.8 1.3 1.9 1.3 1.4-.1-.3-.9-.1-1.6.6-1.6.6 0 1.2.8 1.2 1.7zm15.7 2c.7 2.9.1 2.4-1.7-1.1-1.2-2.3-1.2-2.8-.2-2 .8.7 1.6 2.1 1.9 3.1zm7.7-3.6c0 .2-.7.7-1.6 1-.8.3-1.2.2-.9-.4.6-1 2.5-1.4 2.5-.6zm4.7 1.3c.5-.3.9.3.9 1.4 0 1-.1 1.9-.1 1.9-.1 0-1.2-1.2-2.6-2.7-1.3-1.5-1.6-2.2-.7-1.4.9.7 2.1 1 2.5.8zm27-1.1c-.3.3-1.2.4-1.9.1-.8-.3-.5-.6.6-.6 1.1-.1 1.7.2 1.3.5zm8.6 1.4c-.3 1.2-.8 1.9-1.1 1.6-.5-.6.5-3.6 1.2-3.6.2 0 .2.9-.1 2zm-127 .5c-.3.9-.8 1.4-1 1.1-.3-.3-.2-.9.2-1.5.9-1.6 1.5-1.3.8.4zm4.8 0c.5-.4.6.2.2 1.1-.4 1.2-.8 1.4-1.1.5-.3-.9-1-.7-2.5.6l-2.1 1.8 2-2.7c1-1.4 2.1-2.2 2.2-1.7.2.5.8.7 1.3.4zm3.2 0c-.3.9-.8 1.4-1 1.1-.3-.3-.2-.9.2-1.5.9-1.6 1.5-1.3.8.4zm24.4 0c0 .8-.4 1.2-.9.9-.5-.3-.6-1-.3-1.5.9-1.3 1.2-1.1 1.2.6zm4.7.4c1.5 1.7 1.5 1.9.1 2.5-1 .3-1.4.2-1-.5.4-.5.1-1.6-.5-2.4-1.8-2.2-.6-1.8 1.4.4zm19.2-.4c-.1.8-.5 1.7-.8 2.1-.5.4-.4-1.6.1-3.4.3-.9.9.1.7 1.3zm42.4-1.1c0 .2-.6.9-1.4 1.5-1.1.9-1.6.9-2.2 0-.4-.7-.3-.9.4-.5.6.3 1.3.2 1.7-.4.6-1 1.5-1.4 1.5-.6zm21.2.8c-1.4 1.4-4.4 2-3.6.7.3-.5.9-.7 1.4-.4.5.3 1.1.1 1.5-.5.3-.5.9-1 1.3-1 .3 0 .1.5-.6 1.2zm4.4 1.4c.1.9 0 1.3-.4 1-.3-.4-.7-1.4-.8-2.2-.1-.9 0-1.3.4-1 .3.4.7 1.4.8 2.2zm84.1-1.1c0 .8-.3 1.3-.5 1-.3-.3-1.5.3-2.6 1.2-1.5 1.3-1.4 1 .3-1 2.9-3.2 2.8-3.1 2.8-1.2zm-190.2 1.3c-.3.3-1.1 0-1.8-.7-.9-1-.8-1.1.6-.5 1 .3 1.5.9 1.2 1.2zm30.2-.3c0 .8-.4 1.2-.9.9-.5-.3-.6-1-.3-1.5.9-1.3 1.2-1.1 1.2.6zm19 .7c-.3.8-.6.5-.6-.6-.1-1.1.2-1.7.5-1.3.3.3.4 1.2.1 1.9zm8.8-1.3c.3.5.2 1.2-.3 1.5-.5.3-.9-.1-.9-.9 0-1.7.3-1.9 1.2-.6zm10.1 1.7c-.3 1.5-.8 2.9-1.1 3.2-.3.3-.3-.5-.1-1.9.2-1.3.5-2.7.5-3.2.1-.4.3-.7.6-.7s.3 1.2.1 2.6zm26.1-1.1c0 .8-.4 1.2-.9.9-.5-.3-.6-1-.3-1.5.9-1.3 1.2-1.1 1.2.6zm82.3-1.1c0 .2-.7.7-1.6 1-.8.3-1.2.2-.9-.4.6-1 2.5-1.4 2.5-.6zm8.5.6c.3.6-.1.7-.9.4-1.8-.7-2.1-1.4-.7-1.4.6 0 1.3.4 1.6 1zm-144.2 1.3c.3.8-.1 1.4-.8 1.4-.7 0-1.1-.6-.8-1.4.3-.7.6-1.3.8-1.3.2 0 .5.6.8 1.3zm-60.8 1.5c-.3.3-1.1 0-1.8-.7-.9-1-.8-1.1.6-.5 1 .3 1.5.9 1.2 1.2zm85-.8c-.3.5-1.2 1-1.8 1-.7 0-.6-.4.3-1 1.9-1.2 2.3-1.2 1.5 0zM417 98c0 .5-.4 1-1 1-.5 0-1-.5-1-1 0-.6.5-1 1-1 .6 0 1 .4 1 1zm15.5.8c-.3.3-1.1 0-1.8-.7-.9-1-.8-1.1.6-.5 1 .3 1.5.9 1.2 1.2zm-222 .2c-.3.5-1.2 1-1.8 1-.7 0-.6-.4.3-1 1.9-1.2 2.3-1.2 1.5 0zm16.4.4c.9 1 .8 1.5-.2 1.9-.8.3-1.3-.3-1.3-1.4 0-2.3 0-2.3 1.5-.5zm19.8-.1c0 .8-.6 1.4-1.4 1.4-.9 0-1-.4-.2-1.4.6-.7 1.2-1.3 1.4-1.3.1 0 .2.6.2 1.3zm24 .9c0 1.3-.1 1.7-.4 1-.3-.6-1-.9-1.6-.5-.7.4-.6-.1.2-1 1.7-2.1 1.7-2.1 1.8.5zm42.9-.3c-1.3 1.4-1.4 2-.5 2.3.9.3.8.6-.3 1-1 .4-1.5.2-1.4-.7.2-1.4 2.5-4.5 3.4-4.5.3 0-.3.9-1.2 1.9zm21.1.3c0 1.3-.1 1.7-.4 1-.3-.6-1-.9-1.6-.5-.7.4-.6-.1.2-1 1.7-2.1 1.7-2.1 1.8.5zm92 0c-.3.8-.6.5-.6-.6-.1-1.1.2-1.7.5-1.3.3.3.4 1.2.1 1.9zM223 99.6c0 .8-1.9 1.3-2.4.6-.3-.5.1-.9.9-.9s1.5.2 1.5.3zm18.6.6c-1 .6-2.2.6-2.6.2-.5-.5.3-1 1.8-1.1 2.2-.1 2.4 0 .8.9zm23.4-.2c0 .5-.5 1-1.1 1-.5 0-.7-.5-.4-1 .3-.6.8-1 1.1-1 .2 0 .4.4.4 1zm29.4.6c.3.8.2 1.2-.4.9-.6-.3-1-1-1-1.6 0-1.4.7-1.1 1.4.7zm34.6-.6c0 .5-.5 1-1.1 1-.5 0-.7-.5-.4-1 .3-.6.8-1 1.1-1 .2 0 .4.4.4 1zm109.9 1.3c0 .9-.2.8-.6-.1-.2-.6-1-.9-1.5-.6-.7.4-.8.2-.4-.5.9-1.3 2.6-.5 2.5 1.2zm-201.6 0c.3.7-.3 1.3-1.4 1.3-1.3 0-1.5-.3-.7-1.3.6-.7 1.2-1.3 1.3-1.3.2 0 .5.6.8 1.3zm23.5 0c.8 1 .6 1.3-.7 1.3-1.1 0-1.7-.6-1.4-1.3.3-.7.6-1.3.8-1.3.1 0 .7.6 1.3 1.3zm55.7-.4c.3.5.2 1.2-.3 1.5-.5.3-.9-.1-.9-.9 0-1.7.3-1.9 1.2-.6zm8.3.4c.8 1 .6 1.3-.7 1.3-1.1 0-1.7-.6-1.4-1.3.3-.7.6-1.3.8-1.3.1 0 .7.6 1.3 1.3zM204.5 103c-1.8 2-4.5 2.2-3.8.2.5-1.1.7-1.1 1.4 0 .8 1.1 1.3.5 1.1-1.3-.1-.3.6-.6 1.4-.6 1.2 0 1.2.3-.1 1.7zm5-1c.3.6-.1.7-.9.4-1.8-.7-2.1-1.4-.7-1.4.6 0 1.3.4 1.6 1zm36.7.9c.3-.9.6-.9 1 .2.9 2.3-1.9 1.9-3.9-.5-1.8-2.1-1.8-2.1.3-.3 1.6 1.3 2.3 1.5 2.6.6zm10.3-.1c-.3.3-1.1 0-1.8-.7-.9-1-.8-1.1.6-.5 1 .3 1.5.9 1.2 1.2zm53.1.2c0 1.2-.4 1.6-.9 1.1s-.6-1.4-.3-2c1-1.5 1.2-1.4 1.2.9zm32.8-1.1c.4.5-.3.7-1.4.4-2.3-.6-2.6-1.3-.6-1.3.8 0 1.7.4 2 .9zm83.3.6c.5.4.2.5-.6 0-1.1-.6-1.3-.4-.8.8.3.9-.1 2.1-1.1 2.8-1.4 1.1-1.5 1.1-.5-.1.8-.9.9-1.9.3-3.1-.7-1.3-.6-1.7.5-1.5.8.1 1.8.6 2.2 1.1zm-147 1c0 .8-.4 1.2-.9.9-.5-.3-.6-1-.3-1.5.9-1.3 1.2-1.1 1.2.6zm41.5-.3c-.6.6-2.2 1.3-3.4 1.5-1.8.2-1.9.1-.8-.6.8-.5 1.7-.8 2.1-.5.4.2 1 0 1.4-.6.3-.5.9-1 1.3-1 .3 0 .1.5-.6 1.2zm20.3 0c.5-.4.5-.1.1.6s-1.1 1-1.6.7c-.4-.3-1 .1-1.3.7-.3.7-.4.3-.4-.9.1-1.5.5-1.9 1.3-1.3.6.6 1.5.6 1.9.2zm98 0c.5-.4.5-.1.1.6-.6 1-1.1 1-2.2.1-.8-.6-1.4-1.4-1.4-1.6 0-.3.6 0 1.3.6.8.6 1.8.7 2.2.3zm-213 .7c-.9.8-3.6 1-3 .2.2-.4 1.1-.8 2-.8.8 0 1.3.3 1 .6zm47.5-.3c0 .8-1.9 1.3-2.4.6-.3-.5.1-.9.9-.9s1.5.2 1.5.3zm19.7 0c-.3.3-1.1.6-1.9.8-.7.1-2 .6-2.8 1.1-1.2.7-1.3.6-.3-.6.6-.8 2.2-1.5 3.4-1.6 1.1-.1 1.9 0 1.6.3zm-15.6 2.1c1.3 1.6 1.2 1.7-.3.5-.9-.8-2.3-1-2.9-.6-.8.4-.9.3-.5-.4 1-1.7 2.1-1.5 3.7.5zm-74.9.7c1-.6 1.1-.4 0 .7-1 1.1-1.5 1-3-.6-1.5-1.7-1.5-1.8 0-.6.9.7 2.3.9 3 .5zm10.6.3c-.6.7-1.2 1.3-1.3 1.3-.2 0-.5-.6-.8-1.3-.3-.7.3-1.3 1.4-1.3 1.3 0 1.5.3.7 1.3zm44.4-.5c-.9.9-.7 1.5.6 2.5.9.8 1.1 1.2.4.8-.7-.4-2.1-.1-3 .7-1.5 1.2-1.6 1.1-.3-.5.7-.9 1-1.7.6-1.7s-.2-.7.5-1.5 1.5-1.5 1.8-1.5c.3 0 .1.5-.6 1.2zm23.5-.5c-.4.3.1 1.6 1 2.7 1.8 2.1 1.8 2.1-.4.2-2-1.6-2.3-3.6-.6-3.6.4 0 .3.3 0 .7zm4.1 1c-1.2 1.5-2.2 1.8-1.4.4.4-.5 0-1.1-.6-1.4-.7-.3-.3-.4.9-.4 1.7.1 1.9.4 1.1 1.4zm12.3.1c-.7.2-1.8-.1-2.3-.6-.8-.8-.4-.9 1.3-.5 1.3.4 1.8.8 1 1.1zm119.6.4c.2 1.7 0 1.9-.7.8-.5-.8-.6-1.8-.4-2.2.8-1.2 1-1 1.1 1.4zm3.8-.4c-.3.3-1.1 0-1.8-.7-.9-1-.8-1.1.6-.5 1 .3 1.5.9 1.2 1.2zm8.2-.3c0 .8-.4 1.2-.9.9-.5-.3-.6-1-.3-1.5.9-1.3 1.2-1.1 1.2.6zm13.3-.9c0 .8-1.9 1.3-2.4.6-.3-.5.1-.9.9-.9s1.5.2 1.5.3zm-247.3 2.6c-.3.8-.6.5-.6-.6-.1-1.1.2-1.7.5-1.3.3.3.4 1.2.1 1.9zm28-.3c-.1 1.5-.4 1.7-1.4.9-1.5-1.2-1.7-2.2-.3-1.3.6.3 1 .1 1-.4 0-.6.2-1.1.4-1.1.3 0 .4.9.3 1.9zm4.2-.6c.8 1 .7 1.4-.2 1.4-.8 0-1.4-.6-1.4-1.4 0-.7.1-1.3.2-1.3.2 0 .8.6 1.4 1.3zm20.2 2.9c-1.1 1.1-1.3 1-.7 0 .4-.7.2-2.1-.5-3-1.2-1.5-1.1-1.5.6 0 1.6 1.5 1.7 2 .6 3zm6.6-2c-.3.8-.6.5-.6-.6-.1-1.1.2-1.7.5-1.3.3.3.4 1.2.1 1.9zm50.8-.1c-.3 1.2-.7 2.4-1 2.7-.3.3-.3-.5-.1-1.9.6-3 .5-2.9 1-2.9.3 0 .3 1 .1 2.1zm13.8-.6c-.3.9-.8 1.4-1 1.1-.3-.3-.2-.9.2-1.5.9-1.6 1.5-1.3.8.4zm120.8.2c1.3 1.6 1.2 1.7-.3.4-1-.7-1.8-1.5-1.8-1.7 0-.8.8-.3 2.1 1.3zm10.4.3c.3.5-.4.6-1.5.3s-2.2-.9-2.5-1.3c-.3-.5.4-.6 1.5-.3s2.2.9 2.5 1.3zM217 108c0 .5-.2 1-.4 1-.3 0-.8-.5-1.1-1-.3-.6-.1-1 .4-1 .6 0 1.1.4 1.1 1zm53.4-.2c.3.5-.1.9-.9.9s-1.2-.4-.9-.9c.3-.4.7-.8.9-.8.2 0 .6.4.9.8zm5.6-.2c0 .8-1.9 1.3-2.4.6-.3-.5.1-.9.9-.9s1.5.2 1.5.3zm20 .9c0 .2-.6.5-1.3.8-.8.3-1.4-.1-1.4-.8 0-.7.6-1.1 1.4-.8.7.3 1.3.6 1.3.8zm38.4-.7c.3.5-.1.9-.9.9s-1.2-.4-.9-.9c.3-.4.7-.8.9-.8.2 0 .6.4.9.8zm97.6-.4c0 .2-.8 1-1.7 1.7-1.6 1.3-1.7 1.2-.4-.4 1.3-1.6 2.1-2.1 2.1-1.3zm-192 1c0 .2-.7.7-1.6 1-.8.3-1.2.2-.9-.4.6-1 2.5-1.4 2.5-.6zm82.4.5c.4.5-.3.7-1.4.4-2.3-.6-2.6-1.3-.6-1.3.8 0 1.7.4 2 .9zm114.3.6c0 .8-.4 1.2-.9.9-.5-.3-.6-1-.3-1.5.9-1.3 1.2-1.1 1.2.6zm-247.4 1c-.3.9-.8 1.4-1 1.1-.3-.3-.2-.9.2-1.5.9-1.6 1.5-1.3.8.4zm4.2-.5c.3.6-.1.7-.9.4-1.8-.7-2.1-1.4-.7-1.4.6 0 1.3.4 1.6 1zm36.5-.6c0 .2-.8 1-1.7 1.7-1.6 1.3-1.7 1.2-.4-.4 1.3-1.6 2.1-2.1 2.1-1.3zm35 0c0 .2-.7.7-1.6 1-.8.3-1.2.2-.9-.4.6-1 2.5-1.4 2.5-.6zm5.3 1.4c.4-.9.6-.9.6-.1.2 2.2-1.6 2.3-3.5 0l-1.9-2.2 2.1 1.8c1.7 1.4 2.3 1.5 2.7.5zm42.4-1.2c-.3.3-1.2.4-1.9.1-.8-.3-.5-.6.6-.6 1.1-.1 1.7.2 1.3.5zm16.3-.2c0 .2-.7.7-1.6 1-.8.3-1.2.2-.9-.4.6-1 2.5-1.4 2.5-.6zm3.9 3c-.3.3-1.1-.5-1.8-1.7-1.3-2.1-1.2-2.1.5-.5 1 1 1.6 2 1.3 2.2zm87.6-2.5c.3.5.2 1.2-.3 1.5-.5.3-.9-.1-.9-.9 0-1.7.3-1.9 1.2-.6zm-233.7 2.6c-.3.3-.9-.2-1.2-1.2-.6-1.4-.5-1.5.5-.6.7.7 1 1.5.7 1.8zm21.4-1.3c-.6.6-2.2 1.3-3.4 1.5-1.8.2-1.9.1-.8-.6.8-.5 1.7-.8 2.1-.5.4.2 1 0 1.4-.6.3-.5.9-1 1.3-1 .3 0 .1.5-.6 1.2zm111.9.6c-.7.2-1.8-.1-2.3-.6-.8-.8-.4-.9 1.3-.5 1.3.4 1.8.8 1 1.1zm15.3-.2c.3.8.2 1.2-.4.9-.6-.3-1-1-1-1.6 0-1.4.7-1.1 1.4.7zm104.6-.2c-.1.5.4 1.3 1.2 1.8 1.1.8 1.1.9 0 .6-.8-.2-1.3-.7-1.2-1.2.1-.5-.4-1.3-1.2-1.8-1.1-.8-1.1-.9 0-.6.8.2 1.3.7 1.2 1.2zm10.8 1.1c-.3.3-.9-.2-1.2-1.2-.6-1.4-.5-1.5.5-.6.7.7 1 1.5.7 1.8zm-253.3-.6c-.9.8-3.6 1-3 .2.2-.4 1.1-.8 2-.8.8 0 1.3.3 1 .6zm15.5.1c0 .5-.4 1-1 1-.5 0-1-.5-1-1 0-.6.5-1 1-1 .6 0 1 .4 1 1zm11.7 3.2c.2 1.2.1 1.9-.3 1.6-.3-.3-.6-1.2-.8-2-.1-.7-.5-2-1-2.8-.7-1.2-.6-1.3.4-.3.8.7 1.5 2.3 1.7 3.5zm23.8-3.2c-.3.5-.1 1 .6 1s1 .3.6.6c-.9.9-2.8-.6-2.2-1.7.4-.5.8-.9 1.1-.9.3 0 .2.4-.1 1zm8.2.5c0 .8-.4 1.2-.9.9-.5-.3-.6-1-.3-1.5.9-1.3 1.2-1.1 1.2.6zm16 .4c0 1.1-.5 1.8-.9 1.5-.4-.3-.5-1.1-.1-1.9.7-2.1 1.2-1.9 1 .4zm12.3-1.5c0 .3-.4.8-1 1.1-.5.3-1 .1-1-.4 0-.6.5-1.1 1-1.1.6 0 1 .2 1 .4zm9.4 1.2c.3.9.2 1.2-.5.9-.5-.4-1.8-.1-2.7.6-1.3 1.1-1.2.8.2-.9 2.3-2.6 2.2-2.6 3-.6zm6.2.6c1.9 2.3 1.9 2.3-.2.5-1.1-.9-2.4-1.4-2.9-1-.4.5-.5.2-.1-.5.9-1.6 1-1.6 3.2 1zm12 1.4c.3 1.6.2 2.6-.1 2.3-.3-.4-.8-1.9-1.1-3.5-.3-1.6-.2-2.6.1-2.3.3.4.8 1.9 1.1 3.5zm17.9-2.7c.3.5.2 1.2-.3 1.5-.5.3-.9-.1-.9-.9 0-1.7.3-1.9 1.2-.6zm-145.5.5c0 .2-.8 1-1.7 1.7-1.6 1.3-1.7 1.2-.4-.4 1.3-1.6 2.1-2.1 2.1-1.3zm48 0c0 .2-.8 1-1.7 1.7-1.6 1.3-1.7 1.2-.4-.4 1.3-1.6 2.1-2.1 2.1-1.3zm32 1.7c0 .5-.4.9-.8.9-.5 0-.9-.7-.9-1.5s.4-1.2.9-.9c.4.3.8.9.8 1.5zm-23.7.2c-.2.4.1 1.4.7 2.2 2 2.4.6 1.7-1.8-.8-2-2.1-2-2.3-.2-2.3 1 0 1.6.4 1.3.9zm12.7-.8c0 .2-.6.8-1.3 1.4-1 .8-1.4.7-1.4-.2 0-.8.6-1.4 1.4-1.4.7 0 1.3.1 1.3.2zm62.5 1.3c-.3.3-1.1 0-1.8-.7-.9-1-.8-1.1.6-.5 1 .3 1.5.9 1.2 1.2zm4.5-1.4c0 .2-.7.7-1.6 1-.8.3-1.2.2-.9-.4.6-1 2.5-1.4 2.5-.6zm112 1c-.7.7-1.3.7-2 0-.6-.6-.3-1 1-1s1.6.4 1 1zm13-.9c0 .2-.6.8-1.3 1.4-1 .8-1.4.7-1.4-.2 0-.8.6-1.4 1.4-1.4.7 0 1.3.1 1.3.2zm-259.3 2.7c-.3.8-.6.5-.6-.6-.1-1.1.2-1.7.5-1.3.3.3.4 1.2.1 1.9zm30 2.2c0 .9-.6 1.2-1.6.8-1.1-.4-1.1-.7-.2-1 .9-.3.7-1-.6-2.6-1.8-2.1-1.8-2.1.3-.3 1.1.9 2.1 2.3 2.1 3.1zm18-2.2c-.3.8-.6.5-.6-.6-.1-1.1.2-1.7.5-1.3.3.3.4 1.2.1 1.9zm42-1.6c-.3.3-1.2.4-1.9.1-.8-.3-.5-.6.6-.6 1.1-.1 1.7.2 1.3.5zm6.2.8c.9 1 .8 1.5-.2 1.9-.8.3-1.3-.3-1.3-1.4 0-2.3 0-2.3 1.5-.5zm5.4.1c-.3.9-.8 1.4-1 1.1-.3-.3-.2-.9.2-1.5.9-1.6 1.5-1.3.8.4zm10.8-.1c1.4-.8 1.1.2-.4 1.4-1 .8-1.3.6-1.4-1.1 0-1.2.1-1.6.4-.9.3.6.9 1 1.4.6zm34.6-.8c-.3.3-1.2.4-1.9.1-.8-.3-.5-.6.6-.6 1.1-.1 1.7.2 1.3.5zm92.8.4c-.3.5-1.2 1-1.8 1-.7 0-.6-.4.3-1 1.9-1.2 2.3-1.2 1.5 0zm24 0c-.3.5-1.2 1-1.8 1-.7 0-.6-.4.3-1 1.9-1.2 2.3-1.2 1.5 0zm-268.9 1.2c.4.7.3.8-.5.4-.6-.4-1.9-.2-2.7.5-1.2 1-1.3.9-.8-.5.7-1.9 3-2.1 4-.4zm3.1-.5c-.4.3-.1 1.3.6 2.2 1.1 1.4 1 1.4-.5.2-1.6-1.2-1.6-3.1-.1-3.1.4 0 .3.3 0 .7zm13 1.5c-.3.8-.6.5-.6-.6-.1-1.1.2-1.7.5-1.3.3.3.4 1.2.1 1.9zm52.4-.5c1.3 1.6 1.2 1.7-.3.4-1.7-1.3-2.2-2.1-1.4-2.1.2 0 1 .8 1.7 1.7zm44.9-1.1c0 .8-1.9 1.3-2.4.6-.3-.5.1-.9.9-.9s1.5.2 1.5.3zm9.4 1c.3.8.2 1.2-.4.9-.6-.3-1-1-1-1.6 0-1.4.7-1.1 1.4.7zm6.2-.4c.3.4-.1.5-1 .4-.8-.1-1.8-.5-2.2-.8-.3-.4.1-.5 1-.4.8.1 1.8.5 2.2.8zm131.5.5c1.3 1.6 1.2 1.7-.3.4-1-.7-1.8-1.5-1.8-1.7 0-.8.8-.3 2.1 1.3zm-229.4.6c0 .8-.6 1.4-1.4 1.4-.9 0-1-.4-.2-1.4.6-.7 1.2-1.3 1.4-1.3.1 0 .2.6.2 1.3zm221.8-.3c.3.6-.1.7-.9.4-1.8-.7-2.1-1.4-.7-1.4.6 0 1.3.4 1.6 1zm-212.3 1.4c1-.6 1.1-.4 0 .7-1 1.1-1.5 1-3-.6-1.5-1.7-1.5-1.8 0-.6.9.7 2.3.9 3 .5zm11.5.1c.4.4.3.5-.4.2-.6-.4-1.3-.2-1.5.5-.3.8-.6.6-1-.4-.7-1.7 1.5-1.9 2.9-.3zm76.2 0c.7-.3.8 0 .5.9-.8 2-.7 2-3-.6-1.4-1.7-1.5-2-.2-.9.9.7 2.2 1 2.7.6zm7.1-1.1c0 .2-.7.7-1.6 1-.8.3-1.2.2-.9-.4.6-1 2.5-1.4 2.5-.6zm4.2.3c-1 .4-.9 1 .5 2.6 1.2 1.5 1.3 1.8.2.9-.9-.6-2-.8-2.5-.4s-.6.3-.2-.2c.4-.5.4-1.4-.2-2-.6-.8-.2-1.2 1.3-1.3 1.2 0 1.6.1.9.4zm104.3.3c.3.6-.1.7-.9.4-1.8-.7-2.1-1.4-.7-1.4.6 0 1.3.4 1.6 1zm-250.1 1.6c.3.8.2 1.2-.4.9-.6-.3-1-1-1-1.6 0-1.4.7-1.1 1.4.7zm7 1.4c-.6.6-1 .3-1-1s.4-1.6 1-1c.7.7.7 1.3 0 2zm27.1-1c.3.5-.4.6-1.5.3s-2.2-.9-2.5-1.3c-.3-.5.4-.6 1.5-.3s2.2.9 2.5 1.3zm53.1-1.1c-.4.5-.1 1.1.6 1.3.8.3.6.6-.4 1-1.1.5-1.5.2-1.3-1 .5-2.3.4-2.2 1.1-2.2.3 0 .3.4 0 .9zm4 1.7c.1.9 0 1.3-.4 1-.3-.4-.7-1.4-.8-2.2-.1-.9 0-1.3.4-1 .3.4.7 1.4.8 2.2zm8.2-.1c-.3.3-.9-.2-1.2-1.2-.6-1.4-.5-1.5.5-.6.7.7 1 1.5.7 1.8zm51.6-1.3c-.5.7-.2.9.9.5.9-.3 2.1.1 2.8 1.1 1.1 1.4 1.1 1.5-.1.5-.9-.8-1.9-.9-3.1-.3-1.4.8-1.7.6-1.4-.8.5-2.3.4-2.2 1.1-2.2.3 0 .2.5-.2 1.2zm-133.8 2.3c.1.7-.8 2.2-1.9 3.2l-2.2 1.8 1.9-2.3c1.5-1.7 1.6-2.2.5-2.3-1 0-1.1-.2-.1-.6.6-.2.9-1 .5-1.6-.3-.7-.2-.8.2-.4.5.4 1 1.4 1.1 2.2zm5.8-.9c.3.8.2 1.2-.4.9-.6-.3-1-1-1-1.6 0-1.4.7-1.1 1.4.7zm41.6-.6c-1.8 1.2-3 1.3-3 .2 0-.4 1-.9 2.2-.9 1.8-.2 2 0 .8.7zm2.1 1.3c-1 .9-1.1.8-.5-.6.3-1 .9-1.5 1.2-1.2.3.3 0 1.1-.7 1.8zm10.6-.8c0 .8-.4 1.2-.9.9-.4-.3-.8-.9-.8-1.5 0-.5.4-.9.8-.9.5 0 .9.7.9 1.5zm5.4.2c1.3 1.6 1.2 1.7-.3.4-1-.7-1.8-1.5-1.8-1.7 0-.8.8-.3 2.1 1.3zm14.5-.5c.4.7.4 1-.1.6-.4-.4-1.5-.2-2.4.5-1.4 1.1-1.4 1-.2-.6 1.6-2 1.8-2.1 2.7-.5zm11.9-.2c.3.5.1 1-.4 1-.6 0-1.1-.5-1.1-1 0-.6.2-1 .4-1 .3 0 .8.4 1.1 1zm33.2 1.2c-.3.8-.6.5-.6-.6-.1-1.1.2-1.7.5-1.3.3.3.4 1.2.1 1.9zm115-1.6c-.2.3-1.7.7-3.3 1-1.7.2-2.4.1-1.7-.4 1.3-.8 5.8-1.4 5-.6zm1.4 1.7c-1 .9-1.1.8-.5-.6.3-1 .9-1.5 1.2-1.2.3.3 0 1.1-.7 1.8zm10-.6c1.2 1.6 1.2 1.7-.2.6-.9-.7-2-.9-2.4-.5-.5.4-.5.1-.1-.6.9-1.6 1.1-1.5 2.7.5zm-249 1.6c-1 .9-1.1.8-.5-.6.3-1 .9-1.5 1.2-1.2.3.3 0 1.1-.7 1.8zm29.6.9c.4 2.8-.6 1.8-1.2-1.2-.2-1.2-.1-2 .2-1.6.4.4.8 1.6 1 2.8zm236.3-2.8c0 .2-.8 1-1.7 1.7-1.6 1.3-1.7 1.2-.4-.4 1.3-1.6 2.1-2.1 2.1-1.3zm-272.3 2.3c0 .9-.4 1-1.4.2-.7-.6-1.3-1.2-1.3-1.4 0-.1.6-.2 1.3-.2.8 0 1.4.6 1.4 1.4zm15.8.1c-.3.3-1.1 0-1.8-.7-.9-1-.8-1.1.6-.5 1 .3 1.5.9 1.2 1.2zm3.9-1c.3.5-.1.9-.9.9s-1.2-.4-.9-.9c.3-.4.7-.8.9-.8.2 0 .6.4.9.8zm20.1 1c-.3.3-1.1 0-1.8-.7-.9-1-.8-1.1.6-.5 1 .3 1.5.9 1.2 1.2zm3.9-1c.3.5-.1.9-.9.9s-1.2-.4-.9-.9c.3-.4.7-.8.9-.8.2 0 .6.4.9.8zm73.1.1c-.9.8-3.6 1-3 .2.2-.4 1.1-.8 2-.8.8 0 1.3.3 1 .6zm147.8.8c-.4 1-.9 1.1-1.9.2-1.8-1.5-1.8-1.5.5-1.5 1.1 0 1.7.5 1.4 1.3zm3.1-.8c.3.5-.2 1.5-1.2 2.2-1.5 1.2-1.6 1.2-.5-.2.7-.9 1-1.9.6-2.2-.3-.4-.4-.7 0-.7.3 0 .8.4 1.1.9zm-277.5 1.5c.9 1 .8 1.5-.2 1.9-.8.3-1.3-.3-1.3-1.4 0-2.3 0-2.3 1.5-.5zm73.1.1c0 .1-.6.7-1.3 1.3-1 .8-1.3.6-1.3-.7 0-1.1.6-1.7 1.3-1.4.7.3 1.3.6 1.3.8zm4.3 0c-.3.9-.8 1.4-1 1.1-.3-.3-.2-.9.2-1.5.9-1.6 1.5-1.3.8.4zm17.7 0c-.6.8-.8 2-.4 2.7.5 1 .4 1-.6.1-1.1-1-1.1-1.5 0-2.8.7-.8 1.5-1.5 1.7-1.5.3 0 0 .7-.7 1.5zm9-1.1c0 .2-.8 1-1.7 1.7-1.6 1.3-1.7 1.2-.4-.4 1.3-1.6 2.1-2.1 2.1-1.3zm8 0c0 .2-.8 1-1.7 1.7-1.6 1.3-1.7 1.2-.4-.4 1.3-1.6 2.1-2.1 2.1-1.3zm18.7 1.8c-.3.8-.6.5-.6-.6-.1-1.1.2-1.7.5-1.3.3.3.4 1.2.1 1.9zm134.3-.7c0 .1-.6.7-1.3 1.3-1 .8-1.3.6-1.3-.7 0-1.1.6-1.7 1.3-1.4.7.3 1.3.6 1.3.8zM200.7 125c-.2 1.1-.9 2.6-1.7 3.3-1 1-1.1.9-.4-.3.9-1.5 1-2 1.3-4 0-.6.3-1 .6-1s.3.9.2 2zm61.7-.4c.3.8.2 1.2-.4.9-.6-.3-1-1-1-1.6 0-1.4.7-1.1 1.4.7zm3.7.7c-1 .9-1.1.8-.5-.6.3-1 .9-1.5 1.2-1.2.3.3 0 1.1-.7 1.8zm10.5-.8c-.1.8-.5 1.7-.8 2.1-.5.4-.4-1.6.1-3.4.3-.9.9.1.7 1.3zm49.8.1c.3.8.2 1.2-.4.9-.6-.3-1-1-1-1.6 0-1.4.7-1.1 1.4.7zm3.7.7c-1 .9-1.1.8-.5-.6.3-1 .9-1.5 1.2-1.2.3.3 0 1.1-.7 1.8zm132.6-.6c0 .9-.4 1-1.4.2-.7-.6-1.3-1.2-1.3-1.4 0-.1.6-.2 1.3-.2.8 0 1.4.6 1.4 1.4zm-177.9.6c.8 1 .6 1.3-1.1 1.4-1.2 0-1.6-.1-.9-.4.6-.3 1-.9.6-1.4-.8-1.4.2-1.1 1.4.4zm8 0c.8 1 .6 1.3-1.1 1.4-1.2 0-1.6-.1-.9-.4.6-.3 1-.9.6-1.4-.8-1.4.2-1.1 1.4.4zm8.5 0c.3.7-.3 1.3-1.4 1.3-1.3 0-1.5-.3-.7-1.3.6-.7 1.2-1.3 1.3-1.3.2 0 .5.6.8 1.3zm-132.3.1c0 .2-.7.7-1.6 1-.8.3-1.2.2-.9-.4.6-1 2.5-1.4 2.5-.6zm4.9 1.1c.7-.3.8 0 .5.9-.8 2-.7 2-3-.6-1.4-1.7-1.5-2-.2-.9.9.7 2.2 1 2.7.6zm31.1-1.1c0 .2-.7.7-1.6 1-.8.3-1.2.2-.9-.4.6-1 2.5-1.4 2.5-.6zm4.9 1.2c1.1-.7.8 2-.4 3.1-.4.5-.5.2 0-.6.6-1.1.4-1.3-1.1-.7-1 .4-1.5.4-1.1 0 .4-.4.1-1.4-.6-2.3-1-1.4-1-1.4.5-.3.9.8 2.1 1.1 2.7.8zm10.8-1c-.3.3-1.2.4-1.9.1-.8-.3-.5-.6.6-.6 1.1-.1 1.7.2 1.3.5zm8.3-.2c0 .2-.7.7-1.6 1-.8.3-1.2.2-.9-.4.6-1 2.5-1.4 2.5-.6zm3.9 3c-.3.3-1.1-.5-1.8-1.7-1.3-2.1-1.2-2.1.5-.5 1 1 1.6 2 1.3 2.2zm11.8-2.8c-.3.3-1.2.4-1.9.1-.8-.3-.5-.6.6-.6 1.1-.1 1.7.2 1.3.5zm192 0c-.3.3-1.2.4-1.9.1-.8-.3-.5-.6.6-.6 1.1-.1 1.7.2 1.3.5zm-220.6 1.9c.3-.2.5.5.6 1.5.1 1.1-.3 2-.9 2-.6 0-.8-.3-.5-.7.4-.3-.1-1.6-1-2.7-1.4-1.5-1.4-1.8-.2-.8.9.6 1.8 1 2 .7zm6.2 0c-.3.9-.8 1.4-1 1.1-.3-.3-.2-.9.2-1.5.9-1.6 1.5-1.3.8.4zm58.3 0c-.1.8-.5 1.7-.8 2.1-.5.4-.4-1.6.1-3.4.3-.9.9.1.7 1.3zm8 0c-.1.8-.5 1.7-.8 2.1-.5.4-.4-1.6.1-3.4.3-.9.9.1.7 1.3zm18.2.1c.8.2 1.7.5 2 .8.3.4-.4.5-1.6.3-1.2-.2-2.8-.9-3.5-1.7-1-1-.9-1.1.3-.4.8.5 2.1.9 2.8 1zm119.7-.6c-.3.5-1.2 1-1.8 1-.7 0-.6-.4.3-1 1.9-1.2 2.3-1.2 1.5 0zm3.9 2c-.6.6-1 .3-1-1s.4-1.6 1-1c.7.7.7 1.3 0 2zm7.9-1.5c-.3.9-.8 1.4-1 1.1-.3-.3-.2-.9.2-1.5.9-1.6 1.5-1.3.8.4zm8.5 1c-.3.3-.9-.2-1.2-1.2-.6-1.4-.5-1.5.5-.6.7.7 1 1.5.7 1.8zm-278.2 1.6c.1 1.9-.1 2.6-.6 1.9-.4-.7-.6-2-.5-2.9.7-3.2 1-2.9 1.1 1zm9.8-1.5c.3.9.2 1.2-.5.9-.5-.4-1.8-.1-2.7.6-1.3 1.1-1.2.8.2-.9 2.3-2.6 2.2-2.6 3-.6zm3.7.7c-1 .9-1.1.8-.5-.6.3-1 .9-1.5 1.2-1.2.3.3 0 1.1-.7 1.8zm8.3-.7c.3.8.2 1.2-.4.9-.6-.3-1-1-1-1.6 0-1.4.7-1.1 1.4.7zm48.3-.1c0 .8-.4 1.2-.9.9-.5-.3-1.5-.2-2.1.3-.7.4-.4 0 .6-1 2.3-2.1 2.4-2.1 2.4-.2zm13.8-.5c.3.5.1 1-.4 1-.6 0-1.1-.5-1.1-1 0-.6.2-1 .4-1 .3 0 .8.4 1.1 1zm10.9.1c.3.3-.6.5-1.9.5-1.4 0-2.5-.4-2.5-.8 0-.8 3.6-.6 4.4.3zm8.9.9c1 1 .9 1.1-.3.4-.8-.5-2.1-.9-2.8-1-.8-.2-1.7-.5-2-.8-.3-.4.4-.5 1.6-.3 1.2.2 2.8.9 3.5 1.7zm44.7-.8c0 .3-.9.6-2 .5-1.1-.1-2-.5-2-.9 0-.3.9-.6 2-.5 1.1.1 2 .5 2 .9zm8-.2c0 .5-.4 1-1 1-.5 0-1-.5-1-1 0-.6.5-1 1-1 .6 0 1 .4 1 1zm108.3 1c.3 1.1.1 1.8-.4 1.4-.5-.3-.9-1.2-.9-2 0-2 .7-1.7 1.3.6zm8.4.2c-.3.8-.6.5-.6-.6-.1-1.1.2-1.7.5-1.3.3.3.4 1.2.1 1.9zm11.8-1.2c.3.6-.1.7-.9.4-1.8-.7-2.1-1.4-.7-1.4.6 0 1.3.4 1.6 1zm12.1.8c.1.7 0 .8-.3.2-.2-.5-.9-.8-1.4-.4-.5.3-.9 0-.9-.6 0-1.5 2.3-.7 2.6.8zm-268.5.9c1.3 1.6 1.2 1.7-.3.4-1-.7-1.8-1.5-1.8-1.7 0-.8.8-.3 2.1 1.3zm27.9-1.3c0 .2-.8 1-1.7 1.7-1.6 1.3-1.7 1.2-.4-.4 1.3-1.6 2.1-2.1 2.1-1.3zm71.5.6c-.3.5-1.2 1-1.8 1-.7 0-.6-.4.3-1 1.9-1.2 2.3-1.2 1.5 0zm148.6.7c1.3 1.6 1.2 1.7-.3.4-1-.7-1.8-1.5-1.8-1.7 0-.8.8-.3 2.1 1.3zm24 0c1.3 1.6 1.2 1.7-.3.4-1-.7-1.8-1.5-1.8-1.7 0-.8.8-.3 2.1 1.3zm-296.6 1.1c-.3.3-1.1 0-1.8-.7-.9-1-.8-1.1.6-.5 1 .3 1.5.9 1.2 1.2zm60 0c-.3.3-1.1 0-1.8-.7-.9-1-.8-1.1.6-.5 1 .3 1.5.9 1.2 1.2zm25-.9c-.9.8-3.6 1-3 .2.2-.4 1.1-.8 2-.8.8 0 1.3.3 1 .6zm19.8.8c-.4 1-.9 1.1-1.9.2-1.8-1.5-1.8-1.5.5-1.5 1.1 0 1.7.5 1.4 1.3zm7.9-1c-.6.3-.9 1-.5 1.6.4.7-.1.6-1-.2-2.1-1.7-2.1-1.7.6-1.8 1.2 0 1.6.1.9.4zm7.5 1c0 .9-.4 1-1.4.2-.7-.6-1.3-1.2-1.3-1.4 0-.1.6-.2 1.3-.2.8 0 1.4.6 1.4 1.4zm9.8 2.1c-1.7 1.5-1.8 1.5-.6 0 .7-.9.9-2.3.5-3-.6-1-.4-1.1.7 0 1.1 1 1 1.5-.6 3zm147-2.8c-.3.5-1.2 1-1.8 1-.7 0-.6-.4.3-1 1.9-1.2 2.3-1.2 1.5 0zm-260.8.6c-.3.3-1.2.4-1.9.1-.8-.3-.5-.6.6-.6 1.1-.1 1.7.2 1.3.5zm18.8 1.2c-.3.3-1.1 0-1.8-.7-.9-1-.8-1.1.6-.5 1 .3 1.5.9 1.2 1.2zm19.2.4c-.3.8-.6.5-.6-.6-.1-1.1.2-1.7.5-1.3.3.3.4 1.2.1 1.9zm80.1.3c-.3.3-.9-.2-1.2-1.2-.6-1.4-.5-1.5.5-.6.7.7 1 1.5.7 1.8zm3.5-1c-.3.9-.8 1.4-1 1.1-.3-.3-.2-.9.2-1.5.9-1.6 1.5-1.3.8.4zm12.5 1c-.3.3-.9-.2-1.2-1.2-.6-1.4-.5-1.5.5-.6.7.7 1 1.5.7 1.8zm132.7-.7c-.3.3-1.1 0-1.8-.7-.9-1-.8-1.1.6-.5 1 .3 1.5.9 1.2 1.2zm-259.5-.3c0 .2-.6.8-1.3 1.4-1 .8-1.4.7-1.4-.2 0-.8.6-1.4 1.4-1.4.7 0 1.3.1 1.3.2zm47.4.3c.3.5-.1.9-.9.9s-1.2-.4-.9-.9c.3-.4.7-.8.9-.8.2 0 .6.4.9.8zm5.7.5c-.6.8-.7 1.8-.3 2.2.4.5.1.5-.6.1-1-.6-1-1.1-.1-2.2.6-.8 1.4-1.4 1.6-1.4.3 0 0 .6-.6 1.3zm17.6 0c0 .7-.9 1.3-1.9 1.3-1.8 0-1.8-.1-.2-1.3 1-.7 1.8-1.3 1.9-1.3.1 0 .2.6.2 1.3zm21.3-.9c0 .2-.8 1-1.7 1.7-1.6 1.3-1.7 1.2-.4-.4 1.3-1.6 2.1-2.1 2.1-1.3zm8 0c0 .2-.8 1-1.7 1.7-1.6 1.3-1.7 1.2-.4-.4 1.3-1.6 2.1-2.1 2.1-1.3zm134.4 1.2c.3.8.2 1.2-.4.9-.6-.3-1-1-1-1.6 0-1.4.7-1.1 1.4.7zm10.1 1.4c.2 1.2.1 2-.2 1.6-.4-.4-.8-1.6-1-2.8-.2-1.2-.1-1.9.2-1.6.3.3.8 1.6 1 2.8zm3.5-2.4c0 .8-1.9 1.3-2.4.6-.3-.5.1-.9.9-.9s1.5.2 1.5.3zm24 0c0 .8-1.9 1.3-2.4.6-.3-.5.1-.9.9-.9s1.5.2 1.5.3zm5.6 1.4c0 1.2-.4 1.6-.9 1.1s-.6-1.4-.3-2c1-1.5 1.2-1.4 1.2.9zm-316.3.3c.3.7-.3 1.3-1.4 1.3-1.3 0-1.5-.3-.7-1.3.6-.7 1.2-1.3 1.3-1.3.2 0 .5.6.8 1.3zm3.3 1.3c.1.9 0 1.3-.4 1-.3-.4-.7-1.4-.8-2.2-.1-.9 0-1.3.4-1 .3.4.7 1.4.8 2.2zm92.2-1.3c.8 1 .6 1.3-1.1 1.4-1.2 0-1.6-.1-.9-.4.6-.3 1-.9.6-1.4-.8-1.4.2-1.1 1.4.4zm-86.9 1.2c.7-.3.8 0 .5.9-.8 2-.7 2-3-.6-1.4-1.7-1.5-2-.2-.9.9.7 2.2 1 2.7.6zm7.1-1.1c0 .2-.7.7-1.6 1-.8.3-1.2.2-.9-.4.6-1 2.5-1.4 2.5-.6zm4 .2c0 .8-1.9 1.3-2.4.6-.3-.5.1-.9.9-.9s1.5.2 1.5.3zm32-.2c0 .2-.7.7-1.6 1-.8.3-1.2.2-.9-.4.6-1 2.5-1.4 2.5-.6zm3.7.2c-.3.3-1.2.4-1.9.1-.8-.3-.5-.6.6-.6 1.1-.1 1.7.2 1.3.5zm12.5.5c.2.2.1.3-.1.2-.2-.1-1.1.6-2 1.5-.9 1-1.2 1.2-.8.5.5-.6.6-1.6.3-2.2-.3-.5.1-.8.9-.7.8.1 1.6.4 1.7.7zm20.8-.7c0 .2-.8 1-1.7 1.7-1.6 1.3-1.7 1.2-.4-.4 1.3-1.6 2.1-2.1 2.1-1.3zm27.5.5c-.9.8-3.6 1-3 .2.2-.4 1.1-.8 2-.8.8 0 1.3.3 1 .6zm184.5-.5c0 .2-.9.6-2 .9-1.1.3-1.8.1-1.4-.4.5-.9 3.4-1.3 3.4-.5zm-243.4 1.5c-.4.5-.1 1.1.6 1.3.8.3.6.6-.4 1-1.1.5-1.5.2-1.3-1 .5-2.3.4-2.2 1.1-2.2.3 0 .3.4 0 .9zm27.2.2c-.2.6-.7 1-1.2.9-.5-.1-1.3.4-1.8 1.2-.8 1-.9 1-.5-.2.2-.8 1-1.4 1.6-1.3.6.2 1.1-.2 1.1-.7 0-.6.3-1 .6-1s.4.5.2 1.1zm16.9 1.1c-.3.8-.6.5-.6-.6-.1-1.1.2-1.7.5-1.3.3.3.4 1.2.1 1.9zm47.3-.7c-.6.8-.9 1.9-.5 2.5.3.5.4 1 .1 1-.3 0-1-1-1.7-2.1-.7-1.3-.7-1.9-.1-1.5.6.3 1.3.2 1.7-.4.3-.5.9-1 1.2-1 .3 0 0 .7-.7 1.5zm4.5-.6c.3.5.2 1.2-.3 1.5-.5.3-.9-.1-.9-.9 0-1.7.3-1.9 1.2-.6zm4.5-.6c0 .2-.9 1.2-2 2.2-2.4 2.1-2.7 1.4-.4-.9 1.5-1.5 2.4-2 2.4-1.3zm-137.6 1.8c-.7 1.2-4.1 1.6-4.1.5 0-.6 1-1.1 2.3-1.1 1.2 0 2 .3 1.8.6zm16.1-.1c.3.6-.1.7-.9.4-1.8-.7-2.1-1.4-.7-1.4.6 0 1.3.4 1.6 1zm16.6.7c1.3 1.6 1.2 1.7-.3.4-1-.7-1.8-1.5-1.8-1.7 0-.8.8-.3 2.1 1.3zm8.6-.2c0 .8-.4 1.2-.9.9-.5-.3-.6-1-.3-1.5.9-1.3 1.2-1.1 1.2.6zm28 0c0 .8-.4 1.2-.9.9-.5-.3-.6-1-.3-1.5.9-1.3 1.2-1.1 1.2.6zm21.9.7c1.4 1.7 1.5 2 .2.9-.9-.7-2.2-1-2.7-.6-.7.3-.8 0-.5-.9.8-2 .7-2 3 .6zm24.4-1.3c0 .6-.4 1.2-.8 1.5-.5.3-.9-.1-.9-.9s.4-1.5.9-1.5c.4 0 .8.4.8.9zm9.4.7c.3.8.2 1.2-.4.9-.6-.3-1-1-1-1.6 0-1.4.7-1.1 1.4.7zM429 136c0 .4-.7.7-1.5.6-2.3-.3-2.6-1.2-.5-1.3 1.1-.1 2 .2 2 .7zm5.7 1.2c-.3.8-.6.5-.6-.6-.1-1.1.2-1.7.5-1.3.3.3.4 1.2.1 1.9zm-250 .3c0 .8-1 2.3-2.1 3.2-2.1 1.8-2.1 1.8-.2-.5 1.4-1.6 1.6-2.2.5-2.2s-1.1-.2.1-1c.8-.5 1.5-1 1.6-1 0 0 .1.7.1 1.5zm5.9-.3c.4.7.3.8-.5.4-.6-.4-2-.2-2.9.6-1.5 1.2-1.6 1.1-.3-.5 1.6-2 2.7-2.2 3.7-.5zm46.4-.8c0 .2-.8 1-1.7 1.7-1.6 1.3-1.7 1.2-.4-.4 1.3-1.6 2.1-2.1 2.1-1.3zm-75.5 1.6c-.3.5-1.2 1-1.8 1-.7 0-.6-.4.3-1 1.9-1.2 2.3-1.2 1.5 0zm19.2.7c0 .9-.4 1-1.4.2-.7-.6-1.3-1.2-1.3-1.4 0-.1.6-.2 1.3-.2.8 0 1.4.6 1.4 1.4zm24.6 0c-.4 1-.9 1.1-1.9.2-1.8-1.5-1.8-1.5.5-1.5 1.1 0 1.7.5 1.4 1.3zm3.1-.8c.3.5-.2 1.5-1.2 2.2-1.5 1.2-1.6 1.2-.5-.2.7-.9 1-1.9.6-2.2-.3-.4-.4-.7 0-.7.3 0 .8.4 1.1.9zm16.3.6c0 .8-.4 1.2-.9.9-.5-.3-.6-1-.3-1.5.9-1.3 1.2-1.1 1.2.6zm4.6.2c-.4 1-.9 1.1-1.9.2-1.8-1.5-1.8-1.5.5-1.5 1.1 0 1.7.5 1.4 1.3zm28.3-.5c.3.4-.1.5-1 .4-.8-.1-1.8-.5-2.2-.8-.3-.4.1-.5 1-.4.8.1 1.8.5 2.2.8zm195.4.2c-.7.7-1.3.7-2 0-.6-.6-.3-1 1-1s1.6.4 1 1zm4.5-.4c.3.6-.1.7-.9.4-1.8-.7-2.1-1.4-.7-1.4.6 0 1.3.4 1.6 1zm4 0c-.3.5-1.2 1-1.8 1-.7 0-.6-.4.3-1 1.9-1.2 2.3-1.2 1.5 0zm15.2.7c0 .9-.4 1-1.4.2-.7-.6-1.3-1.2-1.3-1.4 0-.1.6-.2 1.3-.2.8 0 1.4.6 1.4 1.4zm-311 1.5c-.3.8-.6.5-.6-.6-.1-1.1.2-1.7.5-1.3.3.3.4 1.2.1 1.9zm30.3-.7c0 .1-.6.7-1.3 1.3-1 .8-1.3.6-1.3-.7 0-1.1.6-1.7 1.3-1.4.7.3 1.3.6 1.3.8zm76.8 1c-.3.3-.9-.2-1.2-1.2-.6-1.4-.5-1.5.5-.6.7.7 1 1.5.7 1.8zm5.9-.3c0 1.3-.1 1.7-.4 1-.3-.6-1-.9-1.6-.5-.7.4-.6-.1.2-1 1.7-2.1 1.7-2.1 1.8.5zm15.9-.3c0 1.6-.3 1.7-1.4.9-1.2-1-.7-1.9 1.3-2.8.1 0 .1.9.1 1.9zm20.3-.6c.8 1 .7 1.4-.2 1.4-.8 0-1.4-.6-1.4-1.4 0-.7.1-1.3.2-1.3.2 0 .8.6 1.4 1.3zm152.2.1c1.4-.8 1.1.2-.4 1.4-1 .8-1.3.6-1.4-1.1 0-1.2.1-1.6.4-.9.3.6.9 1 1.4.6zm-249 1.9c-1 .9-1.1.8-.5-.6.3-1 .9-1.5 1.2-1.2.3.3 0 1.1-.7 1.8zm4.3-.7c.3.8.2 1.2-.4.9-.6-.3-1-1-1-1.6 0-1.4.7-1.1 1.4.7zm10.6-.8c0 .5-.7.9-1.5.9s-1.2-.4-.9-.9c.3-.4.9-.8 1.5-.8.5 0 .9.4.9.8zm5.7.9c0 .9-.4 1-1.4.2-.7-.6-1.3-1.2-1.3-1.4 0-.1.6-.2 1.3-.2.8 0 1.4.6 1.4 1.4zm25.9 1.9c.3 1.6.2 2.6-.1 2.3-.3-.4-.8-1.9-1.1-3.5-.3-1.6-.2-2.6.1-2.3.3.4.8 1.9 1.1 3.5zm3.4-3c0 .8-1.9 1.3-2.4.6-.3-.5.1-.9.9-.9s1.5.2 1.5.3zm16.5.3c-.9.8-3.6 1-3 .2.2-.4 1.1-.8 2-.8.8 0 1.3.3 1 .6zm3.6 1.4c-1 .9-1.1.8-.5-.6.3-1 .9-1.5 1.2-1.2.3.3 0 1.1-.7 1.8zm192.9-1.9c0 .2-.7.7-1.6 1-.8.3-1.2.2-.9-.4.6-1 2.5-1.4 2.5-.6zm-331.5 2.4c-.3.3-1.1 0-1.8-.7-.9-1-.8-1.1.6-.5 1 .3 1.5.9 1.2 1.2zM245 143c-1.3 2.4-1.4 2.4-3.1.2-1.3-1.5-1.2-1.6.2-.4 1.4 1 1.8 1 2.3-.3.3-.8.8-1.5 1.1-1.5.3 0 .1.9-.5 2zm12.5-1c-.4.6-.1 1.8.7 2.7 1.2 1.5 1.1 1.5-.9.3-1.6-1.1-1.9-1.7-1.1-2.7 1.3-1.6 2.2-1.7 1.3-.3zm4 0c.3.6-.1.7-.9.4-1.8-.7-2.1-1.4-.7-1.4.6 0 1.3.4 1.6 1zm16.8 1.3c.4-.3.7-.4.7 0 0 1.7-2 1.4-3.6-.6-1.9-2.2-1.9-2.2.2-.4 1.1.9 2.4 1.4 2.7 1zm7.7-2c0 .2-.8 1.2-1.9 2.1-1.6 1.5-1.9 1.5-2.4.2-.4-1-.1-1.3.7-1 .8.3 1.7.1 2.1-.5.6-1.1 1.5-1.5 1.5-.8zm15.7.3c-.3.3-1.2.4-1.9.1-.8-.3-.5-.6.6-.6 1.1-.1 1.7.2 1.3.5zm3.1 1.3c-.7.9-1.3 1.8-1.5 2-.1.2-.1-.5 0-1.6 0-1.1.7-2 1.4-2 1 0 1 .4.1 1.6zm171.9-1.2c-.4.3.1 1.6 1 2.7 1.8 2.1 1.8 2.1-.4.2-2.5-2.1-3-3.6-1.1-3.6.6 0 .8.3.5.7zm4.7.1c.3.5-.1.9-.9.9s-1.2-.4-.9-.9c.3-.4.7-.8.9-.8.2 0 .6.4.9.8zm-320 1.6c4.2.8 4.1 1.3-.2 1.2-2.3-.1-3.9-.6-3.9-1.3 0-.7.3-1 .7-.8.3.2 1.9.6 3.4.9zm37.4 1.1c-.3.3-.9-.2-1.2-1.2-.6-1.4-.5-1.5.5-.6.7.7 1 1.5.7 1.8zm54.9-.3c-.3.8-.6.5-.6-.6-.1-1.1.2-1.7.5-1.3.3.3.4 1.2.1 1.9zm-77.6.5c1.3 1.6 1.2 1.7-.3.4-1-.7-1.8-1.5-1.8-1.7 0-.8.8-.3 2.1 1.3zm4.9-1.3c0 .3-.4.8-1 1.1-.5.3-1 .1-1-.4 0-.6.5-1.1 1-1.1.6 0 1 .2 1 .4zm23.7 1.6c.1 1.1-.2 2-.5 2-.4 0-.8-.9-.9-2-.1-1.1.2-2 .5-2 .4 0 .8.9.9 2zm8.3-.8c0 .3-.9.6-2 .5-1.1-.1-2-.5-2-.9 0-.3.9-.6 2-.5 1.1.1 2 .5 2 .9zm10.6.1c.4.3-.4.4-1.6.2-3-.6-4-1.6-1.2-1.2 1.2.2 2.4.6 2.8 1zm17.1.7c1 1.3.8 1.6-.6 1.6-1.3 0-1.7-.6-1.3-1.9.2-1 .5-1.6.6-1.5.1.2.7 1 1.3 1.8zm52.3-1c0 .5-.5 1-1.1 1-.5 0-.7-.5-.4-1 .3-.6.8-1 1.1-1 .2 0 .4.4.4 1zm14.4-.2c.3.5-.1.9-.9.9s-1.2-.4-.9-.9c.3-.4.7-.8.9-.8.2 0 .6.4.9.8zm-122.1 1.5c.3.8-.1 1.4-.8 1.4-.7 0-1.1-.6-.8-1.4.3-.7.6-1.3.8-1.3.2 0 .5.6.8 1.3zm-32.6 1.7c.1 1.1-.2 2-.5 2-.4 0-.8-.9-.9-2-.1-1.1.2-2 .5-2 .4 0 .8.9.9 2zm3.8-.2c-.3.3-1.1 0-1.8-.7-.9-1-.8-1.1.6-.5 1 .3 1.5.9 1.2 1.2zm17.5-1.3c0 .2-.6.8-1.3 1.4-1 .8-1.4.7-1.4-.2 0-.8.6-1.4 1.4-1.4.7 0 1.3.1 1.3.2zm62.5 1.3c-.3.3-1.1 0-1.8-.7-.9-1-.8-1.1.6-.5 1 .3 1.5.9 1.2 1.2zm9-.8c-.3.5-1.2 1-1.8 1-.7 0-.6-.4.3-1 1.9-1.2 2.3-1.2 1.5 0zm27.1 2c0 1.6-.4 3-.8 3s-.6-1-.4-2.3c.3-1.2.5-2.5.5-3 .1-.4.3-.7.5-.7s.3 1.3.2 3zm17-1.8c.3.4-.1.5-1 .4-.8-.1-1.8-.5-2.2-.8-.3-.4.1-.5 1-.4.8.1 1.8.5 2.2.8zm195.2.5c-.6.7-1.2 1.3-1.3 1.3-.2 0-.5-.6-.8-1.3-.3-.7.3-1.3 1.4-1.3 1.3 0 1.5.3.7 1.3zm-322 1.8c-.3.3-.9-.2-1.2-1.2-.6-1.4-.5-1.5.5-.6.7.7 1 1.5.7 1.8zm3.5-1c-.3.9-.8 1.4-1 1.1-.3-.3-.2-.9.2-1.5.9-1.6 1.5-1.3.8.4zm29.7 0c0 1.2-1.9 1.2-2.3 0-.4-.9-.1-1.2.9-.8.7.3 1.4.7 1.4.8zm14.8 1c-.3.3-.9-.2-1.2-1.2-.6-1.4-.5-1.5.5-.6.7.7 1 1.5.7 1.8zm19.9-.3c0 1.3-.1 1.7-.4 1-.3-.6-1-.9-1.6-.5-.7.4-.6-.1.2-1 1.7-2.1 1.7-2.1 1.8.5zm35-1.6c-.3.3-1.2.4-1.9.1-.8-.3-.5-.6.6-.6 1.1-.1 1.7.2 1.3.5zm17 1.6c-.3.8-.6.5-.6-.6-.1-1.1.2-1.7.5-1.3.3.3.4 1.2.1 1.9zm24.2-.8c.9 1 .8 1.5-.2 1.9-.8.3-1.3-.3-1.3-1.4 0-2.3 0-2.3 1.5-.5zm-88.2 1.8c-.3.8-.6.5-.6-.6-.1-1.1.2-1.7.5-1.3.3.3.4 1.2.1 1.9zm4.9.6c-1.7 1.6-1.8 1.6-.5-.5.7-1.2 1.5-2 1.8-1.7.3.2-.3 1.2-1.3 2.2zM249 148c0 .5-.4 1-1 1-.5 0-1-.5-1-1 0-.6.5-1 1-1 .6 0 1 .4 1 1zm9.1 1.3c-1 .9-1.1.8-.5-.6.3-1 .9-1.5 1.2-1.2.3.3 0 1.1-.7 1.8zm37.8-.9c.9 1.1.9 1.6-.1 2.2-.7.4-1 .4-.6-.1.4-.4.3-1.4-.3-2.2-.6-.7-.9-1.3-.6-1.3.2 0 1 .6 1.6 1.4zm6.5-.6c.3.5-.1.9-.9.9s-1.2-.4-.9-.9c.3-.4.7-.8.9-.8.2 0 .6.4.9.8zm10.6-.4c0 .3-.4.8-1 1.1-.5.3-1 .1-1-.4 0-.6.5-1.1 1-1.1.6 0 1 .2 1 .4zm169.1 1.3c1.3 1.6 1.2 1.7-.3.4-1.7-1.3-2.2-2.1-1.4-2.1.2 0 1 .8 1.7 1.7zm-325.8.8c-.3.9-.8 1.4-1 1.1-.3-.3-.2-.9.2-1.5.9-1.6 1.5-1.3.8.4zm48.2-.6c.3.5.2 1.2-.3 1.5-.5.3-.9-.1-.9-.9 0-1.7.3-1.9 1.2-.6zm88.1 0c-.4.5 0 1.1.6 1.4.7.3.3.4-.9.4-1.7-.1-1.9-.4-1.1-1.4 1.2-1.5 2.2-1.8 1.4-.4zM149.5 150c.3.6-.1.7-.9.4-1.8-.7-2.1-1.4-.7-1.4.6 0 1.3.4 1.6 1zm91.5.4c-.7.7-1.3.7-2 0-.6-.6-.3-1 1-1s1.6.4 1 1zm12-1c0 .2-.7.7-1.6 1-.8.3-1.2.2-.9-.4.6-1 2.5-1.4 2.5-.6zm5.9 1.9c1.4-.2 2.2 0 1.8.3-.4.4-1.7.8-2.9.8-1.3.1-3 .6-3.8 1.1-1.3.8-1.3.6-.2-.8.8-.9 1.1-2.2.7-2.9-.4-.7-.1-.6.7.3.7.9 2.3 1.4 3.7 1.2zm22.5-1.4c.4.5-.3.7-1.4.4-2.3-.6-2.6-1.3-.6-1.3.8 0 1.7.4 2 .9zm18.7.8c1.3 1.6 1.2 1.7-.3.4-1.7-1.3-2.2-2.1-1.4-2.1.2 0 1 .8 1.7 1.7zm-157.3 1.8c-.3.3-.9-.2-1.2-1.2-.6-1.4-.5-1.5.5-.6.7.7 1 1.5.7 1.8zm145.4-1.3c-.6.6-2.2 1.3-3.4 1.5-1.8.2-1.9.1-.8-.6.8-.5 1.7-.8 2.1-.5.4.2 1 0 1.4-.6.3-.5.9-1 1.3-1 .3 0 .1.5-.6 1.2zm15.2.4c.3.8.2 1.2-.4.9-.6-.3-1-1-1-1.6 0-1.4.7-1.1 1.4.7zm5.2.2c0 1-.8 1.8-1.6 1.8-.9 0-1.7-.6-1.7-1.3 0-.7.4-1 .8-.7.4.2 1 0 1.4-.6.9-1.4 1.1-1.3 1.1.8zm-70.9 1.4c-.3.8-.6.5-.6-.6-.1-1.1.2-1.7.5-1.3.3.3.4 1.2.1 1.9zm5 0c-.3.8-.6.5-.6-.6-.1-1.1.2-1.7.5-1.3.3.3.4 1.2.1 1.9zm25.2-.4c.7 1.3.6 1.9-.2 1.9-.7 0-1.3-.9-1.3-1.9 0-1 .1-1.8.3-1.8.1 0 .7.8 1.2 1.8zm30.6-.9c.3.5.2 1.2-.3 1.5-.5.3-.9-.1-.9-.9 0-1.7.3-1.9 1.2-.6zM229 154c0 .5-.2 1-.4 1-.3 0-.8-.5-1.1-1-.3-.6-.1-1 .4-1 .6 0 1.1.4 1.1 1zm31.7.5c0 .8-.4 1.2-.9.9-.5-.3-.6-1-.3-1.5.9-1.3 1.2-1.1 1.2.6zm4.3 0c0 .1-1 1-2.2 2.1-1.7 1.4-2 1.5-.9.2.7-.9 1-2.2.6-2.7-.3-.7 0-.8.9-.5.9.3 1.6.7 1.6.9zm11.5.3c-.3.3-1.1 0-1.8-.7-.9-1-.8-1.1.6-.5 1 .3 1.5.9 1.2 1.2zm3.9-1c.3.5-.1.9-.9.9s-1.2-.4-.9-.9c.3-.4.7-.8.9-.8.2 0 .6.4.9.8zm-28.4 1.6c0 .2-.8 1-1.7 1.7-1.6 1.3-1.7 1.2-.4-.4 1.3-1.6 2.1-2.1 2.1-1.3zm2.4 1.2c.3.8.2 1.2-.4.9-.6-.3-1-1-1-1.6 0-1.4.7-1.1 1.4.7zm18.2 1c-.3 1.5-.8 2.9-1.1 3.2-.3.3-.3-.5-.1-1.9.2-1.3.5-2.7.5-3.2.1-.4.3-.7.6-.7s.3 1.2.1 2.6zm18.1-.4c-.3.8-.6.5-.6-.6-.1-1.1.2-1.7.5-1.3.3.3.4 1.2.1 1.9zm17.3-1.6c0 .8-1.9 1.3-2.4.6-.3-.5.1-.9.9-.9s1.5.2 1.5.3zm-31 1.8c0 .2-.7.7-1.6 1-.8.3-1.2.2-.9-.4.6-1 2.5-1.4 2.5-.6zm4.9 1.2c1-.7.9 2-.2 2.9-.4.3-.5.2-.2-.1.2-.4-.4-1.4-1.3-2.3-1-.9-1.2-1.2-.5-.8.6.5 1.6.6 2.2.3zm20.1.1c1.2-1 1.2-.9.1.5-1.8 2.4-2.8 2.3-3.4-.5-.5-2-.5-2 .7-.5 1 1.4 1.5 1.5 2.6.5zm-13.7.6c.4-.3.7-.1.7.5 0 1.7-1.6 1.5-3.1-.6-1.2-1.5-1.2-1.6.2-.5.9.7 1.9 1 2.2.6zm-25.9.5c.3.5-.1.9-.9.9s-1.2-.4-.9-.9c.3-.4.7-.8.9-.8.2 0 .6.4.9.8zm28.7 3.9c1.3 1.6 1.2 1.7-.3.4-1.7-1.3-2.2-2.1-1.4-2.1.2 0 1 .8 1.7 1.7zm3.9-.3c0 .3-.4.8-1 1.1-.5.3-1 .1-1-.4 0-.6.5-1.1 1-1.1.6 0 1 .2 1 .4zM95 191.6c0 .8-1.9 1.3-2.4.6-.3-.5.1-.9.9-.9s1.5.2 1.5.3zm430.3 21.8c.4 1 .1 1.3-.8.9-.8-.3-1.2-.9-.9-1.4.7-1.2 1.1-1.1 1.7.5zM77 220c0 .5-.5 1-1.1 1-.5 0-.7-.5-.4-1 .3-.6.8-1 1.1-1 .2 0 .4.4.4 1zm451-.6c0 .2-.8 1-1.7 1.7-1.6 1.3-1.7 1.2-.4-.4 1.3-1.6 2.1-2.1 2.1-1.3zm-435.3 8.1c0 .8-.4 1.2-.9.9-.5-.3-.6-1-.3-1.5.9-1.3 1.2-1.1 1.2.6zm-7.3.3c.3.5-.1.9-.9.9s-1.2-.4-.9-.9c.3-.4.7-.8.9-.8.2 0 .6.4.9.8zm443.6.1c0 .6-.4 1.2-.8 1.5-.5.3-.9-.1-.9-.9s.4-1.5.9-1.5c.4 0 .8.4.8.9zm4.3 9.4c.3.7-.3 1.3-1.4 1.3-1.3 0-1.5-.3-.7-1.3.6-.7 1.2-1.3 1.3-1.3.2 0 .5.6.8 1.3zm0 5.4c-.4 1-.9 1-1.8.3-.6-.5-1.6-.6-2-.2-.5.4-.6.2-.2-.3.8-1.6 4.6-1.3 4 .2zm-455.3.9c0 .8-1.9 1.3-2.4.6-.3-.5.1-.9.9-.9s1.5.2 1.5.3zm459-.2c0 .2-.7.7-1.6 1-.8.3-1.2.2-.9-.4.6-1 2.5-1.4 2.5-.6zm-3.2 4.9c.8 1 .6 1.3-.7 1.3-1.1 0-1.7-.6-1.4-1.3.3-.7.6-1.3.8-1.3.1 0 .7.6 1.3 1.3zm-437.2 2.3c.1.9 0 1.3-.4 1-.3-.4-.7-1.4-.8-2.2-.1-.9 0-1.3.4-1 .3.4.7 1.4.8 2.2zm443.4-2.2c0 .2-.7.7-1.6 1-.8.3-1.2.2-.9-.4.6-1 2.5-1.4 2.5-.6zm-5 3.2c0 .8-1.9 1.3-2.4.6-.3-.5.1-.9.9-.9s1.5.2 1.5.3zm6.4.3c.3.4-.4.7-1.4.6-2.7-.2-3.3-1-1-1.2 1.1-.1 2.2.2 2.4.6zM537 256c0 .5-.4 1-1 1-.5 0-1-.5-1-1 0-.6.5-1 1-1 .6 0 1 .4 1 1zm-436 4c0 .5-.5 1-1.1 1-.5 0-.7-.5-.4-1 .3-.6.8-1 1.1-1 .2 0 .4.4.4 1zm433.4-.2c.3.5-.1.9-.9.9s-1.2-.4-.9-.9c.3-.4.7-.8.9-.8.2 0 .6.4.9.8zm6.1.1c-.9.8-3.6 1-3 .2.2-.4 1.1-.8 2-.8.8 0 1.3.3 1 .6zm-459.9 1.6c-.1.8-.5 1.7-.8 2.1-.5.4-.4-1.6.1-3.4.3-.9.9.1.7 1.3zm461.4-.2c0 .2-.8 1.2-1.9 2.1-1.6 1.5-1.9 1.5-2.4.2-.4-1-.1-1.3.7-1 .8.3 1.7.1 2.1-.5.6-1.1 1.5-1.5 1.5-.8zm-7.8 3.9c-.8.8-.9.4-.5-1.3.4-1.3.8-1.8 1.1-1 .2.7-.1 1.8-.6 2.3zm10.3 1.6c-.3.3-1.1 0-1.8-.7-.9-1-.8-1.1.6-.5 1 .3 1.5.9 1.2 1.2zm-5.8.6c0 .9-.6 1.2-1.6.8-1.3-.5-1.4-.3-.4.9 1 1.2.9 1.5-.5 1.5-1 0-1.8-.8-1.8-1.7 0-1 .3-1.6.6-1.4.3.2 1.2 0 2-.6.8-.5 1.5-.9 1.6-.9 0 0 .1.6.1 1.4zM93 268c0 .5-.5 1-1.1 1-.5 0-.7-.5-.4-1 .3-.6.8-1 1.1-1 .2 0 .4.4.4 1zm7.4-.2c.3.5-.1.9-.9.9s-1.2-.4-.9-.9c.3-.4.7-.8.9-.8.2 0 .6.4.9.8zm446.1 3.2c-.3.5-1.4 1-2.3.9-1.4 0-1.3-.2.3-.9 2.7-1.1 2.7-1.1 2 0zm-5.3 2.7c-.6.3-.9 1-.5 1.6.4.7-.1.6-1-.2-2.1-1.7-2.1-1.7.6-1.8 1.2 0 1.6.1.9.4zm4.3.3c.3.6-.1.7-.9.4-1.8-.7-2.1-1.4-.7-1.4.6 0 1.3.4 1.6 1zm-8 4c-.3.5-1.2 1-1.8 1-.7 0-.6-.4.3-1 1.9-1.2 2.3-1.2 1.5 0zm7.7-.3c-1 .4-.9 1 .5 2.7l1.8 2.1-2.2-1.9c-2.3-1.9-2.2-3.7 0-3.5.8 0 .8.2-.1.6zm5.3 2.2c.3.5.2 1.2-.3 1.5-.5.3-.9-.1-.9-.9 0-1.7.3-1.9 1.2-.6zm-11.1 3.9c.3.5-.1.9-.9.9s-1.2-.4-.9-.9c.3-.4.7-.8.9-.8.2 0 .6.4.9.8zm11 .8c.3.8.2 1.2-.4.9-.6-.3-1-1-1-1.6 0-1.4.7-1.1 1.4.7zm-8.4.8c0 .2-.8 1-1.7 1.7-1.6 1.3-1.7 1.2-.4-.4 1.3-1.6 2.1-2.1 2.1-1.3zm-4.7 2.7c-.8.8-1.3.7-1.8-.2-.5-.8-.4-1 .3-.5.7.4 1.2.2 1.2-.5s.3-.9.7-.6c.4.4.2 1.2-.4 1.8zm11.7-.1c0 .5-.4 1-1 1-.5 0-1-.5-1-1 0-.6.5-1 1-1 .6 0 1 .4 1 1zm-2.2 4.5c-.3.3-.9-.2-1.2-1.2-.6-1.4-.5-1.5.5-.6.7.7 1 1.5.7 1.8zm3.5-1c-.3.9-.8 1.4-1 1.1-.3-.3-.2-.9.2-1.5.9-1.6 1.5-1.3.8.4zm-10 3.4c-1.2 1-2 2.1-1.8 2.5.3.3.2.4-.2.1-1.3-1-1.1-3.4.2-2.9.7.3 1.6.1 2-.5.3-.6.9-1.1 1.3-1.1.4.1-.3.9-1.5 1.9zm6.7-.5c0 .2-.6.9-1.4 1.5-1.1.9-1.6.9-2.2 0-.4-.7-.3-.9.4-.5.6.3 1.3.2 1.7-.4.6-1 1.5-1.4 1.5-.6zm3.5.5c.3.5.2 1.2-.3 1.5-.5.3-.9-.1-.9-.9 0-1.7.3-1.9 1.2-.6zm4.1.6c-.1.8-.6 1.8-1.1 2.2-.4.4-.5.2-.1-.5s.2-1.2-.6-1.2c-.9 0-.9-.3.2-1 1.9-1.2 1.9-1.3 1.6.5zm-9.5 3.3c-.7.2-1.8-.1-2.3-.6-.8-.8-.4-.9 1.3-.5 1.3.4 1.8.8 1 1.1zM84.5 300c.3.5.1 1-.4 1-.6 0-1.1-.5-1.1-1 0-.6.2-1 .4-1 .3 0 .8.4 1.1 1zm468.5 2c0 .5-.4 1-1 1-.5 0-1-.5-1-1 0-.6.5-1 1-1 .6 0 1 .4 1 1zm-8.4 1.5c-.1.8-.5 1.7-.8 2.1-.5.4-.4-1.6.1-3.4.3-.9.9.1.7 1.3zm-3.3 3.2c-.4 1-.9 1.1-1.9.2-1.8-1.5-1.8-1.5.5-1.5 1.1 0 1.7.5 1.4 1.3zm11.2.1c-.3.3-1.1 0-1.8-.7-.9-1-.8-1.1.6-.5 1 .3 1.5.9 1.2 1.2zm-5.8 1.4c-.3.8-.6.5-.6-.6-.1-1.1.2-1.7.5-1.3.3.3.4 1.2.1 1.9zM85 308c0 .5-.2 1-.4 1-.3 0-.8-.5-1.1-1-.3-.6-.1-1 .4-1 .6 0 1.1.4 1.1 1zm16 0c0 .5-.5 1-1.1 1-.5 0-.7-.5-.4-1 .3-.6.8-1 1.1-1 .2 0 .4.4.4 1zm444-.6c0 .2-.7.7-1.6 1-.8.3-1.2.2-.9-.4.6-1 2.5-1.4 2.5-.6zm.4 2.4c.3.5-.1.9-.9.9s-1.2-.4-.9-.9c.3-.4.7-.8.9-.8.2 0 .6.4.9.8zm10 2.2c-.6.6-1 .3-1-1s.4-1.6 1-1c.7.7.7 1.3 0 2zm3.1-2.1c.3.5.2 1.2-.3 1.5-.5.3-.9-.1-.9-.9 0-1.7.3-1.9 1.2-.6zm-20.2 1.6c-.3.9-.8 1.4-1 1.1-.3-.3-.2-.9.2-1.5.9-1.6 1.5-1.3.8.4zm14.4.1c-.2.3-1.7.7-3.3 1-1.7.2-2.4.1-1.7-.4 1.3-.8 5.8-1.4 5-.6zm-5.9 4.9c-.3.3-.9-.2-1.2-1.2-.6-1.4-.5-1.5.5-.6.7.7 1 1.5.7 1.8zM539 318c0 .5-.2 1-.4 1-.3 0-.8-.5-1.1-1-.3-.6-.1-1 .4-1 .6 0 1.1.4 1.1 1zm4.4 2c-.6.6-1 .3-1-1s.4-1.6 1-1c.7.7.7 1.3 0 2zm10.3-2.4c-.3.3-1.2.4-1.9.1-.8-.3-.5-.6.6-.6 1.1-.1 1.7.2 1.3.5zm-1.1 1.6c.5-.4.5-.3.1.2-1.2 1.5-3.4 1.5-3.4 0 0-.9.4-1.1 1.2-.4.7.5 1.6.6 2.1.2zm-11.9.5c-.4.3-.2 1.1.3 1.8.7.8.5 1.2-.4 1.2-.8 0-1.2-.7-1.1-1.6.5-2.2.4-2.1 1.2-2.1.3 0 .3.3 0 .7zm15.3-.3c0 .2-.8 1-1.7 1.7-1.6 1.3-1.7 1.2-.4-.4 1.3-1.6 2.1-2.1 2.1-1.3zm4.6 3.2c.1.9 0 1.3-.4 1-.3-.4-.7-1.4-.8-2.2-.1-.9 0-1.3.4-1 .3.4.7 1.4.8 2.2zm-9.2 1.3c1.5 1.7 1.5 1.9.1 2.5-1 .3-1.4.2-1-.5.4-.5.1-1.6-.5-2.4-1.8-2.2-.6-1.8 1.4.4zm-2.8 1.7c.1.9 0 1.3-.4 1-.3-.4-.7-1.4-.8-2.2-.1-.9 0-1.3.4-1 .3.4.7 1.4.8 2.2zm8.1 0c-.3.3-1.2.4-1.9.1-.8-.3-.5-.6.6-.6 1.1-.1 1.7.2 1.3.5zm-18.3 3c.3.8.2 1.2-.4.9-.6-.3-1-1-1-1.6 0-1.4.7-1.1 1.4.7zm10.4-.1c.3.3-.4.4-1.6.2-1.2-.2-2.4-.6-2.8-1-.4-.3.4-.4 1.6-.2 1.2.2 2.5.7 2.8 1zm12.2 3.7c0 1.9-1.6.5-1.7-1.4-.2-1.8 0-2 .7-.8.5.8 1 1.8 1 2.2zm-14.2.3c-.3.3-.9-.2-1.2-1.2-.6-1.4-.5-1.5.5-.6.7.7 1 1.5.7 1.8zm3.5-1c-.3.9-.8 1.4-1 1.1-.3-.3-.2-.9.2-1.5.9-1.6 1.5-1.3.8.4zm-449.8.4c.3.5.2 1.2-.3 1.5-.5.3-.9-.1-.9-.9 0-1.7.3-1.9 1.2-.6zm8.5-.3c0 .8-1.9 1.3-2.4.6-.3-.5.1-.9.9-.9s1.5.2 1.5.3zm444.7 2c-.3.3-1.2.4-1.9.1-.8-.3-.5-.6.6-.6 1.1-.1 1.7.2 1.3.5zm-7.7 1.9c-.6.8-.8 2-.4 2.7.5 1 .4 1-.6.1-1.1-1-1.1-1.5 0-2.8.7-.8 1.5-1.5 1.7-1.5.3 0 0 .7-.7 1.5zm11.6 1.7c0 1.7-.2 1.7-1.1.4-.9-1.2-1.5-1.3-2.5-.3-1.2 1-1.2.9-.2-.4 1.6-2.2 3.8-2 3.8.3zm-8.1.8c-.3.5-1.2 1-1.8 1-.7 0-.6-.4.3-1 1.9-1.2 2.3-1.2 1.5 0zm3 4c.2 1.2.1 2-.2 1.6-.4-.4-.8-1.6-1-2.8-.4-2.8.6-1.8 1.2 1.2zm12-2c.3.5.1 1-.4 1-.6 0-1.1-.5-1.1-1 0-.6.2-1 .4-1 .3 0 .8.4 1.1 1zm-456 3.9c.3.5.2 1.2-.3 1.5-.5.3-.9-.1-.9-.9 0-1.7.3-1.9 1.2-.6zm452.1 3.3c.5-.4.6-.3.2.2-.4.5-.4 1.4.2 2 .6.8.2 1.2-1.3 1.3-1.2 0-1.6-.1-.9-.4 1-.4.9-1-.5-2.6-1.2-1.5-1.3-1.8-.2-.9.9.6 2 .8 2.5.4zm2.1 1c-.3.8-.6.5-.6-.6-.1-1.1.2-1.7.5-1.3.3.3.4 1.2.1 1.9zm-6 1.1c0 .8-.6 1.4-1.4 1.4-.9 0-1-.4-.2-1.4.6-.7 1.2-1.3 1.4-1.3.1 0 .2.6.2 1.3zm4.4 8.4c1.3 1.6 1.2 1.7-.3.4-1-.7-1.8-1.5-1.8-1.7 0-.8.8-.3 2.1 1.3zm-.5 3.5c.1.8-.5 1.5-1.2 1.5-1 0-1.1-.4-.5-1 .7-.7.5-1.5-.7-2.4-1.6-1.3-1.5-1.4.2-.5 1.1.5 2 1.6 2.2 2.4zm5.3-.9c-.2.1-1.3.9-2.4 1.7-1.9 1.4-1.9 1.4-.6-.3.7-.9 1.8-1.7 2.4-1.7.6 0 .8.1.6.3zm-1.1 6.2c-.3.3-.9-.2-1.2-1.2-.6-1.4-.5-1.5.5-.6.7.7 1 1.5.7 1.8zm-2 2c-.3.3-.9-.2-1.2-1.2-.6-1.4-.5-1.5.5-.6.7.7 1 1.5.7 1.8zm-40.1 76.7c-.3.8-.6.5-.6-.6-.1-1.1.2-1.7.5-1.3.3.3.4 1.2.1 1.9zm-30.2 2.8c.1 1-.2 1.7-.6 1.4-.4-.2-.7-1.3-.6-2.4.2-2.3 1-1.7 1.2 1zm8.5.2c0 1.9-1.6.5-1.7-1.4-.2-1.8 0-2 .7-.8.5.8 1 1.8 1 2.2zm11.6.8c0 4.2-.4 4.7-1.1 1.1-.3-1.8.2-5.1.9-5.1.1 0 .2 1.8.2 4zm6.9.7c-1.8 1.7-1.8 1.7-.6 0 1.1-1.4 1.1-2 0-3.5-1.2-1.6-1.2-1.6.6 0 1.9 1.8 1.9 1.8 0 3.5zm3.2-.5c-.3.8-.6.5-.6-.6-.1-1.1.2-1.7.5-1.3.3.3.4 1.2.1 1.9zm3.8-1.3c.3.5.2 1.2-.3 1.5-.5.3-.9-.1-.9-.9 0-1.7.3-1.9 1.2-.6zm-34.5 3.6c0 .1-.6.7-1.3 1.3-1 .8-1.3.6-1.3-.7 0-1.1.6-1.7 1.3-1.4.7.3 1.3.6 1.3.8zm12.7 2.9c0 .9-.6 1.2-1.6.8-1.1-.4-1.1-.7-.2-1 .9-.3.7-1-.6-2.6-1.8-2.1-1.8-2.1.3-.3 1.1.9 2.1 2.3 2.1 3.1zm-4-1.1c0 .8-.6 1.4-1.4 1.4-.9 0-1-.4-.2-1.4.6-.7 1.2-1.3 1.4-1.3.1 0 .2.6.2 1.3zm9.5 1.1c1-.6 1.1-.4 0 .7-1 1.1-1.5 1-3-.6-1.5-1.7-1.5-1.8 0-.6.9.7 2.3.9 3 .5zm6.8-1c0 .2-.7.7-1.6 1-.8.3-1.2.2-.9-.4.6-1 2.5-1.4 2.5-.6zm-34.2 3.1c-.3.3-.9-.2-1.2-1.2-.6-1.4-.5-1.5.5-.6.7.7 1 1.5.7 1.8zm-2.4.1c.3.8.2 1.2-.4.9-.6-.3-1-1-1-1.6 0-1.4.7-1.1 1.4.7zm12.1-.6c.3.5.1 1-.4 1-.6 0-1.1-.5-1.1-1 0-.6.2-1 .4-1 .3 0 .8.4 1.1 1zm24.2.3c0 .7-.9 1.3-1.9 1.3-1.8 0-1.8-.1-.2-1.3 1-.7 1.8-1.3 1.9-1.3.1 0 .2.6.2 1.3zm-20.3 1.5c.3.5-.1.9-.9.9s-1.2-.4-.9-.9c.3-.4.7-.8.9-.8.2 0 .6.4.9.8zm-14.9 2.2c-1.3 1.4-1.4 2-.5 2 .7 0 1.1.3.7.6-.3.3-1.1.3-1.7-.1-.8-.5-.6-1.3.6-2.6.9-1 1.9-1.9 2.2-1.9.3 0-.3.9-1.3 2zm3 .9c.3.5.2 1.2-.3 1.5-.5.3-.9-.1-.9-.9 0-1.7.3-1.9 1.2-.6zm8.3.4c.8 1 .6 1.3-1.1 1.4-1.2 0-1.6-.1-.9-.4.6-.3 1-.9.6-1.4-.8-1.4.2-1.1 1.4.4zm15.9.3c-.3.3-1.2.4-1.9.1-.8-.3-.5-.6.6-.6 1.1-.1 1.7.2 1.3.5zm-34.1 1.9c-.1.8-.5 1.7-.8 2.1-.5.4-.4-1.6.1-3.4.3-.9.9.1.7 1.3zm13.7 0c-.3.9-.8 1.4-1 1.1-.3-.3-.2-.9.2-1.5.9-1.6 1.5-1.3.8.4zm10.3.7c0 1.1-.4 1.4-1.2.8-.6-.6-1.3-.8-1.6-.5-.2.3-.5-.1-.5-.8 0-.7.8-1.3 1.7-1.3.8 0 1.6.8 1.6 1.8zm3.8.8c-.6.6-1 .3-1-1s.4-1.6 1-1c.7.7.7 1.3 0 2zm2.8-.2c.3 1.1 0 1.9-.7 1.9s-1-.8-.7-1.9c.2-1 .6-1.8.7-1.8.1 0 .5.8.7 1.8zm-27.8.8c.3.8.2 1.2-.4.9-.6-.3-1-1-1-1.6 0-1.4.7-1.1 1.4.7zm4.1.4c-.3.5-1.2 1-1.8 1-.7 0-.6-.4.3-1 1.9-1.2 2.3-1.2 1.5 0zm1.2 3.2c-.3.8-.6.5-.6-.6-.1-1.1.2-1.7.5-1.3.3.3.4 1.2.1 1.9zm15.4.1c-1 .9-1.1.8-.5-.6.3-1 .9-1.5 1.2-1.2.3.3 0 1.1-.7 1.8zm-7.5-.1c.4.7.3.8-.5.4-.6-.4-2-.2-2.9.6-1.5 1.2-1.6 1.1-.3-.5 1.6-2 2.7-2.2 3.7-.5zm-12.3 2.3c-.3.9-.8 1.4-1 1.1-.3-.3-.2-.9.2-1.5.9-1.6 1.5-1.3.8.4zm-10.3.5c.8.5 1.1 1 .5 1-.5 0-1.7-.5-2.5-1s-1-1-.5-1c.6 0 1.7.5 2.5 1zm13.5 2c.3.6-.1.7-.9.4-1.8-.7-2.1-1.4-.7-1.4.6 0 1.3.4 1.6 1zm7.5-.3c0 .5-.5 1.5-1 2.3-.7 1.2-.9 1-.7-.8.1-1.9 1.7-3.3 1.7-1.5zm-8.3 4.7c0 .9-.6 1.2-1.6.8-1.1-.4-1.1-.7-.2-1 .9-.3.7-1-.6-2.6-1.8-2.1-1.8-2.1.3-.3 1.1.9 2.1 2.3 2.1 3.1zm-16.8-1.6c.7 1.3.6 1.9-.2 1.9-.7 0-1.3-.9-1.3-1.9 0-1 .1-1.8.3-1.8.1 0 .7.8 1.2 1.8zm4.7.1c-.4.5 0 1.1.6 1.4.7.3.3.4-.9.4-1.7-.1-1.9-.4-1.1-1.4 1.2-1.5 2.2-1.8 1.4-.4zm8.1.6c0 .8-.4 1.2-.9.9-.5-.3-.6-1-.3-1.5.9-1.3 1.2-1.1 1.2.6zm7.2 1.7c-.5 1-1.1 1.8-1.2 1.8-.2 0-.3-.8-.3-1.8s.6-1.9 1.3-1.9c.8 0 .9.6.2 1.9zm-312.5 1c-.4.5-.9.7-1.2.4-.3-.3-1.2 0-2.1.7-1.4 1-1.4 1-.4-.4 1.3-1.6 4.6-2.3 3.7-.7zm1.3 2.8c.1 1.1-.2 2-.7 2-.6 0-.7-1.7-.1-3.8.3-.8.7.1.8 1.8zm299.8-1.2c-.3.3 0 1 .5 1.7.7.8.5 1.2-.5 1.2-.8 0-1.3-.3-1-.5.3-.3 0-1-.5-1.7-.7-.8-.5-1.2.5-1.2.8 0 1.3.3 1 .5zm4.3.9c-1.2 1.5-2.2 1.8-1.4.4.4-.5 0-1.1-.6-1.4-.7-.3-.3-.4.9-.4 1.7.1 1.9.4 1.1 1.4zm-14.5.8c-.3.9-.8 1.4-1 1.1-.3-.3-.2-.9.2-1.5.9-1.6 1.5-1.3.8.4zm-3.6.9c0 .8-.6 1.2-1.5.9-1.1-.5-1.1-.7 0-1.4.7-.5 1.3-.9 1.4-.9 0 0 .1.6.1 1.4zm11 .8c-.3.8-.6.5-.6-.6-.1-1.1.2-1.7.5-1.3.3.3.4 1.2.1 1.9zm-4.2.8c.3.6-.1.7-.9.4-1.8-.7-2.1-1.4-.7-1.4.6 0 1.3.4 1.6 1zm-286.5.4c0 .2-.8 1-1.7 1.7-1.6 1.3-1.7 1.2-.4-.4 1.3-1.6 2.1-2.1 2.1-1.3zm277.5 2.4c-.3.3-1.1 0-1.8-.7-.9-1-.8-1.1.6-.5 1 .3 1.5.9 1.2 1.2zm-275.8 1.8c-.3.3-1.2.4-1.9.1-.8-.3-.5-.6.6-.6 1.1-.1 1.7.2 1.3.5zm7.3 1c0 .8-1.9 1.3-2.4.6-.3-.5.1-.9.9-.9s1.5.2 1.5.3zm2.5.4c.3.5.1 1-.4 1-.6 0-1.1-.5-1.1-1 0-.6.2-1 .4-1 .3 0 .8.4 1.1 1zm5.9 1.8c.3.5-.1.9-.9.9s-1.2-.4-.9-.9c.3-.4.7-.8.9-.8.2 0 .6.4.9.8zm18.3.7c0 .8-.4 1.2-.9.9-.5-.3-.6-1-.3-1.5.9-1.3 1.2-1.1 1.2.6zm-35.6 1.2c1.3 1.6 1.2 1.7-.3.4-1-.7-1.8-1.5-1.8-1.7 0-.8.8-.3 2.1 1.3zm29.1-.5c-.6.6-2.2 1.3-3.4 1.5-1.8.2-1.9.1-.8-.6.8-.5 1.7-.8 2.1-.5.4.2 1 0 1.4-.6.3-.5.9-1 1.3-1 .3 0 .1.5-.6 1.2zm-23.3.1c-.2.1-1.3.9-2.4 1.7-1.9 1.4-1.9 1.4-.6-.3.7-.9 1.8-1.7 2.4-1.7.6 0 .8.1.6.3zm27.6.7c.3.5.1 1-.4 1-.6 0-1.1-.5-1.1-1 0-.6.2-1 .4-1 .3 0 .8.4 1.1 1zm-21.1 3.9c1.4 1.5 1.5 2.1.4 2.7-.7.4-1 .3-.5-.1.4-.5 0-1.7-1-2.7-.9-1-1.4-1.8-1.1-1.8.3 0 1.3.9 2.2 1.9zm14.9-.4c-.3.9-.8 1.4-1 1.1-.3-.3-.2-.9.2-1.5.9-1.6 1.5-1.3.8.4zm9.1.4c1.4 1.5 1.5 2.1.4 2.7-.7.4-1 .3-.5-.1.4-.5 0-1.7-1-2.7-.9-1-1.4-1.8-1.1-1.8.3 0 1.3.9 2.2 1.9zm11.7-.2c.8.9.9 1.4.2 1-.6-.4-1.3-.1-1.6.5-.3.7-.4.3-.4-1 .1-2.6.1-2.6 1.8-.5zm-4.7.1c.3.5-.1.9-.9.9s-1.2-.4-.9-.9c.3-.4.7-.8.9-.8.2 0 .6.4.9.8zm217.6-.3c0 .2-.6.8-1.3 1.4-1 .8-1.4.7-1.4-.2 0-.8.6-1.4 1.4-1.4.7 0 1.3.1 1.3.2zm-251.4 1.4c-.4.5 0 1.1.6 1.4.7.3.3.4-.9.4-1.7-.1-1.9-.4-1.1-1.4 1.2-1.5 2.2-1.8 1.4-.4zm24 0c-.4.5 0 1.1.6 1.4.7.3.3.4-.9.4-1.7-.1-1.9-.4-1.1-1.4 1.2-1.5 2.2-1.8 1.4-.4zm-27.7 3.5c-.3.3-1.1-.5-1.8-1.7-1.3-2.1-1.2-2.1.5-.5 1 1 1.6 2 1.3 2.2zm37.3-2c1-.6 1.1-.4 0 .7-1 1.1-1.5 1-3-.6-1.5-1.7-1.5-1.8 0-.6.9.7 2.3.9 3 .5zm7.8-1c0 .2-.8 1-1.7 1.7-1.6 1.3-1.7 1.2-.4-.4 1.3-1.6 2.1-2.1 2.1-1.3zm-31.7 2.6c.3 1.1.1 1.8-.4 1.4-.5-.3-.9-1.2-.9-2 0-2 .7-1.7 1.3.6zm11.1 1.5c.3-.3.4-.2.1.2-.9 1.1-3.6 1.2-2.9.2.3-.6.2-1.6-.3-2.2-.4-.7-.1-.5.8.5.9.9 1.9 1.5 2.3 1.3zm33.6-3.1c0 .2-.8 1-1.7 1.7-1.6 1.3-1.7 1.2-.4-.4 1.3-1.6 2.1-2.1 2.1-1.3zm3.5.5c.3.5.2 1.2-.3 1.5-.5.3-.9-.1-.9-.9 0-1.7.3-1.9 1.2-.6zm-53.4 1.4c-.6.8-.9 1.6-.6 1.9.3.3-.3 1.1-1.2 1.9-1.6 1.3-1.7 1.2-.4-.4.7-.9 1-1.7.6-1.7s-.2-.7.5-1.5 1.5-1.5 1.7-1.5c.3 0 0 .6-.6 1.3zm25.4-.4c.3.5.2 1.2-.3 1.5-.5.3-.9-.1-.9-.9 0-1.7.3-1.9 1.2-.6zm7 .1c-.3.5-1.2 1-1.8 1-.7 0-.6-.4.3-1 1.9-1.2 2.3-1.2 1.5 0zm205.9-.1c-.8.9-4.4 1.1-4.4.3 0-.4 1.1-.8 2.5-.8 1.3 0 2.2.2 1.9.5zm7.9.9c-.5 1.1-.7 1.1-1.4 0-.8-1.1-1.3-.5-1.1 1.3.1.3-.6.6-1.4.6-1.2 0-1.2-.3.1-1.7 1.8-2 4.5-2.2 3.8-.2zm-243 .5c.3.8-.1 1.4-.8 1.4-.7 0-1.1-.6-.8-1.4.3-.7.6-1.3.8-1.3.2 0 .5.6.8 1.3zm8.2 1.5c-.3.3-1.1 0-1.8-.7-.9-1-.8-1.1.6-.5 1 .3 1.5.9 1.2 1.2zm36.6 0c-.7.2-1.8-.1-2.3-.6-.8-.8-.4-.9 1.3-.5 1.3.4 1.8.8 1 1.1zm7.5 1.2c0 1.6-.4 3-.7 3-.4 0-.6-1.4-.5-3 0-1.7.4-3 .7-3 .4 0 .6 1.3.5 3zm11.8-2.1c.3.5-.2 1.5-1.2 2.2-1.5 1.2-1.6 1.2-.5-.2.7-.9 1-1.9.6-2.2-.3-.4-.4-.7 0-.7.3 0 .8.4 1.1.9zm146.3.6c0 .8-.4 1.2-.9.9-.5-.3-.6-1-.3-1.5.9-1.3 1.2-1.1 1.2.6zm6.3-1.1c0 .2-.7.7-1.6 1-.8.3-1.2.2-.9-.4.6-1 2.5-1.4 2.5-.6zm1.6 2.5c0 1.1-.5 1.7-1.3 1.4-1-.4-1.1-.9-.2-1.9 1.5-1.8 1.5-1.8 1.5.5zm-214 1.3c-.2 1.3 0 3 .5 3.9.5 1.1.4 1.6-.6 1.6-.8 0-1.1-.7-.7-1.6.5-1.4.4-1.4-1.4-.1-1.8 1.4-1.8 1.3.1-.9 1.1-1.3 1.9-2.5 1.8-2.7-.5-.7-.3-2.4.2-2.4.3 0 .3 1 .1 2.2zm27.9-1.3c-.9.8-3.6 1-3 .2.2-.4 1.1-.8 2-.8.8 0 1.3.3 1 .6zm9.2 1.3c-.3.8-.6.5-.6-.6-.1-1.1.2-1.7.5-1.3.3.3.4 1.2.1 1.9zm33-.5c0 .9-.4 1-1.3.2-.7-.6-1.9-.7-2.5-.3-.7.4-.9.3-.5-.4.9-1.5 4.3-1.1 4.3.5zm7.8-.7c.3.5.1 1-.4 1-.6 0-1.1-.5-1.1-1 0-.6.2-1 .4-1 .3 0 .8.4 1.1 1zm117.5-.6c0 .2-.8 1-1.7 1.7-1.6 1.3-1.7 1.2-.4-.4 1.3-1.6 2.1-2.1 2.1-1.3zm-5.5 1.6c.3.6-.1.7-.9.4-1.8-.7-2.1-1.4-.7-1.4.6 0 1.3.4 1.6 1zm-182.4 1.7c1.3 1.6 1.2 1.7-.3.4-1.7-1.3-2.2-2.1-1.4-2.1.2 0 1 .8 1.7 1.7zm11.1 1.9c-.9 1.6-1 1.4-.9-.8.1-1.5.6-2.3 1.1-1.8.4.4.4 1.6-.2 2.6zm9.2-.6c-.9 1.6-1.8 3-2 3-.3 0-.2-.5.1-1 .4-.6.1-1.8-.6-2.6-1-1.2-.9-1.3.4-.9.8.4 1.8.2 2.2-.4 1.4-2.3 1.3-1-.1 1.9zm5.1-2c.3.6-.1.7-.9.4-1.8-.7-2.1-1.4-.7-1.4.6 0 1.3.4 1.6 1zm22.7.9c-.5 1.4-.4 1.4 1.4.1 1.8-1.4 1.8-1.4.5.2-1.7 2.3-2.7 2.3-3.3 0-.3-1.1 0-1.9.7-1.9.8 0 1.1.7.7 1.6zm31.3-.9c.3.6-.1.7-.9.4-1.8-.7-2.1-1.4-.7-1.4.6 0 1.3.4 1.6 1zm84.8 1.5c-.7 2.1-1.2 1.9-1-.4 0-1.1.5-1.8.9-1.5.4.3.5 1.1.1 1.9zm52.4-1.9c-.3.3-1.2.4-1.9.1-.8-.3-.5-.6.6-.6 1.1-.1 1.7.2 1.3.5zm8 1.1c-1.4 1.4-1.9 1.5-2.9.4-1.1-1-1-1.1.3-.6 1 .4 2 .2 2.4-.4.3-.6.9-1.1 1.3-1.1.3 0-.1.8-1.1 1.7zm-210 .8c0 .8-.4 1.2-.9.9-.5-.3-.6-1-.3-1.5.9-1.3 1.2-1.1 1.2.6zm18.3-1.2c0 .2-.8 1.1-1.8 2-1.5 1.4-1.9 1.5-1.9.2 0-.8.4-1.2.8-.9.4.2 1 0 1.4-.6.6-1 1.5-1.4 1.5-.7zm53.1.6c0-1 .2-1.1.6-.1.2.6 1 .9 1.6.5.7-.3.9-.3.5.2-.4.4-.2 1.5.4 2.4.9 1.1.6 1-.9-.2-1.2-1.1-2.2-1.4-2.4-.8-.2.6-1 .1-1.8-1.1-1.3-2.1-1.3-2.2.2-.9 1.4 1.1 1.7 1.1 1.8 0zm10.5 2.8c-.7 3.8-1.4 3.8-1.2-.1 0-1.9.4-3.2.9-2.9.4.2.5 1.6.3 3zm41.8-.7c-.6.6-1 .3-1-1s.4-1.6 1-1c.7.7.7 1.3 0 2zm6.2 2.1c.1 2.2-.1 3.8-.4 3.5-.3-.3-.6-2.4-.7-4.6-.1-2.2.1-3.8.4-3.5.3.3.6 2.4.7 4.6zm14-3.6c-.1.8-.5 1.7-.8 2.1-.5.4-.4-1.6.1-3.4.3-.9.9.1.7 1.3zm3 .8c0 1.3-.6 2.4-1.3 2.4-.8 0-.8-.7 0-2.4 1.3-2.9 1.5-2.9 1.3 0zm50.6-.8c.3 0 .9.3 1.3.7.4.3 0 .5-.9.4-.9-.1-2.2-.8-2.9-1.6-1-1-.9-1.1.3-.4.8.5 1.8.9 2.2.9zm6.1 0c-.3.9-.8 1.4-1 1.1-.3-.3-.2-.9.2-1.5.9-1.6 1.5-1.3.8.4zm-210.7 2.3c-1.7 1.6-1.8 1.6-.5-.5.7-1.2 1.5-2 1.8-1.7.3.2-.3 1.2-1.3 2.2zm28.9-1c-.3.3-1.1 0-1.8-.7-.9-1-.8-1.1.6-.5 1 .3 1.5.9 1.2 1.2zm29.6-.1c1.3 1.6 1.2 1.7-.3.4-1.7-1.3-2.2-2.1-1.4-2.1.2 0 1 .8 1.7 1.7zm10.9-.5c0 .6-.3.8-.7.5-.3-.4-1.3-.1-2.2.6-1.4 1.1-1.4 1-.2-.6 1.5-2 3.1-2.2 3.1-.5zm30-.4c0 .5-.7.9-1.5.9s-1.2-.4-.9-.9c.3-.4.9-.8 1.5-.8.5 0 .9.4.9.8zm8.6 2c-1.7 1.6-1.8 1.6-.5-.5.7-1.2 1.5-2 1.8-1.7.3.2-.3 1.2-1.3 2.2zm3.1-.6c-.3.8-.6.5-.6-.6-.1-1.1.2-1.7.5-1.3.3.3.4 1.2.1 1.9zm3 0c-.3.8-.6.5-.6-.6-.1-1.1.2-1.7.5-1.3.3.3.4 1.2.1 1.9zm46.4.1c-1 .9-1.1.8-.5-.6.3-1 .9-1.5 1.2-1.2.3.3 0 1.1-.7 1.8zm18-.6c1.3 1.6 1.2 1.7-.3.4-1-.7-1.8-1.5-1.8-1.7 0-.8.8-.3 2.1 1.3zm10.9-.9c0 .5-.7.9-1.5.9s-1.2-.4-.9-.9c.3-.4.9-.8 1.5-.8.5 0 .9.4.9.8zm5.4.8c.3.8.2 1.2-.4.9-.6-.3-1-1-1-1.6 0-1.4.7-1.1 1.4.7zm3.7.7c-1 .9-1.1.8-.5-.6.3-1 .9-1.5 1.2-1.2.3.3 0 1.1-.7 1.8zm-81 .4c1.3 1.6 1.2 1.7-.3.4-1-.7-1.8-1.5-1.8-1.7 0-.8.8-.3 2.1 1.3zm27.2-.4c.3.8-.1 1.4-.8 1.4-.7 0-1.1-.6-.8-1.4.3-.7.6-1.3.8-1.3.2 0 .5.6.8 1.3zm48 0c.3.8-.1 1.4-.8 1.4-.7 0-1.1-.6-.8-1.4.3-.7.6-1.3.8-1.3.2 0 .5.6.8 1.3zm9 0c.3.8-.1 1.4-.8 1.4-.7 0-1.1-.6-.8-1.4.3-.7.6-1.3.8-1.3.2 0 .5.6.8 1.3zm-115.8.7c-.3.5-1.2 1-1.8 1-.7 0-.6-.4.3-1 1.9-1.2 2.3-1.2 1.5 0zm36 0c-.3.5-1.2 1-1.8 1-.7 0-.6-.4.3-1 1.9-1.2 2.3-1.2 1.5 0zM236 515.5c0 .1-.6.7-1.3 1.3-1 .8-1.3.6-1.3-.7 0-1.1.6-1.7 1.3-1.4.7.3 1.3.6 1.3.8zm12.7 3c0 .8-.4 1.2-.9.9-.5-.4-.7-.9-.4-1.2.3-.3-.2-1.5-1.1-2.6-1.8-2.1-1.8-2.1.3-.3 1.1.9 2.1 2.4 2.1 3.2zm29.9-2.6c0 1.1-.5 1.7-1.3 1.4-1-.4-1.1-.9-.2-1.9 1.5-1.8 1.5-1.8 1.5.5zm7.1-1.3c-.3.3-1.2.4-1.9.1-.8-.3-.5-.6.6-.6 1.1-.1 1.7.2 1.3.5zm28.3.9c-.6.8-.9 1.9-.5 2.4.4.7 0 .8-1 .5-1.4-.6-1.4-.8.1-2.5 2-2.2 3.2-2.6 1.4-.4zm29.5.3c-.3.3-1.1 0-1.8-.7-.9-1-.8-1.1.6-.5 1 .3 1.5.9 1.2 1.2zm35.4-.5c.8 1 .7 1.4-.2 1.4-.8 0-1.4-.6-1.4-1.4 0-.7.1-1.3.2-1.3.2 0 .8.6 1.4 1.3zm19.7.6c0 1.1-.5 1.7-1.3 1.4-1-.4-1.1-.9-.2-1.9 1.5-1.8 1.5-1.8 1.5.5zm28.5-.2c.8.9.9 1.4.2 1-.6-.4-1.3-.1-1.6.5-.3.7-.4.3-.4-1 .1-2.6.1-2.6 1.8-.5zM208.7 517c-.1 1.1-.5 2-.9 2-.3 0-.6-.9-.5-2 .1-1.1.5-2 .9-2 .3 0 .6.9.5 2zm45.9-.8c.3.4-.1.5-1 .4-.8-.1-1.8-.5-2.2-.8-.3-.4.1-.5 1-.4.8.1 1.8.5 2.2.8zm4.8-.4c.3.5-.1.9-.9.9s-1.2-.4-.9-.9c.3-.4.7-.8.9-.8.2 0 .6.4.9.8zm5.7.5c-.6.8-.7 1.8-.3 2.2.4.5.1.5-.6.1-1-.6-1-1.1-.1-2.2.6-.8 1.4-1.4 1.6-1.4.3 0 0 .6-.6 1.3zm61.6.4c0 .9-.4 1-1.4.2-.7-.6-1.3-1.2-1.3-1.4 0-.1.6-.2 1.3-.2.8 0 1.4.6 1.4 1.4zm5.3-1.1c0 .8-1.9 1.3-2.4.6-.3-.5.1-.9.9-.9s1.5.2 1.5.3zm30.1 1.7c-1 .9-1.1.8-.5-.6.3-1 .9-1.5 1.2-1.2.3.3 0 1.1-.7 1.8zm4.3-.7c.3.8.2 1.2-.4.9-.6-.3-1-1-1-1.6 0-1.4.7-1.1 1.4.7zm18.6-.2c-.4.4-1.6.4-2.6-.2-1.6-.9-1.4-1 .8-.9 1.5.1 2.3.6 1.8 1.1zm25.1.9c-1 .9-1.1.8-.5-.6.3-1 .9-1.5 1.2-1.2.3.3 0 1.1-.7 1.8zm4.3-.7c.3.8.2 1.2-.4.9-.6-.3-1-1-1-1.6 0-1.4.7-1.1 1.4.7zm-169.8.3c-.4.5 0 1.1.6 1.4.7.3.3.4-.9.4-1.7-.1-1.9-.4-1.1-1.4 1.2-1.5 2.2-1.8 1.4-.4zm24.2.4c.8 1 .6 1.3-1.1 1.4-1.2 0-1.6-.1-.9-.4.6-.3 1-.9.6-1.4-.8-1.4.2-1.1 1.4.4zm120 0c.8 1 .6 1.3-.7 1.3-1.1 0-1.7-.6-1.4-1.3.3-.7.6-1.3.8-1.3.1 0 .7.6 1.3 1.3zm-175.8.1c0 .2-.7.7-1.6 1-.8.3-1.2.2-.9-.4.6-1 2.5-1.4 2.5-.6zm4.7 1.1c.4.4.3.5-.4.2-.6-.4-1.3-.2-1.5.5-.3.8-.6.6-1-.4-.7-1.7 1.5-1.9 2.9-.3zm36.5-.1c1-.6 1.1-.4 0 .7-1 1.1-1.5 1-3-.6-1.5-1.7-1.5-1.8 0-.6.9.7 2.3.9 3 .5zm7.8-1c0 .2-.8 1-1.7 1.7-1.6 1.3-1.7 1.2-.4-.4 1.3-1.6 2.1-2.1 2.1-1.3zm36 .2c0 .8-1.9 1.3-2.4.6-.3-.5.1-.9.9-.9s1.5.2 1.5.3zm3.5.4c.3.6-.1.7-.9.4-1.8-.7-2.1-1.4-.7-1.4.6 0 1.3.4 1.6 1zm8.2-.4c-.3.3-1.2.4-1.9.1-.8-.3-.5-.6.6-.6 1.1-.1 1.7.2 1.3.5zm35.3-.2c0 .2-.7.7-1.6 1-.8.3-1.2.2-.9-.4.6-1 2.5-1.4 2.5-.6zm3.7.2c-.3.3-1.2.4-1.9.1-.8-.3-.5-.6.6-.6 1.1-.1 1.7.2 1.3.5zm32 1.2c-2 2.2-4.8 2.5-4 .4.4-.9.8-1 1.3-.2s1.1.6 2-.5c.7-.8 1.5-1.5 1.8-1.5.3 0-.2.8-1.1 1.8zm-153.9 1.7c-.3.3-.9-.2-1.2-1.2-.6-1.4-.5-1.5.5-.6.7.7 1 1.5.7 1.8zm30.7-.6c-.3.6-1.1 1.1-1.6 1.1s-.4-.6.3-1.4c1.4-1.6 2.4-1.3 1.3.3zm19.5.2c0 .5-.4.9-.8.9-.5 0-.9-.7-.9-1.5s.4-1.2.9-.9c.4.3.8.9.8 1.5zm9.3-.6c-.3.9-.8 1.4-1 1.1-.3-.3-.2-.9.2-1.5.9-1.6 1.5-1.3.8.4zm-62.9.7c-.3.4-.9.8-1.5.8-.5 0-.9-.4-.9-.8 0-.5.7-.9 1.5-.9s1.2.4.9.9zm13.1-.2c.3.5.1 1-.4 1-.6 0-1.1-.5-1.1-1 0-.6.2-1 .4-1 .3 0 .8.4 1.1 1zm26.2.5c0 .8-.4 1.2-.9.9-.5-.3-.6-1-.3-1.5.9-1.3 1.2-1.1 1.2.6zm28.3-.7c0 .4-1 .9-2.2.9-1.8.2-2 0-.8-.7 1.8-1.2 3-1.3 3-.2zm28.5.1c-.3.2-1.6.6-2.8.8-1.5.2-1.8 0-.9-.5 1.4-.9 4.5-1.2 3.7-.3zm21.3.6c.3.3-.4.4-1.6.2-1.2-.2-2.4-.6-2.8-1-.4-.3.4-.4 1.6-.2 1.2.2 2.5.7 2.8 1zm28.1 0c.3.3-.7.4-2.3.1-1.6-.3-3.1-.8-3.5-1.1-.3-.3.7-.4 2.3-.1 1.6.3 3.1.8 3.5 1.1zm48 0c.3.3-.7.4-2.3.1-1.6-.3-3.1-.8-3.5-1.1-.3-.3.7-.4 2.3-.1 1.6.3 3.1.8 3.5 1.1zm-119.6.9c.6 1.5-1.7 1.6-3 .1-.4-.4-.2-.5.5-.1.6.4 1.2.2 1.2-.3 0-1.5.7-1.4 1.3.3zm-84.8 1.4c-.3.3-1.1 0-1.8-.7-.9-1-.8-1.1.6-.5 1 .3 1.5.9 1.2 1.2zm5-.9c-.9.8-3.6 1-3 .2.2-.4 1.1-.8 2-.8.8 0 1.3.3 1 .6zm87.2 1.1c-.1 1.1-.5 2-.9 2-.3 0-.6-.9-.5-2 .1-1.1.5-2 .9-2 .3 0 .6.9.5 2zm24.7-1.2c.2.4-.4.8-1.4.8-1 0-1.6-.4-1.4-.8.3-.4.9-.8 1.4-.8.5 0 1.1.4 1.4.8zm32.1.2c-.4.6-.1 1.9.6 2.8 1 1.3.8 1.2-.9-.2-1.7-1.5-1.9-2.2-1-2.8 1.7-1 2-1 1.3.2zm48 0c-.3.5-1.2 1-1.8 1-.7 0-.6-.4.3-1 1.9-1.2 2.3-1.2 1.5 0zm15.5-.6c0 .2-.7.7-1.6 1-.8.3-1.2.2-.9-.4.6-1 2.5-1.4 2.5-.6zm-216.9 2c.5-.3.9 0 .9.6 0 1.5-2.3.7-2.6-.8-.1-.7 0-.8.3-.2.2.5.9.8 1.4.4zm17.9.1c-.6.8-.9 1.9-.5 2.4.4.7 0 .8-1 .5-1.4-.6-1.4-.8.1-2.5 2-2.2 3.2-2.6 1.4-.4zm9-1.1c0 .2-.8 1-1.7 1.7-1.6 1.3-1.7 1.2-.4-.4 1.3-1.6 2.1-2.1 2.1-1.3zm44.1 1.3c1.3 1.6 1.2 1.7-.3.4-1.7-1.3-2.2-2.1-1.4-2.1.2 0 1 .8 1.7 1.7zm8.7.6c2 2.1 2 2.3.2 2.3-1 0-1.6-.4-1.3-.9.2-.4-.1-1.4-.7-2.2-2-2.4-.6-1.7 1.8.8zm27 .2c-.3.3-.9-.2-1.2-1.2-.6-1.4-.5-1.5.5-.6.7.7 1 1.5.7 1.8zm3.5-1c-.3.9-.8 1.4-1 1.1-.3-.3-.2-.9.2-1.5.9-1.6 1.5-1.3.8.4zm20.5 1c-.3.3-.9-.2-1.2-1.2-.6-1.4-.5-1.5.5-.6.7.7 1 1.5.7 1.8zm3.5-1c-.3.9-.8 1.4-1 1.1-.3-.3-.2-.9.2-1.5.9-1.6 1.5-1.3.8.4zm15.4-.9c-.3.3-1.2.4-1.9.1-.8-.3-.5-.6.6-.6 1.1-.1 1.7.2 1.3.5zm13 1.6c-.3.8-.6.5-.6-.6-.1-1.1.2-1.7.5-1.3.3.3.4 1.2.1 1.9zm7.3-.7c-.6.8-.8 2-.4 2.7.5 1 .4 1-.6.1-1.1-1-1.1-1.5 0-2.8.7-.8 1.5-1.5 1.7-1.5.3 0 0 .7-.7 1.5zm20.7-.2c0 .8-.6 1.4-1.4 1.4-.9 0-1-.4-.2-1.4.6-.7 1.2-1.3 1.4-1.3.1 0 .2.6.2 1.3zm7-.7c-.3.3-1.2.4-1.9.1-.8-.3-.5-.6.6-.6 1.1-.1 1.7.2 1.3.5zm-112 2.6c-.3.8-.6.5-.6-.6-.1-1.1.2-1.7.5-1.3.3.3.4 1.2.1 1.9zm27.4-.9c-.6.8-.7 1.8-.3 2.2.4.5.1.5-.6.1-1-.6-1-1.1-.1-2.2.6-.8 1.4-1.4 1.6-1.4.3 0 0 .6-.6 1.3zm14.8.1c.9 1.1.9 1.6-.1 2.2-.7.4-1 .4-.6-.1.4-.4.3-1.4-.3-2.2-.6-.7-.9-1.3-.6-1.3.2 0 1 .6 1.6 1.4zm16.5.8c.1.7.5 2 1 2.8.7 1.2.6 1.3-.4.3-.8-.7-1.5-2.3-1.7-3.5-.2-1.2-.1-1.9.3-1.6.3.3.6 1.2.8 2zm-123.9-.3c.3.5.2 1.2-.3 1.5-.5.3-.9-.1-.9-.9 0-1.7.3-1.9 1.2-.6zm8.3.4c.8 1 .6 1.3-1.1 1.4-1.2 0-1.6-.1-.9-.4.6-.3 1-.9.6-1.4-.8-1.4.2-1.1 1.4.4zm39.9 0c0 .8-.6 1.4-1.4 1.4-.9 0-1-.4-.2-1.4.6-.7 1.2-1.3 1.4-1.3.1 0 .2.6.2 1.3zm48.1 0c.8 1 .6 1.3-.7 1.3-1.1 0-1.7-.6-1.4-1.3.3-.7.6-1.3.8-1.3.1 0 .7.6 1.3 1.3zm7.8-.4c-.4.5 0 1.1.6 1.4.7.3.3.4-.9.4-1.7-.1-1.9-.4-1.1-1.4 1.2-1.5 2.2-1.8 1.4-.4zm53.9.1c.3.6-.1.7-.9.4-1.8-.7-2.1-1.4-.7-1.4.6 0 1.3.4 1.6 1zm24 0c.3.6-.1.7-.9.4-1.8-.7-2.1-1.4-.7-1.4.6 0 1.3.4 1.6 1zm-194.4 1.7c1.3 1.6 1.2 1.7-.3.4-1.7-1.3-2.2-2.1-1.4-2.1.2 0 1 .8 1.7 1.7zm36.6-1.1c-.3.3-1.2.4-1.9.1-.8-.3-.5-.6.6-.6 1.1-.1 1.7.2 1.3.5zm8.6 1.4c-.3 1.2-.8 1.9-1.1 1.6-.5-.6.5-3.6 1.2-3.6.2 0 .2.9-.1 2zm36.7-1.6c0 .2-.8 1-1.7 1.7-1.6 1.3-1.7 1.2-.4-.4 1.3-1.6 2.1-2.1 2.1-1.3zm14.5 2.2c0 2.5-1 2.3-1.7-.4-.3-1 0-1.9.6-1.9s1.1 1 1.1 2.3zm32.8-.6c-.3 1.2-.8 1.9-1.1 1.6-.5-.6.5-3.6 1.2-3.6.2 0 .2.9-.1 2zm50.6-.6c.9 1.1.9 1.6-.1 2.2-.7.4-1 .4-.6-.1.4-.4.3-1.4-.3-2.2-.6-.7-.9-1.3-.6-1.3.2 0 1 .6 1.6 1.4zm23.1-.8c0 .8-1.9 1.3-2.4.6-.3-.5.1-.9.9-.9s1.5.2 1.5.3zm-200.8 3.6c-.8.8-.9.4-.5-1.3.4-1.3.8-1.8 1.1-1 .2.7-.1 1.8-.6 2.3zm24.1-2.4c.3-.7.4-.3.4.9-.1 1.3-.2 2.3-.3 2.3 0 0-.9-1-2-2.2-1.3-1.6-1.4-1.9-.2-1 1.3 1 1.7 1 2.1 0zm12 .7c-.3.9-.8 1.4-1 1.1-.3-.3-.2-.9.2-1.5.9-1.6 1.5-1.3.8.4zm17.5-.2c1.8-.6 1.7-.5-.8 1.4-1.3 1-1.6.8-1.7-1 0-1.2.1-1.7.4-1 .2.7 1.2.9 2.1.6zm8.8 1c.1.9-.2 1.5-.7 1.1-.5-.3-.7-.9-.4-1.4.3-.4 0-1.1-.5-1.3-.6-.3-.5-.4.1-.3.7.1 1.3 1 1.5 1.9zm34.1-.8c0 .8-.4 1.2-.9.9-.5-.3-.6-1-.3-1.5.9-1.3 1.2-1.1 1.2.6zm7.1 2.1c.1.1-.6.4-1.8.7-1.1.3-1.7.1-1.4-.4.3-.6 0-1.8-.7-2.7-1-1.2-.7-1.2 1.1.3 1.4 1.1 2.6 2 2.8 2.1zm16.9-1.4c0 1.3-.1 1.7-.4 1-.4-1-.8-1-2.1 0-1.2.9-1.1.6.2-1 1.1-1.2 2-2.2 2-2.2.1 0 .2 1 .3 2.2zm4.1.3c-.3.3-.9-.2-1.2-1.2-.6-1.4-.5-1.5.5-.6.7.7 1 1.5.7 1.8zm15.9-1c0 .8-.4 1.2-.9.9-.5-.3-.6-1-.3-1.5.9-1.3 1.2-1.1 1.2.6zm39.5 1.7c-.8.8-.9.4-.5-1.3.4-1.3.8-1.8 1.1-1 .2.7-.1 1.8-.6 2.3zm-173.7.6c-.3.3 0 1 .5 1.7.7.8.5 1.2-.4 1.2-.8 0-1.3-.7-1.1-1.6.1-.9-.3-2.3-.9-3.1-1-1.3-.9-1.3.7-.1.9.8 1.5 1.6 1.2 1.9zm21.6-.5c-1 .9-1.1.8-.5-.6.3-1 .9-1.5 1.2-1.2.3.3 0 1.1-.7 1.8zm3.2-.3c.3 1.1.1 1.8-.4 1.4-.5-.3-.9-1.2-.9-2 0-2 .7-1.7 1.3.6zm17.1-.3c.3.8.1 1.1-.5.8-.5-.4-1.8-.1-2.7.7-1.5 1.1-1.5 1.1-.5-.3.7-.9 1.1-1.8.8-2.1-.3-.2.2-.5 1-.5s1.7.7 1.9 1.4zm28-.1c.3.8.2 1.2-.4.9-.6-.3-1-1-1-1.6 0-1.4.7-1.1 1.4.7zm5.7.1c1.2 1.6 1.2 1.7-.2.6-.9-.7-2-.9-2.4-.5-.5.4-.5.1-.1-.6.9-1.6 1.1-1.5 2.7.5zm50.3-.1c.3.8.2 1.2-.4.9-.6-.3-1-1-1-1.6 0-1.4.7-1.1 1.4.7zm14.1.2c-.3.3-1.1 0-1.8-.7-.9-1-.8-1.1.6-.5 1 .3 1.5.9 1.2 1.2zm20.2-1.2c-.2.3-1.7.7-3.3 1-1.7.2-2.4.1-1.7-.4 1.3-.8 5.8-1.4 5-.6zm1.4 1.7c-1 .9-1.1.8-.5-.6.3-1 .9-1.5 1.2-1.2.3.3 0 1.1-.7 1.8zm22.6-.8c0 .8-.4 1.2-.9.9-.5-.3-.6-1-.3-1.5.9-1.3 1.2-1.1 1.2.6zm-187.4.8c.3.8-.1 1.4-.8 1.4-.7 0-1.1-.6-.8-1.4.3-.7.6-1.3.8-1.3.2 0 .5.6.8 1.3zm67.3.2c-.1.8-.5 1.7-.8 2.1-.5.4-.4-1.6.1-3.4.3-.9.9.1.7 1.3zm2.5.8c-1 .9-1.1.8-.5-.6.3-1 .9-1.5 1.2-1.2.3.3 0 1.1-.7 1.8zm-62.3.4c-.6.7-1.2 1.3-1.3 1.3-.2 0-.5-.6-.8-1.3-.3-.7.3-1.3 1.4-1.3 1.3 0 1.5.3.7 1.3zm8.4-1c-.6.3-.9 1-.5 1.6.4.7-.1.6-1-.2-2.1-1.7-2.1-1.7.6-1.8 1.2 0 1.6.1.9.4zm3.2.2c.3.5-.2 1.5-1.2 2.2-1.5 1.2-1.6 1.2-.5-.2.7-.9 1-1.9.6-2.2-.3-.4-.4-.7 0-.7.3 0 .8.4 1.1.9zm20.1.9c-.3.3-1.1 0-1.8-.7-.9-1-.8-1.1.6-.5 1 .3 1.5.9 1.2 1.2zm12.2-1.1c-.4.3.1 1.6 1 2.7 1.8 2.1 1.8 2.1-.4.2-2-1.6-2.3-3.6-.6-3.6.4 0 .3.3 0 .7zm4.1 1c-1.2 1.5-2.2 1.8-1.4.4.4-.5 0-1.1-.6-1.4-.7-.3-.3-.4.9-.4 1.7.1 1.9.4 1.1 1.4zm8 0c-.6.7-1.2 1.3-1.3 1.3-.2 0-.5-.6-.8-1.3-.3-.7.3-1.3 1.4-1.3 1.3 0 1.5.3.7 1.3zm39.7-.8c.3.5.2 1.2-.3 1.5-.5.3-.9-.1-.9-.9 0-1.7.3-1.9 1.2-.6zm8.3.8c-1.2 1.5-2.2 1.8-1.4.4.4-.5 0-1.1-.6-1.4-.7-.3-.3-.4.9-.4 1.7.1 1.9.4 1.1 1.4zm-32.8.8c0 .1-.6.7-1.3 1.3-1 .8-1.3.6-1.3-.7 0-1.1.6-1.7 1.3-1.4.7.3 1.3.6 1.3.8zm10.7-.2c0 .8-.6 1.4-1.4 1.4-.9 0-1-.4-.2-1.4.6-.7 1.2-1.3 1.4-1.3.1 0 .2.6.2 1.3zm38-.7c-.3.3-1.2.4-1.9.1-.8-.3-.5-.6.6-.6 1.1-.1 1.7.2 1.3.5zm7.3.9c0 .1-.6.7-1.3 1.3-1 .8-1.3.6-1.3-.7 0-1.1.6-1.7 1.3-1.4.7.3 1.3.6 1.3.8zm11.8.8l2.2 2.3-2.3.1c-1.2 0-1.6-.1-.9-.4 1-.4.9-.9-.4-2.4-2.4-2.7-1.2-2.4 1.4.4zm28.2-.8c0 .1-.6.7-1.3 1.3-1 .8-1.3.6-1.3-.7 0-1.1.6-1.7 1.3-1.4.7.3 1.3.6 1.3.8zm10.7.7c0 1.3-.1 1.7-.4 1-.3-.6-1-.9-1.6-.5-.7.4-.6-.1.2-1 1.7-2.1 1.7-2.1 1.8.5zm-164.6 1.1c-1 .9-1.1.8-.5-.6.3-1 .9-1.5 1.2-1.2.3.3 0 1.1-.7 1.8zm4.3-.7c.3.8.2 1.2-.4.9-.6-.3-1-1-1-1.6 0-1.4.7-1.1 1.4.7zm10.6-.6c0 .5-.4 1-1 1-.5 0-1-.5-1-1 0-.6.5-1 1-1 .6 0 1 .4 1 1zm9.1 1.3c-1 .9-1.1.8-.5-.6.3-1 .9-1.5 1.2-1.2.3.3 0 1.1-.7 1.8zm38.3-.7c.3.8.2 1.2-.4.9-.6-.3-1-1-1-1.6 0-1.4.7-1.1 1.4.7zm17.7.1c1.3 1.6 1.2 1.7-.3.4-1.7-1.3-2.2-2.1-1.4-2.1.2 0 1 .8 1.7 1.7zm8 0c1.3 1.6 1.2 1.7-.3.4-1-.7-1.8-1.5-1.8-1.7 0-.8.8-.3 2.1 1.3zm43.6.5c-.3.8-.6.5-.6-.6-.1-1.1.2-1.7.5-1.3.3.3.4 1.2.1 1.9zM401 532c0 .5-.4 1-1 1-.5 0-1-.5-1-1 0-.6.5-1 1-1 .6 0 1 .4 1 1zm-36.3 1.3c0 .8-.6 1.4-1.4 1.4-.9 0-1-.4-.2-1.4.6-.7 1.2-1.3 1.4-1.3.1 0 .2.6.2 1.3zm-142.7.1c0 .2-.8 1-1.7 1.7-1.6 1.3-1.7 1.2-.4-.4 1.3-1.6 2.1-2.1 2.1-1.3zm11 1c-.7.7-1.3.7-2 0-.6-.6-.3-1 1-1s1.6.4 1 1zm77.2.5c.3-.9.6-.9 1 .2.9 2.3-1.9 1.9-3.9-.5-1.8-2.1-1.8-2.1.3-.3 1.6 1.3 2.3 1.5 2.6.6zm10.3-.1c-.3.3-1.1 0-1.8-.7-.9-1-.8-1.1.6-.5 1 .3 1.5.9 1.2 1.2zm68.2-1.2c-.3.3-1.2.4-1.9.1-.8-.3-.5-.6.6-.6 1.1-.1 1.7.2 1.3.5zm-30.3 3.4c-.6.6-1 .3-1-1s.4-1.6 1-1c.7.7.7 1.3 0 2zm27.7-.4c.8 1 .3 1-2-.2-1.7-.9-3.1-1.7-3.1-1.9 0-.8 4 .9 5.1 2.1zm4.5-1.7c-.4.5-.1 1.1.6 1.3.8.3.6.6-.4 1-1.1.5-1.5.2-1.3-1 .5-2.3.4-2.2 1.1-2.2.3 0 .3.4 0 .9zm-145.9.7c-.8.8-4.8 1.3-4.3.6.2-.4 1.4-.8 2.6-.9 1.2-.1 2 0 1.7.3zm26.9.7c.4.3-.4.4-1.6.2-3-.6-4-1.6-1.2-1.2 1.2.2 2.4.6 2.8 1zm50.5 1c-1 .9-1.1.8-.5-.6.3-1 .9-1.5 1.2-1.2.3.3 0 1.1-.7 1.8zm10.9-1.9c0 .3-.4.8-1 1.1-.5.3-1 .1-1-.4 0-.6.5-1.1 1-1.1.6 0 1 .2 1 .4zm41.4 1.2c.3.8.2 1.2-.4.9-.6-.3-1-1-1-1.6 0-1.4.7-1.1 1.4.7zm20 0c.3.8.2 1.2-.4.9-.6-.3-1-1-1-1.6 0-1.4.7-1.1 1.4.7zm-49.7.9c0 .8-1 2.3-2.1 3.2-2.1 1.8-2.1 1.8-.2-.5 1.1-1.2 1.6-2.2 1.2-2.2-.4 0-.4-.5-.1-1 .9-1.4 1.2-1.3 1.2.5zm5.9-.3c.4.7.3.8-.5.4-.6-.4-2-.2-2.9.6-1.5 1.2-1.6 1.1-.3-.5 1.6-2 2.7-2.2 3.7-.5zm18.1.3c0 .8-1 2.3-2.1 3.2-2.1 1.8-2.1 1.8-.2-.5 1.4-1.6 1.6-2.2.5-2.2s-1.1-.2.1-1c.8-.5 1.5-1 1.6-1 0 0 .1.7.1 1.5zm2.4.8c-1 .9-1.1.8-.5-.6.3-1 .9-1.5 1.2-1.2.3.3 0 1.1-.7 1.8zm-122.6.5c-.3.3-1.1 0-1.8-.7-.9-1-.8-1.1.6-.5 1 .3 1.5.9 1.2 1.2zm17-.8c-.3.5-1.4 1-2.3.9-1.4 0-1.3-.2.3-.9 2.7-1.1 2.7-1.1 2 0zm47.2.7c-1.4 1.4-1.9 1.5-2.9.4-1.1-1-1-1.1.3-.6 1 .4 2 .2 2.4-.4.3-.6.9-1.1 1.3-1.1.3 0-.1.8-1.1 1.7zm28.5-1c-.6.3-.9 1-.5 1.6.4.7-.1.6-1-.2-2.1-1.7-2.1-1.7.6-1.8 1.2 0 1.6.1.9.4zm23.5 1c0 .9-.4 1-1.4.2-.7-.6-1.3-1.2-1.3-1.4 0-.1.6-.2 1.3-.2.8 0 1.4.6 1.4 1.4zm15.8.1c-.3.3-1.1 0-1.8-.7-.9-1-.8-1.1.6-.5 1 .3 1.5.9 1.2 1.2zm3.9-1c.3.5-.1.9-.9.9s-1.2-.4-.9-.9c.3-.4.7-.8.9-.8.2 0 .6.4.9.8zm-153.7 1.5c0 .8-.6 1.4-1.4 1.4-.9 0-1-.4-.2-1.4.6-.7 1.2-1.3 1.4-1.3.1 0 .2.6.2 1.3zm22-.7c-.3.3-1.2.4-1.9.1-.8-.3-.5-.6.6-.6 1.1-.1 1.7.2 1.3.5zm30.4 1.1c.8.9.9 1.4.2 1-.6-.4-1.3-.1-1.6.5-.3.7-.4.3-.4-1 .1-2.6.1-2.6 1.8-.5zm6.9-.2c-1.4 1.7-3 2-3 .4 0-.5.4-.8.9-.4.5.3 1.2.1 1.6-.5.3-.5.9-1 1.2-1 .3 0 0 .7-.7 1.5zm27.7.7c-.3.8-.6.5-.6-.6-.1-1.1.2-1.7.5-1.3.3.3.4 1.2.1 1.9zm13.2-.8c.9 1 .8 1.5-.2 1.9-.8.3-1.3-.3-1.3-1.4 0-2.3 0-2.3 1.5-.5zm24 0c.9 1 .8 1.5-.2 1.9-.8.3-1.3-.3-1.3-1.4 0-2.3 0-2.3 1.5-.5zM227 540c0 .5-.2 1-.4 1-.3 0-.8-.5-1.1-1-.3-.6-.1-1 .4-1 .6 0 1.1.4 1.1 1zm8.4-.2c.3.5-.1.9-.9.9s-1.2-.4-.9-.9c.3-.4.7-.8.9-.8.2 0 .6.4.9.8zm31.3 1.4c-.3.8-.6.5-.6-.6-.1-1.1.2-1.7.5-1.3.3.3.4 1.2.1 1.9zm11.9-1c.3.4-.1.5-1 .4-.8-.1-1.8-.5-2.2-.8-.3-.4.1-.5 1-.4.8.1 1.8.5 2.2.8zm71.9-.3c-.9.8-3.6 1-3 .2.2-.4 1.1-.8 2-.8.8 0 1.3.3 1 .6zm26.2 1.1c-.2 1.1-.6 2.2-.9 2.6-.4.3-.5-.2-.3-1.3.2-1 .4-2.1.4-2.6.1-.4.3-.7.6-.7s.4.9.2 2zm17.4.3c-1 .9-1.1.8-.5-.6.3-1 .9-1.5 1.2-1.2.3.3 0 1.1-.7 1.8zm-146.1-.9c0 .2-.7.7-1.6 1-.8.3-1.2.2-.9-.4.6-1 2.5-1.4 2.5-.6zm44.9.9c.8 1 .7 1.4-.2 1.4-.8 0-1.4-.6-1.4-1.4 0-.7.1-1.3.2-1.3.2 0 .8.6 1.4 1.3zm7.9 0c.8 1 .6 1.3-.7 1.3-1.1 0-1.7-.6-1.4-1.3.3-.7.6-1.3.8-1.3.1 0 .7.6 1.3 1.3zm-64 1.7c-.7 1-1.4 1.7-1.7 1.5-.4-.4 1.8-3.5 2.5-3.5.2 0-.1.9-.8 2zm4.7-1c.3.6-.1.7-.9.4-1.8-.7-2.1-1.4-.7-1.4.6 0 1.3.4 1.6 1zm15.5-.1c0 .6-.4 1.2-.8 1.5-.5.3-.9-.1-.9-.9s.4-1.5.9-1.5c.4 0 .8.4.8.9zm16-.5c0 .2-.7.7-1.6 1-.8.3-1.2.2-.9-.4.6-1 2.5-1.4 2.5-.6zm5 1.1c.5-.3 1-.4 1-.1 0 .3-1 1.1-2.2 1.7-1.3.6-2 .8-1.6.4.4-.5.2-1.5-.5-2.4-1-1.4-1-1.4.5-.3.9.8 2.2 1.1 2.8.7zm8-1.1c0 .2-.8 1-1.7 1.7-1.6 1.3-1.7 1.2-.4-.4 1.3-1.6 2.1-2.1 2.1-1.3zm35 0c0 .2-.7.7-1.6 1-.8.3-1.2.2-.9-.4.6-1 2.5-1.4 2.5-.6zm2.8 2.1c-.3.3-.9-.2-1.2-1.2-.6-1.4-.5-1.5.5-.6.7.7 1 1.5.7 1.8zm57.2-2.1c0 .2-.7.7-1.6 1-.8.3-1.2.2-.9-.4.6-1 2.5-1.4 2.5-.6zm-147.3 2.8c-.3.8-.6.5-.6-.6-.1-1.1.2-1.7.5-1.3.3.3.4 1.2.1 1.9zm15-1.6c-.3.4-.2 1.6.4 2.8.9 1.9.9 1.9-.4.4-.9-1.2-1.7-1.4-2.4-.7-.6.6-1 .5-1-.5 0-.8.4-1.3.8-1 .4.2 1 0 1.4-.6.3-.5.9-1 1.2-1 .4 0 .3.3 0 .6zm17.5.9c.2-.3.5.2.5 1 0 1-.4 1.2-1.2.5-.7-.5-1.4-.8-1.7-.5-.2.3-.5-.2-.5-1 0-1 .4-1.2 1.2-.5.7.5 1.4.8 1.7.5zm30.8-1.1c0 .2-.8 1-1.7 1.7-1.6 1.3-1.7 1.2-.4-.4 1.3-1.6 2.1-2.1 2.1-1.3zm29.3 1.6c-.3 1.2-.8 1.9-1.1 1.6-.5-.6.5-3.6 1.2-3.6.2 0 .2.9-.1 2zm-88.2 1.3c-1 .9-1.1.8-.5-.6.3-1 .9-1.5 1.2-1.2.3.3 0 1.1-.7 1.8zm35.2-.3c.3 1.1.1 1.8-.4 1.4-.5-.3-.9-1.2-.9-2 0-2 .7-1.7 1.3.6zm8-.8c-.4.7-.8 1.9-.9 2.6-.2.8-.5 1.7-.8 2-.9.8-.2-3 .7-4.6.5-.6 1-1.2 1.3-1.2.3 0 .2.6-.3 1.2zm31.4.3c0 .8-.4 1.2-.9.9-.5-.3-.6-1-.3-1.5.9-1.3 1.2-1.1 1.2.6zm19.3-.9c0 .8-1.9 1.3-2.4.6-.3-.5.1-.9.9-.9s1.5.2 1.5.3zm8.7.9c0 .8-.4 1.2-.9.9-.4-.3-.8-.9-.8-1.5 0-.5.4-.9.8-.9.5 0 .9.7.9 1.5zm18.7-.7c.3.5-.1.9-.9.9s-1.2-.4-.9-.9c.3-.4.7-.8.9-.8.2 0 .6.4.9.8zm22.3 1.4c-.3.8-.6.5-.6-.6-.1-1.1.2-1.7.5-1.3.3.3.4 1.2.1 1.9zm7-1.6c-.2.3-1.7.7-3.3 1-1.7.2-2.4.1-1.7-.4 1.3-.8 5.8-1.4 5-.6zm-59.6 2.1c1.3 1.6 1.2 1.7-.3.4-1.7-1.3-2.2-2.1-1.4-2.1.2 0 1 .8 1.7 1.7zm-51.6.3c-.3.5-1.2 1-1.8 1-.7 0-.6-.4.3-1 1.9-1.2 2.3-1.2 1.5 0zm28 0c-.4.6-.1 1.9.6 2.8 1.2 1.6 1.2 1.6-.5 0-1.6-1.4-1.5-3.8 0-3.8.3 0 .2.5-.1 1zm3-.1c.3.5.2 1.2-.3 1.5-.5.3-.9-.1-.9-.9 0-1.7.3-1.9 1.2-.6zm8.3.8c-1.2 1.5-2.2 1.8-1.4.4.4-.5 0-1.1-.6-1.4-.7-.3-.3-.4.9-.4 1.7.1 1.9.4 1.1 1.4zm37.2-1.1c0 .8-1.9 1.3-2.4.6-.3-.5.1-.9.9-.9s1.5.2 1.5.3zm35.5.4c-.3.5-1.2 1-1.8 1-.7 0-.6-.4.3-1 1.9-1.2 2.3-1.2 1.5 0zm-124.8.6c-.3.3-1.2.4-1.9.1-.8-.3-.5-.6.6-.6 1.1-.1 1.7.2 1.3.5zm29.6.9c-.3.9-.8 1.4-1 1.1-.3-.3-.2-.9.2-1.5.9-1.6 1.5-1.3.8.4zm4.5 1c-.3.3-.9-.2-1.2-1.2-.6-1.4-.5-1.5.5-.6.7.7 1 1.5.7 1.8zm40.3-1.1c1.4-.8 1.1.2-.4 1.4-1 .8-1.3.6-1.4-1.1 0-1.2.1-1.6.4-.9.3.6.9 1 1.4.6zm12 .3c1.3 1.6 1.2 1.7-.3.4-1-.7-1.8-1.5-1.8-1.7 0-.8.8-.3 2.1 1.3zm8.4.1c-.3.3-1.1 0-1.8-.7-.9-1-.8-1.1.6-.5 1 .3 1.5.9 1.2 1.2zm18.1.1c-1.3 1.4-1.4 2-.5 2.3.9.3.8.6-.3 1-1 .4-1.5.2-1.4-.7.2-1.4 2.5-4.5 3.4-4.5.3 0-.3.9-1.2 1.9zm-131.2.7c.3.8.2 1.2-.4.9-.6-.3-1-1-1-1.6 0-1.4.7-1.1 1.4.7zm10.3.4c.1 1.1-.2 2-.5 2-.4 0-.8-.9-.9-2-.1-1.1.2-2 .5-2 .4 0 .8.9.9 2zm13.7-.4c.3.8.2 1.2-.4.9-.6-.3-1-1-1-1.6 0-1.4.7-1.1 1.4.7zm13-.8c.3.5-.1.9-.9.9s-1.2-.4-.9-.9c.3-.4.7-.8.9-.8.2 0 .6.4.9.8zm30.7.9c1.3 1.6 1.2 1.7-.3.4-1-.7-1.8-1.5-1.8-1.7 0-.8.8-.3 2.1 1.3zm34.6.8c0 .8-.4 1.2-.9.9-.5-.3-.6-1-.3-1.5.9-1.3 1.2-1.1 1.2.6zm31.8-.6c.3.5.2 1.2-.3 1.5-.5.3-.9-.1-.9-.9 0-1.7.3-1.9 1.2-.6zm-94.5.4c0 .2-.8 1.2-1.9 2.1-1.6 1.5-1.9 1.5-2.4.2-.4-1-.1-1.3.7-1 .8.3 1.7.1 2.1-.5.6-1.1 1.5-1.5 1.5-.8zm43.2 1.6c-.4 1-.7 1.1-1 .3-.2-.7-.9-.9-1.4-.6-.6.4-.8.3-.5-.3 1-1.6 3.6-1.1 2.9.6zm4.3-.9c.3.6-.1.7-.9.4-1.8-.7-2.1-1.4-.7-1.4.6 0 1.3.4 1.6 1zm27.5-.6c0 .2-.7.7-1.6 1-.8.3-1.2.2-.9-.4.6-1 2.5-1.4 2.5-.6zm3.7.2c-.3.3-1.2.4-1.9.1-.8-.3-.5-.6.6-.6 1.1-.1 1.7.2 1.3.5zm8.6.9c-.3.9-.8 1.4-1 1.1-.3-.3-.2-.9.2-1.5.9-1.6 1.5-1.3.8.4zm-82.3-.1c0 .2-.8 1-1.7 1.7-1.6 1.3-1.7 1.2-.4-.4 1.3-1.6 2.1-2.1 2.1-1.3zm4.2 1.4c-.7.2-.9.9-.5 1.5.3.7.2.8-.2.4-1.6-1.4-1.4-3.6.3-2.9 1 .4 1.2.7.4 1zm3.4-.3c-.1.8-.5 1.7-.8 2.1-.5.4-.4-1.6.1-3.4.3-.9.9.1.7 1.3zm4.5.2c1.3 1.6 1.2 1.7-.3.4-1.7-1.3-2.2-2.1-1.4-2.1.2 0 1 .8 1.7 1.7zm39.3 1.3c-.6.6-1 .3-1-1s.4-1.6 1-1c.7.7.7 1.3 0 2zm10.1-2c.4.6 1.1.8 1.6.5.5-.4.9-.1.9.4 0 1.5-1.1 1.3-3.4-.4-1.1-.8-1.5-1.5-.9-1.5.7 0 1.5.5 1.8 1zm-90.9 1.8c0 1-.6 1.9-1.3 1.9-.8 0-.9-.6-.2-1.9.5-1 1.1-1.8 1.2-1.8.2 0 .3.8.3 1.8zm7.4-.8c0 .5-.4 1-1 1-.5 0-1-.5-1-1 0-.6.5-1 1-1 .6 0 1 .4 1 1zm5.7 1.2c-.3.8-.6.5-.6-.6-.1-1.1.2-1.7.5-1.3.3.3.4 1.2.1 1.9zm31.4.1c-1 .9-1.1.8-.5-.6.3-1 .9-1.5 1.2-1.2.3.3 0 1.1-.7 1.8zm10.9-1.9c0 .3-.4.8-1 1.1-.5.3-1 .1-1-.4 0-.6.5-1.1 1-1.1.6 0 1 .2 1 .4zm6 .8c0 .4-.4.8-.9.8-.6 0-1.2-.4-1.5-.8-.3-.5.1-.9.9-.9s1.5.4 1.5.9zm-33.9 2.6c-.7.2-1.8-.1-2.3-.6-.8-.8-.4-.9 1.3-.5 1.3.4 1.8.8 1 1.1zm40.5-.6c.3.4-.1.5-1 .4-.8-.1-1.8-.5-2.2-.8-.3-.4.1-.5 1-.4.8.1 1.8.5 2.2.8zm3.9-.2c-.3.5-1.2 1-1.8 1-.7 0-.6-.4.3-1 1.9-1.2 2.3-1.2 1.5 0zm15.2.7c0 .9-.4 1-1.4.2-.7-.6-1.3-1.2-1.3-1.4 0-.1.6-.2 1.3-.2.8 0 1.4.6 1.4 1.4zm12.7-.9c.3.5-.1.9-.9.9s-1.2-.4-.9-.9c.3-.4.7-.8.9-.8.2 0 .6.4.9.8zM254.5 555c-.3.5-1.2 1-1.8 1-.7 0-.6-.4.3-1 1.9-1.2 2.3-1.2 1.5 0zm12.3 1.5c-.3.3-.9-.2-1.2-1.2-.6-1.4-.5-1.5.5-.6.7.7 1 1.5.7 1.8zm3.5-1c-.3.9-.8 1.4-1 1.1-.3-.3-.2-.9.2-1.5.9-1.6 1.5-1.3.8.4zm12.4.2c0 .8-.6.9-1.9.2-1-.5-1.8-1.1-1.8-1.2 0-.2.8-.3 1.8-.3s1.9.6 1.9 1.3zm32.2-.3c.9 1 .8 1.5-.2 1.9-.8.3-1.3-.3-1.3-1.4 0-2.3 0-2.3 1.5-.5zm24 0c.9 1 .8 1.5-.2 1.9-.8.3-1.3-.3-1.3-1.4 0-2.3 0-2.3 1.5-.5zm-18.5 1.2c.3.8.2 1.2-.4.9-.6-.3-1-1-1-1.6 0-1.4.7-1.1 1.4.7zm31.6-1.2c0 .2-.8 1-1.7 1.7-1.6 1.3-1.7 1.2-.4-.4 1.3-1.6 2.1-2.1 2.1-1.3zm12.4 1.2c.3.8.2 1.2-.4.9-.6-.3-1-1-1-1.6 0-1.4.7-1.1 1.4.7zm-99.7 1c-.3.3-1.2.4-1.9.1-.8-.3-.5-.6.6-.6 1.1-.1 1.7.2 1.3.5zm8.8.4c.3.6-.1.7-.9.4-1.8-.7-2.1-1.4-.7-1.4.6 0 1.3.4 1.6 1zm23.2.8c0 1-.7 1.9-1.4 1.9-.9 0-1-.4-.3-1.2.5-.7.7-1.5.3-1.8-.3-.4-.1-.7.5-.7s1 .8.9 1.8zm8 .4c.2 1.7 0 1.9-.7.8-.5-.8-.6-1.8-.4-2.2.8-1.2 1-1 1.1 1.4zm3.6-.5c-.3.7-.6 1.3-.8 1.3-.2 0-.5-.6-.8-1.3-.3-.8.1-1.4.8-1.4.7 0 1.1.6.8 1.4zm21.7-1.3c0 .2-.8 1-1.7 1.7-1.6 1.3-1.7 1.2-.4-.4 1.3-1.6 2.1-2.1 2.1-1.3zm32 0c0 .2-.8 1-1.7 1.7-1.6 1.3-1.7 1.2-.4-.4 1.3-1.6 2.1-2.1 2.1-1.3zm-90.5 2.6c1.6 1.7 1.6 2 .3 1.5-.9-.4-1.9-1.3-2.2-2.1-.7-1.9-.2-1.8 1.9.6zm17.2-.5c0 .8-.4 1.5-.9 1.5-1 0-1.1-1.4-.1-2.3.9-1 1-.9 1 .8zm21.9.5c0 1.2-.4 1.6-.9 1.1s-.6-1.4-.3-2c1-1.5 1.2-1.4 1.2.9zm15.7 0c.3 1.1.1 1.8-.4 1.4-.5-.3-.9-1.2-.9-2 0-2 .7-1.7 1.3.6zm14.4-.5c0 .8-.4 1.2-.9.9-.5-.3-.6-1-.3-1.5.9-1.3 1.2-1.1 1.2.6zm-38.3 1.1c.3.8.2 1.2-.4.9-.6-.3-1-1-1-1.6 0-1.4.7-1.1 1.4.7zm14-.5c.3.3-.5.5-1.9.5-1.3 0-2.2-.3-1.9-.7.4-.8 3-.6 3.8.2zm22 .5c.3.8.2 1.2-.4.9-.6-.3-1-1-1-1.6 0-1.4.7-1.1 1.4.7zm16-.8c.3.5-.1.9-.9.9s-1.2-.4-.9-.9c.3-.4.7-.8.9-.8.2 0 .6.4.9.8zm-30.1 1.5c.3.8-.1 1.4-.8 1.4-.7 0-1.1-.6-.8-1.4.3-.7.6-1.3.8-1.3.2 0 .5.6.8 1.3zm-47.5 1.4c-.6.7-1.2 1.3-1.3 1.3-.2 0-.5-.6-.8-1.3-.3-.7.3-1.3 1.4-1.3 1.3 0 1.5.3.7 1.3zm4.5 0c-.3.7-.6 1.3-.8 1.3-.2 0-.5-.6-.8-1.3-.3-.8.1-1.4.8-1.4.7 0 1.1.6.8 1.4zm9.2.3c-.3.5-1.2 1-1.8 1-.7 0-.6-.4.3-1 1.9-1.2 2.3-1.2 1.5 0zm10.2-.4c-.3.3-1.2.4-1.9.1-.8-.3-.5-.6.6-.6 1.1-.1 1.7.2 1.3.5zm13.3.9c-.6.8-.9 1.8-.6 2.4.3.5-.3.7-1.4.4-1.9-.5-1.9-.6.3-2.4 2.7-2.2 3.4-2.4 1.7-.4zm17.1.2c.8.9.9 1.4.2 1-.6-.4-1.3-.1-1.6.5-.3.7-.4.3-.4-1 .1-2.6.1-2.6 1.8-.5zm-38.4 1.2c0 1.1-.5 1.8-.9 1.5-.4-.3-.5-1.1-.1-1.9.7-2.1 1.2-1.9 1 .4zm43.3-.9c-1.8 1.2-3 1.3-3 .2 0-.4 1-.9 2.2-.9 1.8-.2 2 0 .8.7zm-19.1 1.3c.8 1 .7 1.4-.2 1.4-.8 0-1.4-.6-1.4-1.4 0-.7.1-1.3.2-1.3.2 0 .8.6 1.4 1.3zm4.6.7c-.3.5-1.2 1-1.8 1-.7 0-.6-.4.3-1 1.9-1.2 2.3-1.2 1.5 0z"/></svg>