<svg width="316" height="311" fill="none" xmlns="http://www.w3.org/2000/svg"><path opacity=".7" d="M62.735 157.121c-7.481-14.893-16.953-51.62 4.163-81.937a92.328 92.328 0 00-9.599 2.972c-17.483 6.533-21.26 29.785-22.024 46.007-.767 16.262 2.305 16.251 6.957 31.79 4.57 15.291 10.075 30.398 17.395 44.605-5.887-14.837-7.214-30.251 3.108-43.437z" fill="#53B1FD"/><path opacity=".6" d="M141.804 251.5c-10.725-1.224-23.773-3.188-34.684-7.881-4.743 1.81-9.682.857-14.217-1.594-13.696-7.412-23.911-24.21-31.137-37.399-.738-1.346-1.43-2.704-2.131-4.065 5.16 13.003 13.815 25.544 21.188 35.723 57.246 79.038 121.263 35.391 137.152 17.196 2.253-2.58 4.3-5.317 6.252-8.13-9.992 3.038-20.363 4.881-30.428 5.857-17.257 1.66-34.74 2.266-51.995.293zm67.168-197.405c1.791 4.237 2.963 8.604 3.787 13.05a56.447 56.447 0 017.719-.448c36.331.457 43.179 42.195 46.602 70.476 1.104 9.117 1.417 17.473 1.065 25.129 4.283 5.358 7.782 11.234 10.802 17.394 2.107 4.299 2.89 8.808 2.535 13.513 4.361-14.638.54-33.282-3.03-47.514-4.291-17.09-11.102-33.475-18.862-49.262-11.176-22.749-28.036-45.414-51.63-56.356-4.797-2.223-10.577-4.484-16.142-4.801 7.22 3.6 13.242 9.545 17.154 18.82z" fill="#2E90FA"/><path opacity=".7" d="M231.445 99c5.605 8.516 3.767 20.048-3.693 26.786a19.616 19.616 0 01-2.949 2.196 161.848 161.848 0 007.753 13.818c.562.08 1.113.165 1.671.261 7.919 1.392 15.124 4.32 21.749 8.774 3.744 2.508 7.056 5.522 10.037 8.92a65.68 65.68 0 012.117 2.543c.352-7.656.039-16.013-1.066-25.129-3.422-28.281-10.268-70.028-46.602-70.476a56.423 56.423 0 00-7.718.447c.681 3.698 1.121 7.454 1.447 11.229 5.978 6.742 12.354 13.186 17.254 20.632z" fill="#53B1FD"/><path opacity=".6" d="M231.445 99c5.605 8.516 3.767 20.048-3.693 26.786a19.616 19.616 0 01-2.949 2.196 161.848 161.848 0 007.753 13.818c.562.08 1.113.165 1.671.261 7.919 1.392 15.124 4.32 21.749 8.774 3.744 2.508 7.056 5.522 10.037 8.92a65.68 65.68 0 012.117 2.543c.352-7.656.039-16.013-1.066-25.129-3.422-28.281-10.268-70.028-46.602-70.476a56.423 56.423 0 00-7.718.447c.681 3.698 1.121 7.454 1.447 11.229 5.978 6.742 12.354 13.186 17.254 20.632z" fill="#2E90FA"/><path opacity=".7" d="M92.898 242.014c4.535 2.451 9.482 3.407 14.216 1.594-4.166-1.791-8.02-3.987-11.319-6.689-4.424-3.638-7.326-8.44-6.725-14.31.202-1.97.652-3.905 1.094-5.843.36-1.609.712-3.213.895-4.847.33-2.977.097-5.976-.54-8.894-.264-.857-.5-1.722-.676-2.596a40.275 40.275 0 00-2.738-6.699c-6.487-12.635-17.005-22.864-23.755-35.422-.198-.371-.405-.77-.61-1.176-10.322 13.185-8.99 28.609-3.107 43.436.7 1.361 1.393 2.719 2.13 4.065 7.223 13.171 17.439 29.969 31.135 37.381z" fill="#53B1FD"/><path opacity=".6" d="M92.898 242.014c4.535 2.451 9.482 3.407 14.216 1.594-4.166-1.791-8.02-3.987-11.319-6.689-4.424-3.638-7.326-8.44-6.725-14.31.202-1.97.652-3.905 1.094-5.843.36-1.609.712-3.213.895-4.847.33-2.977.097-5.976-.54-8.894-.264-.857-.5-1.722-.676-2.596a40.275 40.275 0 00-2.738-6.699c-6.487-12.635-17.005-22.864-23.755-35.422-.198-.371-.405-.77-.61-1.176-10.322 13.185-8.99 28.609-3.107 43.436.7 1.361 1.393 2.719 2.13 4.065 7.223 13.171 17.439 29.969 31.135 37.381z" fill="#2E90FA"/><path opacity=".6" d="M151.814 80.427c1.962-3.336 3.924-6.672 5.872-10.02 1.599-2.743 3.319-5.32 5.67-7.498.447-.41.902-.793 1.356-1.169.376-.73.753-1.46 1.121-2.191 4.777-9.521 10.234-22.873 22.492-24.211a21.111 21.111 0 013.488-.072c-18.646-9.294-45.37-2.932-65.009 2.44-30.65 8.388-49.206 22.104-59.904 37.47 16.67-4.223 33.723-3.63 48.99.355 11.711 3.062 23.825 4.602 35.924 4.896zM267.865 215.44c-6.16 3.712-13.788 4.86-20.768 3.176-.32-.079-.636-.175-.961-.264a72.503 72.503 0 01-9.579 8.221c-4.292 6.103-8.074 12.622-12.336 18.766 14.714-4.471 28.604-11.52 39.485-22.226 3.259-3.203 6.81-7.101 9.129-11.397a29.92 29.92 0 01-4.97 3.724z" fill="#1849A9"/><path opacity=".7" d="M243.769 217.565c-.222.231-.439.471-.653.704-2.372 2.614-4.52 5.415-6.556 8.296a72.43 72.43 0 009.578-8.222 30.595 30.595 0 01-2.302-.751c-.015-.004-.036-.019-.067-.027z" fill="#53B1FD"/><path opacity=".6" d="M243.769 217.565c-.222.231-.439.471-.653.704-2.372 2.614-4.52 5.415-6.556 8.296a72.43 72.43 0 009.578-8.222 30.595 30.595 0 01-2.302-.751c-.015-.004-.036-.019-.067-.027z" fill="#1849A9"/><path opacity=".7" d="M62.735 157.122a44.49 44.49 0 014.292-4.711c16.278-15.461 40.442-18.56 56.867-33.772 5.375-4.979 10.345-10.395 14.963-16.108a567.112 567.112 0 012.627-4.536c3.419-5.869 6.882-11.716 10.33-17.569-12.099-.293-24.213-1.833-35.926-4.888-15.267-3.985-32.319-4.577-48.99-.354-21.114 30.31-11.652 67.042-4.163 81.938z" fill="#53B1FD"/><path opacity=".6" d="M62.735 157.122a44.49 44.49 0 014.292-4.711c16.278-15.461 40.442-18.56 56.867-33.772 5.375-4.979 10.345-10.395 14.963-16.108a567.112 567.112 0 012.627-4.536c3.419-5.869 6.882-11.716 10.33-17.569-12.099-.293-24.213-1.833-35.926-4.888-15.267-3.985-32.319-4.577-48.99-.354-21.114 30.31-11.652 67.042-4.163 81.938z" fill="#1849A9"/><path opacity=".6" d="M165.841 59.55c-.369.733-.745 1.463-1.121 2.193 8.005-6.505 18.604-7.817 28.3-4.31 5.677 2.057 9.665 6.067 13.093 10.839a74.033 74.033 0 016.649-1.135c-.817-4.444-1.997-8.812-3.788-13.05-3.922-9.268-9.934-15.22-17.161-18.821a21.114 21.114 0 00-3.488.072c-12.258 1.338-17.707 14.692-22.484 24.213z" fill="#2E90FA"/><path opacity=".6" d="M165.841 59.55c-.369.733-.745 1.463-1.121 2.193 8.005-6.505 18.604-7.817 28.3-4.31 5.677 2.057 9.665 6.067 13.093 10.839a74.033 74.033 0 016.649-1.135c-.817-4.444-1.997-8.812-3.788-13.05-3.922-9.268-9.934-15.22-17.161-18.821a21.114 21.114 0 00-3.488.072c-12.258 1.338-17.707 14.692-22.484 24.213z" fill="#1849A9"/><path opacity=".6" d="M178.671 242.366c-14.296-1.517-27.851-7.447-42.123-8.69-6.325-.552-12.92.205-18.494 3.245-1.452.792-2.828 1.73-4.19 2.68-1.642 1.148-3.279 2.305-5.039 3.246-.566.302-1.136.553-1.705.772 10.917 4.702 23.959 6.657 34.684 7.88 17.263 1.976 34.738 1.368 51.999-.308 10.058-.978 20.436-2.818 30.428-5.857 4.264-6.152 8.044-12.663 12.336-18.766-20.64 14.808-45.882 17.068-57.896 15.798z" fill="#2E90FA"/><path opacity=".6" d="M178.671 242.366c-14.296-1.517-27.851-7.447-42.123-8.69-6.325-.552-12.92.205-18.494 3.245-1.452.792-2.828 1.73-4.19 2.68-1.642 1.148-3.279 2.305-5.039 3.246-.566.302-1.136.553-1.705.772 10.917 4.702 23.959 6.657 34.684 7.88 17.263 1.976 34.738 1.368 51.999-.308 10.058-.978 20.436-2.818 30.428-5.857 4.264-6.152 8.044-12.663 12.336-18.766-20.64 14.808-45.882 17.068-57.896 15.798z" fill="#1849A9"/><path opacity=".7" d="M93.999 179.674c4.415-7.302 8.582-14.765 12.855-22.157 3.307-5.708 6.602-11.427 9.937-17.11 4.254-7.264 8.581-14.491 12.824-21.775 3.118-5.351 6.163-10.739 9.242-16.101-4.62 5.721-9.59 11.137-14.963 16.108-16.425 15.212-40.598 18.309-56.867 33.772a42.519 42.519 0 00-4.292 4.711c.205.407.412.806.61 1.177 6.749 12.557 17.27 22.778 23.754 35.421a40.758 40.758 0 012.738 6.7c-.5-2.422-.66-4.926-.404-7.515.49-4.8 2.07-9.108 4.566-13.231z" fill="#53B1FD"/><path opacity=".6" d="M93.999 179.674c4.415-7.302 8.582-14.765 12.855-22.157 3.307-5.708 6.602-11.427 9.937-17.11 4.254-7.264 8.581-14.491 12.824-21.775 3.118-5.351 6.163-10.739 9.242-16.101-4.62 5.721-9.59 11.137-14.963 16.108-16.425 15.212-40.598 18.309-56.867 33.772a42.519 42.519 0 00-4.292 4.711c.205.407.412.806.61 1.177 6.749 12.557 17.27 22.778 23.754 35.421a40.758 40.758 0 012.738 6.7c-.5-2.422-.66-4.926-.404-7.515.49-4.8 2.07-9.108 4.566-13.231z" fill="#2E90FA"/><path opacity=".6" d="M93.999 179.674c4.415-7.302 8.582-14.765 12.855-22.157 3.307-5.708 6.602-11.427 9.937-17.11 4.254-7.264 8.581-14.491 12.824-21.775 3.118-5.351 6.163-10.739 9.242-16.101-4.62 5.721-9.59 11.137-14.963 16.108-16.425 15.212-40.598 18.309-56.867 33.772a42.519 42.519 0 00-4.292 4.711c.205.407.412.806.61 1.177 6.749 12.557 17.27 22.778 23.754 35.421a40.758 40.758 0 012.738 6.7c-.5-2.422-.66-4.926-.404-7.515.49-4.8 2.07-9.108 4.566-13.231z" fill="#1849A9"/><path opacity=".7" d="M214.209 78.367c-.326-3.775-.766-7.531-1.447-11.23a74.67 74.67 0 00-6.649 1.135l.283.395c2.393 3.386 5.057 6.572 7.813 9.7z" fill="#53B1FD"/><path opacity=".6" d="M214.209 78.367c-.326-3.775-.766-7.531-1.447-11.23a74.67 74.67 0 00-6.649 1.135l.283.395c2.393 3.386 5.057 6.572 7.813 9.7z" fill="#2E90FA"/><path opacity=".6" d="M212.762 67.138c-2.235.276-4.45.657-6.649 1.134.096.135 7.33 2.564 6.649-1.134z" fill="#1849A9"/><path opacity=".7" d="M224.803 127.982c-2.483 1.508-5.373 2.495-8.275 2.345-5.305-.262-7.295-4.229-10.746-7.498-4.945-4.682-10.757-12.779-18.152-12.809-7.654-.027-16.05 2.818-20.628 9.201-3.25 4.531-4.604 9.652-3.715 15.133.756 4.635 2.905 8.662 6.456 11.901 2.764 2.521 5.968 4.205 9.566 4.914 2.706.529 5.494.664 8.215-.494 3.505-1.493 7.111-2.75 10.671-4.111 2.369-.914 4.708-1.928 7.114-2.732 3.279-1.096 6.606-2.005 10.093-2.194 1.997-.107 3.993-.482 5.986-.483 3.733.004 7.451.129 11.174.655a169.442 169.442 0 01-7.759-13.828z" fill="#53B1FD"/><path opacity=".6" d="M224.803 127.982c-2.483 1.508-5.373 2.495-8.275 2.345-5.305-.262-7.295-4.229-10.746-7.498-4.945-4.682-10.757-12.779-18.152-12.809-7.654-.027-16.05 2.818-20.628 9.201-3.25 4.531-4.604 9.652-3.715 15.133.756 4.635 2.905 8.662 6.456 11.901 2.764 2.521 5.968 4.205 9.566 4.914 2.706.529 5.494.664 8.215-.494 3.505-1.493 7.111-2.75 10.671-4.111 2.369-.914 4.708-1.928 7.114-2.732 3.279-1.096 6.606-2.005 10.093-2.194 1.997-.107 3.993-.482 5.986-.483 3.733.004 7.451.129 11.174.655a169.442 169.442 0 01-7.759-13.828z" fill="#2E90FA"/><path opacity=".6" d="M224.803 127.982c-2.483 1.508-5.373 2.495-8.275 2.345-5.305-.262-7.295-4.229-10.746-7.498-4.945-4.682-10.757-12.779-18.152-12.809-7.654-.027-16.05 2.818-20.628 9.201-3.25 4.531-4.604 9.652-3.715 15.133.756 4.635 2.905 8.662 6.456 11.901 2.764 2.521 5.968 4.205 9.566 4.914 2.706.529 5.494.664 8.215-.494 3.505-1.493 7.111-2.75 10.671-4.111 2.369-.914 4.708-1.928 7.114-2.732 3.279-1.096 6.606-2.005 10.093-2.194 1.997-.107 3.993-.482 5.986-.483 3.733.004 7.451.129 11.174.655a169.442 169.442 0 01-7.759-13.828z" fill="#1849A9"/><path opacity=".7" d="M243.768 217.566c-5.359-2.062-10.27-5.776-13.331-10.671-2.823-4.514-5.73-9-9.551-12.797-4.668-4.63-9.907-8.368-16.117-10.605-2.958-1.066-5.964-2.229-9.048-2.654-4.54-.618-9.114-1.596-13.752-.649-1.659.334-3.379.435-5.02.85-3.101.787-6.252 1.51-9.23 2.665-5.011 1.936-9.455 4.871-13.505 8.431-2.553 2.247-4.287 5.087-6.161 7.83-2.997 4.401-5.791 8.941-8.871 13.277-3.002 4.233-7.199 6.877-12.11 8.541-3.338 1.13-6.729 1.546-10.206 1.487-5.42-.086-10.37-1.726-14.861-4.698-4.172-2.768-7.524-6.335-9.682-10.874a34.085 34.085 0 01-1.822-4.67c.643 2.928.877 5.919.54 8.894-.183 1.633-.528 3.247-.894 4.847-.435 1.939-.885 3.874-1.095 5.843-.601 5.87 2.3 10.68 6.725 14.309 3.297 2.71 7.153 4.899 11.32 6.69.569-.218 1.138-.47 1.705-.772 1.768-.938 3.396-2.098 5.038-3.246 1.363-.95 2.731-1.89 4.191-2.679 5.574-3.04 12.166-3.79 18.494-3.245 14.272 1.242 27.828 7.165 42.123 8.689 12.011 1.278 37.253-.981 57.896-15.798 2.031-2.891 4.177-5.684 6.556-8.296a30.4 30.4 0 00.668-.699z" fill="#53B1FD"/><path opacity=".6" d="M243.768 217.566c-5.359-2.062-10.27-5.776-13.331-10.671-2.823-4.514-5.73-9-9.551-12.797-4.668-4.63-9.907-8.368-16.117-10.605-2.958-1.066-5.964-2.229-9.048-2.654-4.54-.618-9.114-1.596-13.752-.649-1.659.334-3.379.435-5.02.85-3.101.787-6.252 1.51-9.23 2.665-5.011 1.936-9.455 4.871-13.505 8.431-2.553 2.247-4.287 5.087-6.161 7.83-2.997 4.401-5.791 8.941-8.871 13.277-3.002 4.233-7.199 6.877-12.11 8.541-3.338 1.13-6.729 1.546-10.206 1.487-5.42-.086-10.37-1.726-14.861-4.698-4.172-2.768-7.524-6.335-9.682-10.874a34.085 34.085 0 01-1.822-4.67c.643 2.928.877 5.919.54 8.894-.183 1.633-.528 3.247-.894 4.847-.435 1.939-.885 3.874-1.095 5.843-.601 5.87 2.3 10.68 6.725 14.309 3.297 2.71 7.153 4.899 11.32 6.69.569-.218 1.138-.47 1.705-.772 1.768-.938 3.396-2.098 5.038-3.246 1.363-.95 2.731-1.89 4.191-2.679 5.574-3.04 12.166-3.79 18.494-3.245 14.272 1.242 27.828 7.165 42.123 8.689 12.011 1.278 37.253-.981 57.896-15.798 2.031-2.891 4.177-5.684 6.556-8.296a30.4 30.4 0 00.668-.699z" fill="#2E90FA"/><path opacity=".6" d="M243.768 217.566c-5.359-2.062-10.27-5.776-13.331-10.671-2.823-4.514-5.73-9-9.551-12.797-4.668-4.63-9.907-8.368-16.117-10.605-2.958-1.066-5.964-2.229-9.048-2.654-4.54-.618-9.114-1.596-13.752-.649-1.659.334-3.379.435-5.02.85-3.101.787-6.252 1.51-9.23 2.665-5.011 1.936-9.455 4.871-13.505 8.431-2.553 2.247-4.287 5.087-6.161 7.83-2.997 4.401-5.791 8.941-8.871 13.277-3.002 4.233-7.199 6.877-12.11 8.541-3.338 1.13-6.729 1.546-10.206 1.487-5.42-.086-10.37-1.726-14.861-4.698-4.172-2.768-7.524-6.335-9.682-10.874a34.085 34.085 0 01-1.822-4.67c.643 2.928.877 5.919.54 8.894-.183 1.633-.528 3.247-.894 4.847-.435 1.939-.885 3.874-1.095 5.843-.601 5.87 2.3 10.68 6.725 14.309 3.297 2.71 7.153 4.899 11.32 6.69.569-.218 1.138-.47 1.705-.772 1.768-.938 3.396-2.098 5.038-3.246 1.363-.95 2.731-1.89 4.191-2.679 5.574-3.04 12.166-3.79 18.494-3.245 14.272 1.242 27.828 7.165 42.123 8.689 12.011 1.278 37.253-.981 57.896-15.798 2.031-2.891 4.177-5.684 6.556-8.296a30.4 30.4 0 00.668-.699z" fill="#1849A9"/></svg>